<?xml version="1.0" encoding="utf-8"?>
<!-- Generator: Adobe Illustrator 27.5.0, SVG Export Plug-In . SVG Version: 6.00 Build 0)  -->
<svg version="1.1" id="Layer_1" xmlns="http://www.w3.org/2000/svg" xmlns:xlink="http://www.w3.org/1999/xlink" x="0px" y="0px"
	 viewBox="0 0 2512.222 2000" style="enable-background:new 0 0 2512.222 2000;" xml:space="preserve">
<rect style="fill:#FFFFFF;" width="2512.222" height="2000"/>
<g>
	<g style="opacity:0.4;">
		<g>
			<g>
				<g>
					<path style="fill:#FECC86;" d="M2238.844,1492.903c-40.214,90.9-95.976,162.932-162.665,219.435
						c-77.01,65.262-168.597,109.811-267.641,138.785c-322.243,94.289-723.361,23.711-957.925-34.843
						c-47.566-11.877-88.282-23.26-120.102-32.672c-53.708-15.887-104.613-40.148-150.487-72.282
						c-0.24-0.168-0.479-0.336-0.719-0.504c-314.349-220.496-447.861-535.639-343.34-834.127
						c1.624-4.657,309.799-952.591,1040.546-639.527c320.798,137.438,202.798,254.225,558.386,400.297
						c166.242,68.295,386.23,190.113,446.577,477.468C2303.009,1217.483,2295.757,1364.243,2238.844,1492.903z"/>
				</g>
			</g>
		</g>
	</g>
	<g style="opacity:0.3;">
		<g>
			<g>
				<g>
					<g>
						<path style="fill:#FECC86;" d="M1403.735,887.1c16.126,10.898,33.673,18.888,51.908,23.907l6.692,46.362l32.005,1.242
							l32.005,1.243l10.266-45.703c18.569-3.589,36.683-10.195,53.605-19.81l37.52,28.054l23.51-21.752l23.51-21.753l-25.061-39.582
							c10.898-16.126,18.888-33.673,23.907-51.908l46.362-6.692l1.242-32.005l1.242-32.005l-45.703-10.267
							c-3.589-18.569-10.195-36.682-19.81-53.604l28.055-37.521l-21.753-23.51l-21.752-23.51l-39.583,25.061
							c-16.126-10.898-33.673-18.888-51.907-23.906l-6.692-46.362l-32.005-1.243l-32.005-1.243l-10.267,45.704
							c-18.568,3.59-36.682,10.195-53.605,19.81l-37.52-28.055l-23.51,21.752l-23.51,21.752l25.061,39.582
							c-10.898,16.126-18.888,33.673-23.906,51.908l-46.362,6.692l-1.243,32.005l-1.242,32.005l45.703,10.267
							c3.589,18.569,10.195,36.682,19.81,53.605l-28.055,37.52l21.752,23.51l21.752,23.51L1403.735,887.1z M1421.213,652.024
							c48.711-45.07,124.736-42.119,169.806,6.593c45.07,48.712,42.119,124.737-6.593,169.807
							c-48.711,45.07-124.736,42.118-169.807-6.593C1369.55,773.12,1372.502,697.094,1421.213,652.024z"/>
					</g>
				</g>
			</g>
		</g>
	</g>
	<g style="opacity:0.5;">
		<g>
			<g>
				<g>
					<g>
						<path style="fill:#FECC86;" d="M1149.549,1274.44c-16.026-8.936-33.151-15.026-50.682-18.269l-10.024-43.006l-30.161,1.414
							l-30.161,1.413l-5.958,43.755c-17.151,4.869-33.632,12.534-48.752,22.929l-37.503-23.325l-20.328,22.327l-20.328,22.327
							l26.73,35.157c-8.936,16.025-15.026,33.151-18.269,50.682l-43.006,10.024l1.414,30.161l1.413,30.161l43.755,5.958
							c4.868,17.151,12.533,33.632,22.929,48.751l-23.325,37.503l22.327,20.328l22.327,20.328l35.157-26.73
							c16.026,8.936,33.151,15.026,50.682,18.269l10.024,43.006l30.161-1.413l30.161-1.413l5.958-43.755
							c17.151-4.868,33.632-12.533,48.751-22.929l37.503,23.325l20.328-22.327l20.328-22.327l-26.731-35.157
							c8.936-16.025,15.026-33.151,18.269-50.682l43.006-10.024l-1.413-30.161l-1.413-30.161l-43.755-5.958
							c-4.868-17.152-12.533-33.632-22.929-48.752l23.325-37.503l-22.327-20.328l-22.327-20.328L1149.549,1274.44z
							 M1152.088,1496.646c-42.118,46.26-113.763,49.618-160.024,7.5c-46.26-42.118-49.618-113.763-7.499-160.024
							c42.118-46.26,113.763-49.618,160.024-7.5S1194.207,1450.386,1152.088,1496.646z"/>
					</g>
				</g>
			</g>
		</g>
	</g>
	<g style="opacity:0.5;">
		<g>
			<g>
				<g>
					<g>
						<path style="fill:#FECC86;" d="M1529.684,1560.188c-6.879-9.179-15.11-17.012-24.297-23.323l5.213-27.109l-17.584-6.864
							l-17.584-6.864l-14.531,23.472c-11.033-1.582-22.394-1.396-33.672,0.695l-15.485-22.859l-17.287,7.58l-17.287,7.58
							l6.323,26.876c-9.179,6.879-17.012,15.11-23.323,24.297l-27.109-5.213l-6.864,17.584l-6.864,17.584l23.472,14.531
							c-1.582,11.033-1.396,22.394,0.695,33.672l-22.859,15.485l7.58,17.287l7.58,17.287l26.876-6.323
							c6.879,9.179,15.11,17.012,24.297,23.323l-5.213,27.109l17.584,6.864l17.584,6.864l14.531-23.472
							c11.033,1.582,22.394,1.396,33.672-0.695l15.485,22.859l17.287-7.58l17.287-7.58l-6.324-26.876
							c9.179-6.879,17.012-15.11,23.323-24.297l27.109,5.213l6.864-17.584l6.864-17.584l-23.472-14.531
							c1.582-11.033,1.396-22.394-0.695-33.672l22.858-15.485l-7.58-17.287l-7.58-17.287L1529.684,1560.188z M1474.62,1687.73
							c-35.818,15.706-77.587-0.598-93.293-36.416c-15.706-35.818,0.598-77.587,36.416-93.293
							c35.818-15.706,77.587,0.598,93.293,36.416C1526.743,1630.256,1510.438,1672.024,1474.62,1687.73z"/>
					</g>
				</g>
			</g>
		</g>
	</g>
	<g>
		<g>
			<g>
				<g>
					<g>
						<g>
							<g>
								<path style="fill:#3E9896;" d="M656.314,775.385c0,0-51.98-85.939-176.683-63.654
									C479.631,711.731,563.582,836.232,656.314,775.385z"/>
							</g>
						</g>
					</g>
				</g>
			</g>
		</g>
	</g>
	<g>
		<g>
			<g>
				<g>
					<g>
						<g>
							<g>
								<path style="fill:#80C4A4;" d="M737.487,798.071c0,0-15.484-172.267-225.294-232.028
									C512.194,566.043,548.008,822.142,737.487,798.071z"/>
							</g>
						</g>
					</g>
				</g>
			</g>
		</g>
	</g>
	<g>
		<g>
			<path style="fill:#FE9F73;" d="M988.548,774.88c0,0,59.325-14.516,76.496,7.789c17.17,22.306-25.108,83.815-57.227,88.592
				C975.697,876.039,988.548,774.88,988.548,774.88z"/>
		</g>
		<g>
			<path style="fill:#ED7163;" d="M820.863,1596.799c0,0,150.967-73.31,178.643-176.863
				c27.676-103.553-150.016-116.787-147.547-116.775c2.469,0.012-180.469,48.474-192.961,78.037
				c-12.492,29.564-67.424,152.731-45.205,152.843C636.013,1534.152,820.863,1596.799,820.863,1596.799z"/>
		</g>
		<g>
			<g>
				<g>
					<path style="fill:#D0F6FC;" d="M954.423,666.885c-0.044-0.223-0.092-0.445-0.146-0.664c-1.701-7.446-8.715-12.449-16.31-11.641
						c-0.225,0.021-0.45,0.047-0.676,0.078c-0.075,0.011-0.148,0.013-0.223,0.026l-332.204,55.422
						c-0.075,0.012-0.145,0.035-0.219,0.048c-0.224,0.044-0.445,0.093-0.665,0.146c-7.446,1.701-12.456,8.71-11.648,16.305
						c0.021,0.224,0.047,0.449,0.078,0.675c0.011,0.075,0.013,0.149,0.026,0.223l115.235,690.732
						c1.199,7.185,7.995,12.032,15.173,10.834l336.027-56.059c7.178-1.198,12.033-7.988,10.834-15.173L954.471,667.105
						C954.459,667.03,954.437,666.959,954.423,666.885z"/>
				</g>
			</g>
			<g>
				<path style="fill:#0D93B2;" d="M585.992,724.186l24.066-23.137l323.826-53.166l32.558,20.236c0,0,2.078,29.351,0.372,30.088
					c-1.706,0.737-376.699,67.786-377.648,62.003C588.216,754.427,585.992,724.186,585.992,724.186z"/>
			</g>
			<g style="opacity:0.5;">
				<g>
					<g>
						<g>
							<g>
								<path style="fill:#FFFFFF;" d="M623.266,733.739c0.339,2.029-0.578,3.977-2.187,5.047c-0.574,0.387-1.245,0.662-1.976,0.784
									c-0.725,0.121-1.441,0.077-2.117-0.101c-1.868-0.483-3.376-2.033-3.714-4.063c-0.461-2.761,1.41-5.371,4.163-5.831
									C620.196,729.115,622.805,730.978,623.266,733.739z"/>
							</g>
						</g>
					</g>
				</g>
				<g>
					<g>
						<g>
							<g>
								<path style="fill:#FFFFFF;" d="M638.727,731.16c0.339,2.029-0.578,3.977-2.187,5.047c-0.574,0.386-1.244,0.662-1.976,0.784
									c-0.732,0.122-1.455,0.08-2.124-0.1c-1.869-0.49-3.369-2.035-3.707-4.064c-0.461-2.761,1.403-5.37,4.164-5.831
									C635.657,726.536,638.266,728.399,638.727,731.16z"/>
							</g>
						</g>
					</g>
				</g>
				<g>
					<g>
						<g>
							<g>
								<path style="fill:#FFFFFF;" d="M654.187,728.58c0.339,2.029-0.578,3.977-2.187,5.047c-0.574,0.387-1.245,0.662-1.976,0.784
									c-0.732,0.122-1.455,0.079-2.124-0.1c-1.87-0.49-3.369-2.034-3.707-4.064c-0.461-2.761,1.403-5.37,4.163-5.831
									C651.117,723.956,653.727,725.819,654.187,728.58z"/>
							</g>
						</g>
					</g>
				</g>
			</g>
			<g>
				<g>
					<g>
						<g>
							<g>
								<path style="fill:#20111D;" d="M1068.513,1350.686c1.857,11.133-5.666,21.66-16.792,23.517l-321.719,53.672
									c-11.133,1.857-21.666-5.657-23.523-16.791L593.702,735.081c-2.073-12.424,6.319-24.167,18.735-26.238l317.06-52.895
									c12.417-2.071,24.166,6.312,26.238,18.735L1068.513,1350.686z M927.659,640.846l-318.386,53.116
									c-20.485,3.417-34.328,22.795-30.909,43.288l113.938,682.96c3.419,20.492,22.803,34.327,43.288,30.909l318.386-53.116
									c20.492-3.419,34.328-22.796,30.909-43.288l-113.938-682.96C967.528,651.263,948.151,637.427,927.659,640.846z"/>
							</g>
						</g>
					</g>
				</g>
			</g>
		</g>
		<g>
			<path style="fill:#FE9F73;" d="M851.809,1578.441l-0.009,0.91v0.286l-0.437,87.679l-0.749,148.963
				c-47.566-11.877-88.282-23.26-120.102-32.672c-53.708-15.887-104.613-40.148-150.487-72.282c-0.24-0.168-0.479-0.336-0.719-0.504
				l6.146-188.026c0,0-38.617-175.493-35.941-217.446c2.685-41.962,30.321-138.098,42.845-175.073
				c3.684-10.865,5.888-24.951,7.163-39.411c0.098-1.079,0.187-2.159,0.268-3.247c0-0.027,0.009-0.045,0.009-0.045
				c1.097-13.88,1.374-27.912,1.329-39.625c0-0.366,0-0.732-0.009-1.106c0-1.026-0.009-2.025-0.018-3.006
				c0-0.259-0.009-0.517-0.009-0.776c-0.169-14.139-0.767-23.844-0.767-23.844c0.241-2.4,0.58-4.648,0.99-6.762
				c0.419-2.212,0.937-4.264,1.525-6.173c0.446-1.454,0.946-2.819,1.481-4.095c3.613-8.635,9.152-13.479,15.691-15.281
				c4.844-1.338,10.241-1.008,15.816,0.678c19.741,5.977,41.748,29.009,49.553,55.512c14.567,49.455,1.508,192.575,1.508,192.575
				s33.764,34.103,54.959,102.086c5.62,18.019,10.357,38.42,13.345,61.203c1.133,8.662,1.704,16.788,1.757,24.415
				c0.089,8.813-0.5,16.949-1.606,24.451c-1.57,10.669-4.211,20.062-7.538,28.314c-17.725,44.014-54.995,55.833-54.995,55.833
				l2.462,0.723l60.775,17.761l92.568,27.047l3.176,0.927L851.809,1578.441z"/>
		</g>
		<g>
			<g>
				<path style="fill:#FE9F73;" d="M1045.097,1108.443l4.139,25.287c0,0-35.67,35.989-24.032,81.697
					c11.638,45.708,42.376,51.217,42.376,51.217s48.019-64.365,47.264-86.708
					C1114.089,1157.593,1113.904,1118.394,1045.097,1108.443z"/>
			</g>
			<g>
				<path style="fill:#F78A5E;" d="M1073.704,1258.174c0,0,19.254-19.522,37.136-62.129c-2.974-1.843-8.497-3.435-12.035-4.485
					c-10.859-3.224-17.766-0.992-23.642,6.629l-22.101,32.349c0,0-4.248,8.259,5.083,17.805
					C1061.733,1252.013,1073.704,1258.174,1073.704,1258.174z"/>
			</g>
		</g>
		<g>
			<path d="M1068.222,1268.37l-1.007-0.249c-15.42-3.821-24.972-15.711-25.371-16.215c-1.004-1.177-25.345-30.218-20.486-64.015
				c4.835-33.638,33.043-61.034,34.241-62.184l2.107,2.195c-0.286,0.275-28.652,27.839-33.336,60.421
				c-4.66,32.416,19.581,61.364,19.826,61.652c0.122,0.153,8.941,11.099,22.753,14.93l27.399-38.671
				c28.671-41.39,15.454-73.785,15.316-74.107l2.798-1.195c0.149,0.348,3.645,8.683,3.468,22.41
				c-0.162,12.586-3.605,32.282-19.091,54.638L1068.222,1268.37z"/>
		</g>
		<g>
			<g>
				<path style="fill:#FE9F73;" d="M1072.952,1280.702l3.234,19.759c0,0-27.873,28.122-18.779,63.839s33.114,40.021,33.114,40.021
					s37.522-50.295,36.932-67.754C1126.863,1319.109,1126.718,1288.478,1072.952,1280.702z"/>
			</g>
			<g>
				<path style="fill:#F78A5E;" d="M1095.305,1397.704c0,0,15.045-15.255,29.019-48.548c-2.323-1.44-6.64-2.684-9.404-3.505
					c-8.485-2.519-13.883-0.775-18.474,5.18l-17.27,25.278c0,0-3.319,6.453,3.972,13.913
					C1085.951,1392.889,1095.305,1397.704,1095.305,1397.704z"/>
			</g>
		</g>
		<g>
			<path d="M1091.022,1405.671l-0.787-0.195c-12.05-2.985-19.513-12.277-19.825-12.671c-0.784-0.92-19.804-23.612-16.008-50.022
				c3.779-26.285,25.82-47.692,26.757-48.591l1.646,1.715c-0.224,0.214-22.389,21.753-26.049,47.214
				c-3.641,25.33,15.301,47.95,15.493,48.175c0.096,0.119,6.986,8.674,17.779,11.667l21.41-30.218
				c22.404-32.343,12.076-57.656,11.969-57.907l2.187-0.934c0.46,1.075,10.994,26.711-12.208,60.206L1091.022,1405.671z"/>
		</g>
		<g>
			<path style="fill:#FE9F73;" d="M749.249,1472.067c0,0-24.062,62.223,6.75,78.368s-74.206,24.748-74.191,21.705
				c0.015-3.043-72.56-93.167-54.281-97.639c18.279-4.473,75.435-25.486,88.298-11.729
				C728.688,1476.528,749.249,1472.067,749.249,1472.067z"/>
		</g>
		<g>
			<g>
				<path style="fill:#FE9F73;" d="M1020.792,958.733l4.139,25.287c0,0-35.67,35.989-24.032,81.697
					c11.638,45.708,42.377,51.217,42.377,51.217s48.019-64.365,47.264-86.708C1089.784,1007.883,1089.599,968.684,1020.792,958.733z
					"/>
			</g>
			<g>
				<path style="fill:#F78A5E;" d="M1049.399,1108.464c0,0,19.254-19.522,37.136-62.129c-2.973-1.843-8.497-3.435-12.035-4.485
					c-10.859-3.224-17.766-0.992-23.642,6.629l-22.101,32.349c0,0-4.248,8.259,5.083,17.805
					C1037.428,1102.303,1049.399,1108.464,1049.399,1108.464z"/>
			</g>
		</g>
		<g>
			<rect x="807.151" y="1621.354" transform="matrix(0.005 -1 1 0.005 -775.52 2466.3477)" width="88.878" height="3.043"/>
		</g>
		<g>
			<path d="M843.837,1583.046l-1.228-2.784c51.692-22.803,99.717-66.673,122.463-97.784c20.117-27.513,28.745-47.853,28.83-48.055
				l2.806,1.176c-0.086,0.205-8.833,20.846-29.18,48.675C944.55,1515.702,896.041,1560.016,843.837,1583.046z"/>
		</g>
		<g>
			<path style="fill:#F78A5E;" d="M634.36,1010.945c-3.03-8.576-24.938-9.722-31.376-8.573c-4.156,0.742,0.194,81.517-3.187,85.202
				c0,0-0.612,1.011,10.02,1.382c11.717,0.408,19.855-4.532,19.855-4.532S637.39,1019.52,634.36,1010.945z"/>
		</g>
		<g>
			<path d="M1043.923,1118.651l-0.999-0.237c-13.866-3.285-24.872-15.633-25.334-16.157c-1.055-1.239-25.396-30.28-20.538-64.076
				c4.836-33.638,33.043-61.034,34.242-62.184l2.106,2.195c-0.286,0.275-28.652,27.838-33.336,60.421
				c-4.66,32.415,19.581,61.363,19.826,61.652c0.087,0.099,10.284,11.521,22.748,14.936l27.403-38.677
				c28.671-41.39,15.454-73.785,15.317-74.107l2.798-1.195c0.149,0.349,3.644,8.684,3.468,22.41
				c-0.162,12.587-3.606,32.283-19.091,54.638L1043.923,1118.651z"/>
		</g>
		<g>
			<polygon points="1023.429,984.266 975.348,707.29 978.35,706.798 1026.432,983.774 			"/>
		</g>
		<g>
			<path d="M1058.544,830.659l-2.48-1.763c0.212-0.299,21.067-30.112,5.765-47.536c-15.515-17.664-70.32-5.591-70.872-5.467
				l-0.667-2.969c2.324-0.522,57.132-12.581,73.825,6.428C1081.005,798.585,1059.469,829.359,1058.544,830.659z"/>
		</g>
		<g>
			<g>
				<g>
					<g>
						<g>
							<path style="fill:#000100;" d="M646.436,1498.991c-0.446,0.319-1.043,0.402-1.581,0.165
								c-18.096-7.958-35.025-34.515-35.737-35.642c-0.473-0.749-0.246-1.734,0.5-2.213c0.749-0.473,1.74-0.25,2.213,0.499
								c0.169,0.268,17.12,26.856,34.316,34.418c0.811,0.357,1.18,1.303,0.822,2.114
								C646.849,1498.606,646.662,1498.829,646.436,1498.991z"/>
						</g>
					</g>
				</g>
			</g>
		</g>
		<g>
			<g>
				<g>
					<g>
						<g>
							<path style="fill:#000100;" d="M668.339,1495.637c-0.349,0.25-0.795,0.36-1.248,0.27
								c-19.388-3.867-41.647-26.146-42.585-27.092c-0.624-0.63-0.62-1.645,0.01-2.269c0.629-0.628,1.645-0.619,2.269,0.01
								c0.223,0.225,22.51,22.53,40.933,26.204c0.869,0.174,1.433,1.019,1.259,1.887
								C668.895,1495.063,668.658,1495.409,668.339,1495.637z"/>
						</g>
					</g>
				</g>
			</g>
		</g>
		<g>
			<path d="M693.271,1533.42l-0.921-2.9c0.189-0.06,19.076-6.238,35.973-25.422c15.591-17.7,32.646-50.447,25.36-105.934
				c-7.33-55.849-25.394-97.032-39.256-121.746c-15.024-26.783-28.489-40.535-28.623-40.671l-0.498-0.503l0.064-0.705
				c0.13-1.429,12.869-143.402-1.452-192.014c-8.574-29.118-35.936-55.772-57.406-55.921c-0.016,0-0.034,0-0.05,0
				c-10.614-0.053-18.279,6.56-22.172,19.13c-1.138,3.684-1.96,7.895-2.442,12.517c0.141,2.422,2.147,38.326-0.81,71.753
				c-1.453,16.497-3.889,29.875-7.24,39.761c-11.463,33.842-40.048,132.172-42.766,174.686
				c-2.638,41.262,35.523,215.263,35.909,217.016l-2.972,0.654c-1.579-7.173-38.639-176.175-35.974-217.863
				c2.736-42.799,31.42-141.514,42.921-175.469c3.273-9.657,5.658-22.796,7.091-39.052c3.026-34.207,0.819-71.057,0.797-71.425
				l-0.008-0.125l0.013-0.124c0.5-4.869,1.367-9.319,2.574-13.228c5.466-17.649,16.651-21.315,25.094-21.273
				c0.019,0,0.038,0,0.057,0c10.81,0.076,23.626,6.433,35.161,17.443c11.812,11.273,20.74,25.714,25.142,40.661
				c14.122,47.933,2.704,180.404,1.626,192.462c2.593,2.763,14.966,16.491,28.552,40.686
				c14.019,24.965,32.284,66.561,39.685,122.955c3.284,25.005,2.014,47.638-3.774,67.267c-4.646,15.755-12.193,29.617-22.432,41.203
				C713.036,1526.989,694.07,1533.167,693.271,1533.42z"/>
		</g>
	</g>
	<g>
		<g>
			<path style="fill:#FE9F73;" d="M1532.66,819.504c0,0-60.971-3.564-73.831,21.475c-12.86,25.04,39.831,77.903,72.285,76.802
				C1563.567,916.679,1532.66,819.504,1532.66,819.504z"/>
		</g>
		<g>
			<path style="fill:#ED7163;" d="M1846.011,1597.629c0,0-161.724-44.843-207.644-141.696
				c-45.921-96.853,126.46-141.957,124.034-141.499s186.255,15.087,203.881,41.909c17.625,26.822,93.896,138.045,72.062,142.167
				C2016.51,1502.632,1846.011,1597.629,1846.011,1597.629z"/>
		</g>
		<g>
			<g>
				<g>
					<path style="fill:#D0F6FC;" d="M1546.721,707.122c0.003-0.227,0.01-0.454,0.023-0.679c0.328-7.631,6.323-13.818,13.94-14.395
						c0.225-0.02,0.451-0.035,0.679-0.045c0.076-0.002,0.149-0.014,0.224-0.015l336.75-5.48c0.076-0.001,0.149,0.008,0.224,0.008
						c0.228,0.003,0.454,0.01,0.68,0.023c7.631,0.328,13.825,6.317,14.401,13.933c0.02,0.225,0.035,0.451,0.045,0.678
						c0.002,0.076,0.014,0.149,0.015,0.224l11.394,700.185c0.119,7.283-5.691,13.277-12.967,13.396l-340.626,5.543
						c-7.276,0.119-13.277-5.684-13.396-12.967l-11.394-700.185C1546.712,707.271,1546.721,707.198,1546.721,707.122z"/>
				</g>
			</g>
			<g>
				<path style="fill:#0D93B2;" d="M1919.443,696.948l-27.849-18.411l-328.103,6.185l-28.369,25.782c0,0,3.256,29.244,5.068,29.661
					c1.811,0.417,382.747-1.354,382.636-7.213S1919.443,696.948,1919.443,696.948z"/>
			</g>
			<g style="opacity:0.5;">
				<g>
					<g>
						<g>
							<g>
								<path style="fill:#FFFFFF;" d="M1884.507,713.076c0.033,2.057,1.287,3.807,3.063,4.569c0.634,0.277,1.344,0.426,2.085,0.414
									c0.735-0.012,1.432-0.184,2.063-0.482c1.75-0.812,2.953-2.61,2.919-4.667c-0.046-2.799-2.356-5.028-5.148-4.983
									C1886.691,707.973,1884.461,710.277,1884.507,713.076z"/>
							</g>
						</g>
					</g>
				</g>
				<g>
					<g>
						<g>
							<g>
								<path style="fill:#FFFFFF;" d="M1868.834,713.331c0.034,2.057,1.287,3.807,3.063,4.569c0.634,0.277,1.344,0.426,2.085,0.414
									c0.742-0.012,1.446-0.185,2.071-0.482c1.75-0.819,2.946-2.609,2.912-4.666c-0.046-2.799-2.349-5.029-5.148-4.983
									C1871.019,708.228,1868.789,710.532,1868.834,713.331z"/>
							</g>
						</g>
					</g>
				</g>
				<g>
					<g>
						<g>
							<g>
								<path style="fill:#FFFFFF;" d="M1853.162,713.586c0.033,2.057,1.287,3.807,3.063,4.569c0.634,0.276,1.344,0.426,2.085,0.414
									c0.742-0.012,1.446-0.185,2.071-0.482c1.75-0.819,2.946-2.609,2.912-4.666c-0.046-2.799-2.349-5.029-5.148-4.983
									C1855.347,708.483,1853.117,710.787,1853.162,713.586z"/>
							</g>
						</g>
					</g>
				</g>
			</g>
			<g>
				<g>
					<g>
						<g>
							<g>
								<path style="fill:#20111D;" d="M1546.838,715.029c-0.205-12.594,9.837-22.961,22.424-23.165l321.4-5.23
									c12.587-0.205,22.961,9.83,23.166,22.424l11.151,685.254c0.184,11.286-8.819,20.579-20.104,20.763l-326.123,5.307
									c-11.278,0.183-20.578-8.812-20.762-20.098L1546.838,715.029z M1531.349,714.896l11.266,692.307
									c0.338,20.773,17.445,37.333,38.218,36.995l322.743-5.252c20.766-0.338,37.333-17.446,36.994-38.219l-11.266-692.307
									c-0.338-20.773-17.453-37.332-38.218-36.994l-322.743,5.252C1547.57,677.016,1531.011,694.124,1531.349,714.896z"/>
							</g>
						</g>
					</g>
				</g>
			</g>
		</g>
		<g>
			<path style="fill:#FE9F73;" d="M2076.179,1712.338c-77.01,65.262-168.597,109.811-267.641,138.785l0.161-132.933l0.053-45.717
				l3.72-86.145v-0.009l-0.054-0.259l-0.16-0.901l0.928-0.473l2.034-1.026l86.199-43.345c0.009,0,0.009,0,0.018,0l56.52-28.421
				l2.293-1.151c0,0-38.929-4.915-64.281-45.182c-0.027-0.036-0.045-0.08-0.071-0.116c-0.018-0.027-0.027-0.054-0.045-0.08
				c-4.683-7.431-8.885-16.066-12.301-26.092c-2.444-7.181-4.487-15.076-5.986-23.746l-0.009-0.009
				c-1.32-7.511-2.23-15.602-2.676-24.326c-0.678-13.407-0.633-26.119-0.027-38.108c0.437-8.537,1.16-16.699,2.105-24.496v-0.009
				c1.133-9.384,2.596-18.216,4.282-26.485c4.648-22.854,10.972-41.382,16.726-55.146c7.841-18.778,14.612-28.697,14.612-28.697
				s-8.189-29.304-16.503-65.931c-0.687-2.988-1.365-6.021-2.034-9.09c-9.054-41.15-17.475-88.901-14.755-114.664
				c2.881-27.484,20.366-54.103,38.706-63.541c5.174-2.676,10.428-3.97,15.432-3.533c6.762,0.598,13.087,4.353,18.198,12.203
				c0.758,1.16,1.49,2.417,2.194,3.755c0.91,1.757,1.784,3.666,2.587,5.736c0.009,0.009,0.009,0.018,0.018,0.036
				c0.794,2.016,1.526,4.175,2.203,6.494c0,0,1.258,10.366,3.818,25.12c0.125,0.705,0.25,1.418,0.375,2.15
				c0.125,0.678,0.241,1.356,0.357,2.025c2.07,11.338,4.817,24.728,8.314,37.841v0.009c0,0.018,0.009,0.027,0.009,0.036
				c0,0.009,0,0.009,0.009,0.018c0.268,1.044,0.562,2.096,0.848,3.131c3.862,13.996,8.581,27.439,14.157,37.457
				c19.001,34.112,63.541,123.682,73.764,164.475c10.214,40.776,3.907,220.345,3.907,220.345v0.009L2076.179,1712.338z"/>
		</g>
		<g>
			<g>
				<path style="fill:#FE9F73;" d="M1537.276,1157.795l0.496,25.619c0,0,41.582,28.956,38.39,76.014
					c-3.192,47.059-32.431,58.027-32.431,58.027s-58.852-54.635-62.145-76.747
					C1478.293,1218.595,1471.397,1180.007,1537.276,1157.795z"/>
			</g>
			<g>
				<path style="fill:#F78A5E;" d="M1536.178,1310.23c0,0-22.463-15.724-47.745-54.401c2.592-2.349,7.737-4.913,11.027-6.585
					c10.098-5.132,17.295-4.184,24.45,2.251l27.58,27.826c0,0,5.669,7.356-1.785,18.43
					C1546.84,1302.008,1536.178,1310.23,1536.178,1310.23z"/>
			</g>
		</g>
		<g>
			<path d="M1543.411,1319.269l-35.428-34.547c-19.28-19.203-26.223-37.953-28.655-50.303c-2.652-13.469-0.719-22.299-0.636-22.668
				l2.968,0.672c-0.076,0.339-7.226,34.589,28.459,70.132l33.92,33.076c12.893-6.262,19.589-18.62,19.656-18.747
				c0.215-0.375,18.83-33.224,8.392-64.264c-10.491-31.201-43.368-53.189-43.699-53.407l1.675-2.54
				c1.387,0.915,34.077,22.766,44.908,54.978c10.882,32.364-7.815,65.322-8.616,66.709c-0.275,0.52-7.522,13.941-21.999,20.483
				L1543.411,1319.269z"/>
		</g>
		<g>
			<g>
				<path style="fill:#FE9F73;" d="M1540.986,1332.252l0.387,20.018c0,0,32.493,22.626,29.998,59.399
					c-2.494,36.772-25.342,45.343-25.342,45.343s-45.988-42.693-48.561-59.971S1489.507,1349.609,1540.986,1332.252z"/>
			</g>
			<g>
				<path style="fill:#F78A5E;" d="M1540.128,1451.367c0,0-17.552-12.287-37.309-42.51c2.025-1.836,6.046-3.839,8.616-5.145
					c7.891-4.01,13.515-3.269,19.106,1.759l21.551,21.744c0,0,4.43,5.748-1.394,14.402
					C1548.459,1444.942,1540.128,1451.367,1540.128,1451.367z"/>
			</g>
		</g>
		<g>
			<path d="M1545.78,1458.43l-27.684-26.995c-28.877-28.763-23.147-55.88-22.889-57.019l2.319,0.524
				c-0.059,0.266-5.646,27.028,22.238,54.802l26.506,25.846c10.101-4.904,15.307-14.55,15.359-14.649
				c0.168-0.294,14.714-25.963,6.558-50.218c-8.198-24.381-33.888-41.563-34.147-41.734l1.309-1.985
				c1.083,0.714,26.628,17.79,35.091,42.96c8.503,25.289-6.106,51.044-6.733,52.127c-0.215,0.406-5.877,10.894-17.19,16.006
				L1545.78,1458.43z"/>
		</g>
		<g>
			<path style="fill:#FE9F73;" d="M1893.924,1462.016c0,0,34.903,56.854,7.513,78.298c-27.39,21.444,77.455,10.94,76.891,7.951
				s54.542-104.738,35.756-105.836c-18.786-1.098-78.798-11.444-88.965,4.409
				C1914.952,1462.691,1893.924,1462.016,1893.924,1462.016z"/>
		</g>
		<g>
			<g>
				<path style="fill:#FE9F73;" d="M1534.146,1006.157l0.496,25.619c0,0,41.582,28.956,38.39,76.014
					c-3.192,47.059-32.431,58.027-32.431,58.027s-58.853-54.635-62.145-76.748
					C1475.164,1066.958,1468.267,1028.37,1534.146,1006.157z"/>
			</g>
			<g>
				<path style="fill:#F78A5E;" d="M1533.048,1158.593c0,0-22.463-15.724-47.745-54.401c2.592-2.349,7.737-4.913,11.027-6.585
					c10.098-5.132,17.295-4.184,24.45,2.251l27.58,27.826c0,0,5.669,7.356-1.785,18.43
					C1543.71,1150.371,1533.048,1158.593,1533.048,1158.593z"/>
			</g>
		</g>
		<g>
			
				<rect x="1743.938" y="1650.153" transform="matrix(0.0266 -0.9996 0.9996 0.0266 111.31 3417.6558)" width="133.08" height="3.043"/>
		</g>
		<g>
			<path d="M1820.932,1588.251c-55.506-13.224-111.219-48.05-139.494-74.812c-25.038-23.696-37.368-42.419-37.49-42.605l2.548-1.663
				c0.12,0.184,12.28,18.63,37.034,42.059c27.99,26.491,83.148,60.967,138.108,74.061L1820.932,1588.251z"/>
		</g>
		<g>
			<path style="fill:#F78A5E;" d="M1923.654,987.727c1.432-8.982,22.772-14.065,29.312-14.098
				c4.221-0.021,14.53,80.212,18.52,83.226c0,0,0.785,0.884-9.606,3.169c-11.45,2.518-20.347-0.872-20.347-0.872
				S1922.222,996.709,1923.654,987.727z"/>
		</g>
		<g>
			<path d="M1540.274,1167.623l-35.421-34.538c-19.28-19.203-26.223-37.954-28.655-50.303c-2.653-13.469-0.72-22.299-0.636-22.668
				l2.968,0.672c-0.076,0.34-7.226,34.588,28.459,70.132l33.926,33.081c11.643-5.61,19.61-18.687,19.691-18.822
				c0.175-0.305,18.79-33.154,8.353-64.195c-10.491-31.201-43.368-53.189-43.699-53.407l1.675-2.54
				c1.387,0.915,34.077,22.766,44.907,54.978c10.882,32.364-7.814,65.322-8.616,66.709c-0.372,0.621-8.969,14.755-22.013,20.49
				L1540.274,1167.623z"/>
		</g>
		<g>
			<polygon points="1534.172,1031.806 1530.727,750.877 1532.718,750.817 1536.163,1031.746 			"/>
		</g>
		<g>
			<path d="M1473.887,887.006c-1.144-1.113-27.884-27.491-14.745-49.457c12.987-21.71,69.069-19.749,71.451-19.655l-0.12,3.041
				c-0.563-0.02-56.656-1.992-68.719,18.175c-11.904,19.9,13.991,45.457,14.254,45.713L1473.887,887.006z"/>
		</g>
		<g>
			<g>
				<g>
					<g>
						<g>
							<path style="fill:#000100;" d="M1999.909,1469.931c0.496,0.234,1.099,0.207,1.585-0.123
								c16.361-11.095,28.216-40.272,28.713-41.509c0.33-0.823-0.071-1.75-0.891-2.086c-0.822-0.33-1.756,0.068-2.087,0.89
								c-0.118,0.294-11.989,29.506-27.536,40.05c-0.734,0.497-0.925,1.495-0.427,2.228
								C1999.433,1469.627,1999.658,1469.812,1999.909,1469.931z"/>
						</g>
					</g>
				</g>
			</g>
		</g>
		<g>
			<g>
				<g>
					<g>
						<g>
							<path style="fill:#000100;" d="M1977.76,1470.588c0.388,0.182,0.847,0.211,1.276,0.04
								c18.371-7.305,36.241-33.237,36.992-34.337c0.5-0.732,0.312-1.73-0.42-2.229c-0.732-0.504-1.73-0.312-2.23,0.419
								c-0.178,0.261-18.072,26.224-35.528,33.165c-0.824,0.328-1.226,1.261-0.898,2.084
								C1977.11,1470.123,1977.405,1470.42,1977.76,1470.588z"/>
						</g>
					</g>
				</g>
			</g>
		</g>
		<g>
			<path d="M1960.061,1512.252c-0.831-0.105-20.602-2.756-41.339-19.032c-12.163-9.546-22.089-21.817-29.503-36.475
				c-9.238-18.262-14.573-40.292-15.859-65.479c-2.904-56.804,7.549-101.015,16.829-128.101
				c8.994-26.251,18.684-41.987,20.736-45.173c-3.238-11.664-38.39-139.896-33.156-189.591c1.63-15.496,7.805-31.312,17.386-44.533
				c9.358-12.912,20.814-21.48,31.434-23.506c8.302-1.585,19.996-0.027,28.577,16.38c1.895,3.629,3.55,7.849,4.921,12.547
				l0.05,0.244c0.044,0.366,4.528,37.009,13.682,70.107c4.344,15.73,9.063,28.222,14.026,37.129
				c17.443,31.321,63.483,123.234,73.902,164.834c10.15,40.521,4.218,213.437,3.96,220.777l-3.041-0.106
				c0.063-1.794,6.175-179.826-3.87-219.932c-10.349-41.322-56.222-132.875-73.608-164.092c-5.08-9.119-9.892-21.836-14.301-37.8
				c-8.944-32.341-13.455-68.014-13.755-70.426c-1.308-4.458-2.876-8.452-4.662-11.872c-6.107-11.677-14.859-16.794-25.31-14.801
				c-21.09,4.025-43.189,35.181-46.364,65.368c-5.308,50.403,32.86,187.738,33.246,189.12l0.191,0.681l-0.399,0.586
				c-0.108,0.157-10.868,16.115-20.808,45.171c-9.172,26.811-19.502,70.578-16.626,126.833
				c2.859,55.987,25.615,85.128,44.203,99.716c20.081,15.761,39.646,18.382,39.842,18.407L1960.061,1512.252z"/>
		</g>
	</g>
	<g>
		<g>
			<path style="fill:#F7597F;" d="M1196.431,1126.25l-437.359,89.492c-8.109,1.659-16.027-3.569-17.687-11.678l-54.039-264.097
				c-1.659-8.109,3.569-16.028,11.678-17.687l437.359-89.492c8.109-1.659,16.027,3.569,17.687,11.678l54.039,264.097
				C1209.768,1116.672,1204.539,1124.591,1196.431,1126.25z"/>
		</g>
		<g style="opacity:0.1;">
			
				<ellipse transform="matrix(0.7071 -0.7071 0.7071 0.7071 -446.6819 970.1445)" style="fill:#FFFFFF;" cx="947.727" cy="1024.265" rx="106.076" ry="106.076"/>
		</g>
		<g>
			<g>
				<path style="fill:#FFFFFF;" d="M770.674,1113.261c-0.12,1.523-0.476,2.819-1.069,3.892c-0.593,1.073-1.393,1.934-2.402,2.585
					c-1.009,0.65-2.207,1.117-3.595,1.402c-1.388,0.284-2.68,0.326-3.875,0.127c-1.196-0.199-2.276-0.676-3.242-1.43
					c-0.967-0.754-1.804-1.806-2.512-3.159c-0.708-1.352-1.269-3.038-1.682-5.06l-1.009-4.932c-0.414-2.021-0.561-3.792-0.441-5.315
					c0.12-1.521,0.476-2.819,1.069-3.891c0.592-1.073,1.399-1.935,2.42-2.588c1.021-0.652,2.225-1.121,3.613-1.405
					c1.389-0.284,2.674-0.325,3.857-0.123c1.184,0.202,2.258,0.68,3.224,1.433c0.966,0.754,1.803,1.807,2.511,3.159
					c0.708,1.353,1.269,3.039,1.682,5.061l1.009,4.932C770.648,1109.968,770.794,1111.74,770.674,1113.261z M765.901,1103.695
					c-0.314-1.534-0.715-2.816-1.204-3.845c-0.489-1.029-1.046-1.835-1.67-2.418c-0.625-0.582-1.316-0.961-2.073-1.136
					c-0.756-0.175-1.56-0.176-2.41-0.002c-0.85,0.174-1.588,0.49-2.215,0.948c-0.627,0.459-1.113,1.078-1.459,1.859
					c-0.346,0.782-0.542,1.742-0.587,2.88c-0.045,1.138,0.089,2.474,0.403,4.009l1.009,4.932c0.314,1.535,0.715,2.817,1.204,3.845
					c0.489,1.029,1.046,1.835,1.671,2.418c0.625,0.583,1.316,0.961,2.072,1.136c0.757,0.176,1.56,0.176,2.41,0.002
					c0.85-0.174,1.588-0.49,2.215-0.948c0.627-0.458,1.113-1.077,1.46-1.859c0.346-0.781,0.541-1.741,0.586-2.88
					c0.045-1.138-0.089-2.475-0.403-4.009L765.901,1103.695z"/>
				<path style="fill:#FFFFFF;" d="M792.776,1108.739c-0.12,1.522-0.477,2.819-1.069,3.892c-0.593,1.073-1.393,1.934-2.402,2.585
					c-1.009,0.65-2.207,1.118-3.595,1.402c-1.388,0.284-2.68,0.326-3.875,0.127c-1.196-0.199-2.276-0.676-3.242-1.43
					c-0.967-0.754-1.803-1.806-2.511-3.159c-0.708-1.352-1.269-3.038-1.682-5.06l-1.009-4.932c-0.414-2.021-0.561-3.792-0.441-5.315
					c0.12-1.521,0.476-2.819,1.069-3.891c0.592-1.073,1.399-1.935,2.42-2.588c1.021-0.653,2.225-1.121,3.613-1.405
					c1.389-0.284,2.674-0.325,3.857-0.123c1.183,0.202,2.258,0.68,3.224,1.434c0.966,0.754,1.803,1.807,2.511,3.159
					c0.708,1.353,1.269,3.039,1.682,5.061l1.009,4.932C792.749,1105.446,792.896,1107.218,792.776,1108.739z M788.002,1099.173
					c-0.314-1.535-0.715-2.816-1.204-3.845c-0.489-1.029-1.045-1.835-1.67-2.418c-0.625-0.582-1.316-0.961-2.073-1.136
					c-0.756-0.175-1.56-0.176-2.41-0.002c-0.85,0.174-1.588,0.49-2.215,0.948c-0.627,0.459-1.114,1.078-1.459,1.859
					c-0.346,0.782-0.542,1.742-0.587,2.88c-0.045,1.139,0.089,2.474,0.403,4.009l1.009,4.932c0.314,1.535,0.715,2.817,1.204,3.845
					c0.489,1.029,1.045,1.835,1.671,2.418c0.625,0.583,1.316,0.961,2.072,1.136c0.757,0.175,1.56,0.176,2.41,0.002
					c0.85-0.174,1.588-0.49,2.215-0.948c0.627-0.458,1.113-1.077,1.46-1.859c0.346-0.781,0.541-1.741,0.586-2.879
					c0.045-1.138-0.089-2.475-0.403-4.009L788.002,1099.173z"/>
				<path style="fill:#FFFFFF;" d="M811.638,1089.313c0.294,1.437,0.183,2.76-0.333,3.969c-0.516,1.209-1.512,2.562-2.987,4.056
					l-3.031,3.094c-0.886,0.892-1.598,1.703-2.135,2.435c-0.537,0.732-0.933,1.441-1.187,2.127
					c-0.254,0.686-0.394,1.369-0.421,2.046c-0.027,0.678,0.042,1.419,0.207,2.222l0.157,0.767l12.311-2.519
					c0.195-0.04,0.376-0.02,0.545,0.06c0.169,0.08,0.273,0.217,0.313,0.412l0.329,1.608c0.04,0.195-0.001,0.368-0.122,0.52
					c-0.121,0.152-0.279,0.247-0.474,0.287l-14.476,2.962c-0.193,0.039-0.375,0.007-0.546-0.097
					c-0.172-0.104-0.277-0.254-0.317-0.448l-0.605-2.955c-0.388-1.896-0.311-3.723,0.233-5.482c0.544-1.758,1.68-3.511,3.409-5.258
					l3.193-3.237c0.652-0.665,1.183-1.242,1.592-1.732c0.409-0.489,0.715-0.951,0.919-1.385c0.204-0.434,0.318-0.87,0.344-1.306
					c0.025-0.436-0.016-0.921-0.126-1.457c-0.269-1.313-0.884-2.181-1.846-2.605c-0.962-0.424-2.43-0.434-4.402-0.031
					c-0.95,0.194-1.998,0.466-3.145,0.815c-1.146,0.349-2.216,0.701-3.209,1.056l-0.146,0.03c-0.39,0.08-0.63-0.1-0.719-0.54
					l-0.265-1.295c-0.04-0.198-0.004-0.359,0.11-0.485c0.114-0.125,0.263-0.233,0.448-0.323c0.875-0.436,1.878-0.835,3.01-1.195
					c1.132-0.36,2.246-0.652,3.341-0.876c2.971-0.608,5.27-0.532,6.897,0.225C810.129,1085.536,811.174,1087.047,811.638,1089.313z"
					/>
				<path style="fill:#FFFFFF;" d="M832.19,1106.611c-0.092,0.171-0.235,0.277-0.43,0.317l-2.009,0.411
					c-0.195,0.04-0.368-0.001-0.52-0.122c-0.152-0.121-0.247-0.279-0.287-0.474l-4.702-22.979l-4.294,3.01
					c-0.156,0.108-0.306,0.177-0.453,0.207c-0.219,0.045-0.356-0.066-0.411-0.335l-0.381-1.863
					c-0.025-0.122-0.013-0.219,0.035-0.293c0.048-0.073,0.126-0.159,0.233-0.257l4.978-3.759c0.262-0.206,0.503-0.332,0.722-0.376
					l1.498-0.306c0.195-0.04,0.373-0.006,0.534,0.1c0.161,0.107,0.262,0.257,0.302,0.452l5.263,25.719
					C832.308,1106.258,832.282,1106.44,832.19,1106.611z"/>
			</g>
			<g>
				<path style="fill:#FFFFFF;" d="M878.913,1091.113c-0.12,1.522-0.477,2.819-1.069,3.892c-0.593,1.073-1.393,1.934-2.402,2.585
					c-1.009,0.65-2.207,1.117-3.595,1.402c-1.388,0.284-2.68,0.326-3.875,0.127c-1.196-0.199-2.276-0.676-3.242-1.43
					c-0.967-0.754-1.803-1.806-2.512-3.159c-0.708-1.352-1.269-3.038-1.682-5.06l-1.009-4.932c-0.414-2.021-0.561-3.792-0.441-5.315
					c0.12-1.521,0.476-2.819,1.069-3.892c0.592-1.073,1.399-1.935,2.42-2.588c1.021-0.653,2.225-1.121,3.613-1.405
					c1.389-0.284,2.674-0.325,3.857-0.123c1.184,0.202,2.258,0.68,3.224,1.433c0.966,0.754,1.803,1.807,2.511,3.159
					c0.708,1.353,1.269,3.039,1.682,5.061l1.009,4.932C878.886,1087.821,879.033,1089.592,878.913,1091.113z M874.139,1081.547
					c-0.314-1.535-0.715-2.816-1.204-3.845c-0.489-1.029-1.045-1.835-1.67-2.418c-0.625-0.582-1.316-0.961-2.073-1.136
					c-0.756-0.175-1.56-0.176-2.41-0.002c-0.85,0.174-1.588,0.49-2.215,0.948c-0.627,0.458-1.114,1.078-1.459,1.859
					c-0.346,0.782-0.542,1.742-0.587,2.88c-0.045,1.139,0.089,2.475,0.403,4.009l1.009,4.932c0.314,1.534,0.715,2.817,1.204,3.845
					c0.489,1.029,1.046,1.835,1.671,2.418c0.625,0.583,1.316,0.961,2.072,1.136c0.757,0.176,1.56,0.176,2.41,0.002
					c0.85-0.174,1.588-0.49,2.215-0.948c0.627-0.458,1.113-1.077,1.46-1.859c0.346-0.781,0.541-1.741,0.586-2.88
					c0.045-1.138-0.089-2.475-0.403-4.009L874.139,1081.547z"/>
				<path style="fill:#FFFFFF;" d="M900.358,1088.685c-0.249,1.079-0.71,2.017-1.384,2.814c-0.674,0.798-1.534,1.462-2.58,1.993
					c-1.046,0.531-2.239,0.934-3.578,1.208c-1.169,0.239-2.287,0.391-3.352,0.455c-1.066,0.064-2.057,0.087-2.974,0.068
					c-0.206-0.009-0.386-0.056-0.543-0.139c-0.157-0.083-0.255-0.224-0.296-0.422l-0.257-1.258c-0.085-0.415,0.079-0.665,0.494-0.75
					l0.11-0.022c1.126-0.078,2.234-0.177,3.326-0.3c1.091-0.121,2.063-0.27,2.916-0.445c1.997-0.408,3.364-1.105,4.101-2.09
					c0.737-0.985,0.927-2.351,0.569-4.099l-0.156-0.764c-0.099-0.485-0.269-0.975-0.51-1.47c-0.241-0.494-0.57-0.925-0.989-1.296
					c-0.418-0.369-0.93-0.638-1.535-0.805c-0.605-0.167-1.322-0.166-2.15,0.003l-6.648,1.36c-0.463,0.095-0.739-0.077-0.829-0.516
					l-0.262-1.278c-0.095-0.463,0.089-0.742,0.552-0.836l6.648-1.36c0.877-0.179,1.568-0.459,2.074-0.841
					c0.505-0.381,0.867-0.816,1.085-1.303c0.217-0.487,0.335-0.997,0.352-1.532c0.018-0.534-0.023-1.044-0.123-1.529l-0.104-0.509
					c-0.308-1.504-0.965-2.513-1.971-3.028c-1.006-0.514-2.544-0.56-4.614-0.137c-1.072,0.219-2.053,0.477-2.944,0.774
					c-0.891,0.297-1.918,0.64-3.081,1.03l-0.11,0.022c-0.414,0.085-0.663-0.08-0.748-0.495l-0.265-1.296
					c-0.035-0.172,0.002-0.334,0.11-0.485c0.108-0.151,0.255-0.27,0.44-0.36c0.836-0.377,1.756-0.745,2.762-1.105
					c1.005-0.36,2.092-0.659,3.261-0.898c1.363-0.279,2.629-0.417,3.797-0.416c1.167,0.003,2.204,0.203,3.11,0.6
					c0.906,0.399,1.671,1.003,2.293,1.815c0.623,0.812,1.074,1.899,1.353,3.263l0.105,0.512c0.254,1.242,0.191,2.422-0.189,3.54
					c-0.38,1.119-1.085,2.074-2.115,2.869c0.722,0.182,1.348,0.447,1.876,0.796c0.528,0.349,0.978,0.751,1.351,1.208
					c0.373,0.457,0.674,0.941,0.906,1.451c0.231,0.511,0.402,1.035,0.512,1.57l0.157,0.767
					C900.592,1086.386,900.607,1087.607,900.358,1088.685z"/>
				<path style="fill:#FFFFFF;" d="M922.46,1084.163c-0.249,1.079-0.71,2.017-1.384,2.814c-0.674,0.798-1.534,1.462-2.58,1.993
					c-1.046,0.531-2.239,0.934-3.578,1.208c-1.169,0.239-2.287,0.391-3.352,0.455c-1.066,0.064-2.057,0.087-2.974,0.068
					c-0.205-0.009-0.386-0.056-0.542-0.139c-0.157-0.083-0.255-0.224-0.296-0.422l-0.257-1.258c-0.085-0.415,0.079-0.665,0.494-0.75
					l0.11-0.022c1.126-0.078,2.234-0.177,3.326-0.3c1.091-0.122,2.063-0.27,2.916-0.445c1.997-0.409,3.364-1.105,4.101-2.09
					c0.737-0.985,0.927-2.351,0.569-4.099l-0.156-0.764c-0.099-0.485-0.269-0.975-0.51-1.47c-0.241-0.494-0.57-0.926-0.988-1.296
					c-0.418-0.369-0.93-0.638-1.535-0.804c-0.605-0.167-1.322-0.166-2.15,0.003l-6.648,1.36c-0.463,0.095-0.739-0.077-0.829-0.516
					l-0.262-1.278c-0.095-0.463,0.089-0.742,0.552-0.836l6.648-1.36c0.877-0.179,1.568-0.459,2.073-0.841
					c0.505-0.381,0.867-0.816,1.085-1.303c0.217-0.487,0.335-0.997,0.353-1.532c0.017-0.534-0.023-1.044-0.123-1.529l-0.104-0.509
					c-0.308-1.504-0.965-2.513-1.971-3.028c-1.006-0.514-2.544-0.56-4.614-0.137c-1.072,0.219-2.053,0.477-2.944,0.774
					c-0.891,0.297-1.918,0.64-3.082,1.03l-0.11,0.022c-0.414,0.085-0.663-0.08-0.748-0.495l-0.265-1.296
					c-0.035-0.172,0.001-0.334,0.11-0.485c0.108-0.151,0.255-0.27,0.44-0.36c0.836-0.377,1.756-0.745,2.761-1.105
					c1.005-0.36,2.092-0.659,3.261-0.898c1.363-0.279,2.629-0.417,3.797-0.416c1.167,0.003,2.204,0.203,3.111,0.6
					c0.906,0.399,1.671,1.003,2.293,1.815c0.623,0.812,1.074,1.899,1.353,3.263l0.105,0.512c0.254,1.242,0.191,2.422-0.189,3.54
					c-0.38,1.119-1.085,2.074-2.115,2.869c0.722,0.182,1.348,0.447,1.876,0.796c0.528,0.349,0.978,0.751,1.351,1.208
					c0.373,0.457,0.674,0.941,0.906,1.451c0.231,0.511,0.402,1.035,0.511,1.57l0.157,0.767
					C922.694,1081.864,922.709,1083.084,922.46,1084.163z"/>
				<path style="fill:#FFFFFF;" d="M940.429,1084.464c-0.092,0.171-0.236,0.277-0.43,0.317l-2.009,0.411
					c-0.195,0.04-0.368-0.001-0.52-0.122c-0.152-0.121-0.247-0.279-0.287-0.474l-4.702-22.979l-4.294,3.01
					c-0.156,0.108-0.306,0.177-0.453,0.207c-0.219,0.045-0.356-0.066-0.411-0.335l-0.381-1.863
					c-0.025-0.122-0.013-0.219,0.035-0.293c0.048-0.073,0.126-0.159,0.233-0.257l4.978-3.759c0.262-0.206,0.503-0.331,0.722-0.376
					l1.498-0.306c0.195-0.04,0.373-0.006,0.534,0.1c0.161,0.107,0.262,0.257,0.302,0.452l5.262,25.719
					C940.547,1084.11,940.521,1084.293,940.429,1084.464z"/>
			</g>
			<g>
				<path style="fill:#FFFFFF;" d="M987.504,1067.524l-3.178,0.65l1.331,6.502c0.04,0.195,0.019,0.377-0.062,0.545
					c-0.081,0.169-0.22,0.274-0.417,0.314l-2.142,0.438c-0.197,0.04-0.366-0.001-0.507-0.125c-0.14-0.123-0.231-0.282-0.271-0.477
					l-1.331-6.502l-10.526,2.154c-0.558,0.114-0.968,0.09-1.229-0.072c-0.261-0.162-0.446-0.511-0.556-1.047l-0.284-1.388
					c-0.105-0.512-0.051-0.992,0.16-1.441l7.68-17.366c0.067-0.166,0.161-0.325,0.281-0.476c0.121-0.151,0.339-0.26,0.655-0.324
					l2.18-0.446c0.641-0.131,1.016,0.071,1.126,0.605l3.334,16.295l3.178-0.65c0.195-0.04,0.372-0.012,0.531,0.084
					c0.159,0.096,0.259,0.243,0.299,0.44l0.303,1.48C988.153,1067.159,987.967,1067.429,987.504,1067.524z M977.841,1053.591
					c-0.03-0.146-0.094-0.209-0.191-0.189l-0.036,0.007c-0.097,0.02-0.179,0.113-0.247,0.279l-5.958,13.667
					c-0.053,0.112-0.07,0.217-0.05,0.313c0.03,0.146,0.142,0.199,0.336,0.159l8.696-1.779L977.841,1053.591z"/>
				<path style="fill:#FFFFFF;" d="M1008.926,1064.796c-0.12,1.459-0.492,2.708-1.117,3.749c-0.625,1.041-1.493,1.885-2.603,2.531
					c-1.111,0.646-2.447,1.128-4.005,1.447c-1.461,0.299-2.697,0.488-3.709,0.567c-1.011,0.078-1.913,0.109-2.703,0.09
					c-0.254,0.001-0.476-0.031-0.666-0.095c-0.191-0.064-0.309-0.207-0.354-0.429l-0.295-1.444
					c-0.045-0.219-0.018-0.396,0.082-0.531c0.099-0.135,0.246-0.221,0.441-0.261c0.048-0.01,0.086-0.011,0.113-0.004
					c0.027,0.007,0.064,0.006,0.113-0.004c0.966,0.006,1.975-0.048,3.031-0.164c1.055-0.114,2.167-0.291,3.336-0.53
					c1.413-0.289,2.492-0.718,3.238-1.287c0.746-0.569,1.267-1.25,1.561-2.043c0.294-0.793,0.401-1.698,0.32-2.717
					c-0.082-1.019-0.244-2.123-0.487-3.312l-0.082-0.402c-0.745,0.33-1.545,0.665-2.401,1.005c-0.857,0.341-1.845,0.625-2.965,0.854
					c-1.194,0.244-2.357,0.355-3.49,0.334c-1.134-0.021-2.175-0.24-3.122-0.655c-0.948-0.415-1.766-1.066-2.455-1.953
					c-0.69-0.887-1.183-2.06-1.482-3.522l-0.045-0.219c-0.593-2.898-0.32-5.314,0.82-7.247c1.139-1.933,3.207-3.206,6.203-3.819
					c2.752-0.563,5.09-0.172,7.014,1.172c1.924,1.345,3.253,3.806,3.986,7.386l1.308,6.393
					C1008.908,1061.635,1009.047,1063.338,1008.926,1064.796z M1003.908,1053.941c-0.303-1.481-0.677-2.688-1.121-3.621
					c-0.445-0.933-0.964-1.643-1.559-2.128c-0.594-0.486-1.263-0.779-2.007-0.88c-0.744-0.1-1.554-0.061-2.431,0.118
					c-0.853,0.175-1.604,0.442-2.253,0.802c-0.649,0.361-1.172,0.847-1.566,1.459c-0.395,0.612-0.642,1.359-0.741,2.239
					c-0.1,0.88-0.022,1.939,0.231,3.178l0.045,0.218c0.199,0.971,0.523,1.752,0.974,2.343c0.45,0.591,0.982,1.02,1.595,1.286
					c0.613,0.267,1.27,0.411,1.972,0.431c0.702,0.021,1.418-0.044,2.149-0.193c0.438-0.09,0.91-0.205,1.413-0.346
					c0.504-0.141,0.999-0.293,1.486-0.456c0.487-0.162,0.947-0.333,1.38-0.51c0.433-0.177,0.8-0.334,1.102-0.472L1003.908,1053.941z
					"/>
				<path style="fill:#FFFFFF;" d="M1028.116,1045.017c0.294,1.437,0.183,2.76-0.333,3.969c-0.516,1.21-1.512,2.562-2.987,4.056
					l-3.031,3.094c-0.886,0.892-1.598,1.703-2.135,2.435c-0.537,0.732-0.933,1.441-1.187,2.127
					c-0.254,0.687-0.394,1.369-0.421,2.046c-0.027,0.678,0.042,1.419,0.207,2.223l0.157,0.767l12.311-2.519
					c0.195-0.04,0.376-0.02,0.545,0.06c0.169,0.08,0.273,0.217,0.313,0.412l0.329,1.607c0.04,0.195-0.001,0.368-0.122,0.52
					c-0.121,0.152-0.279,0.247-0.474,0.287l-14.476,2.962c-0.193,0.039-0.375,0.007-0.546-0.097
					c-0.172-0.104-0.277-0.254-0.317-0.448l-0.605-2.955c-0.388-1.896-0.311-3.724,0.233-5.482c0.544-1.758,1.68-3.511,3.409-5.258
					l3.193-3.237c0.652-0.665,1.183-1.242,1.592-1.732c0.409-0.489,0.715-0.951,0.919-1.385c0.204-0.434,0.318-0.87,0.344-1.306
					c0.025-0.435-0.017-0.921-0.126-1.456c-0.269-1.313-0.884-2.181-1.846-2.605c-0.962-0.424-2.43-0.434-4.402-0.031
					c-0.95,0.194-1.998,0.466-3.145,0.815c-1.146,0.349-2.216,0.701-3.209,1.056l-0.146,0.03c-0.39,0.08-0.63-0.1-0.72-0.54
					l-0.265-1.295c-0.041-0.198-0.004-0.359,0.11-0.485c0.113-0.125,0.262-0.233,0.448-0.323c0.875-0.436,1.878-0.835,3.009-1.195
					c1.132-0.36,2.246-0.652,3.342-0.876c2.971-0.608,5.27-0.532,6.897,0.225C1026.607,1041.24,1027.652,1042.752,1028.116,1045.017
					z"/>
				<path style="fill:#FFFFFF;" d="M1048.668,1062.316c-0.092,0.171-0.235,0.277-0.43,0.317l-2.009,0.411
					c-0.195,0.04-0.368-0.001-0.52-0.122c-0.152-0.121-0.247-0.279-0.287-0.474l-4.702-22.979l-4.294,3.01
					c-0.156,0.108-0.306,0.177-0.453,0.207c-0.219,0.045-0.356-0.066-0.411-0.335l-0.381-1.863
					c-0.025-0.122-0.013-0.219,0.035-0.293c0.048-0.073,0.126-0.159,0.233-0.257l4.978-3.759c0.262-0.206,0.503-0.331,0.722-0.376
					l1.498-0.307c0.195-0.04,0.373-0.006,0.534,0.1c0.161,0.107,0.262,0.257,0.302,0.452l5.263,25.719
					C1048.786,1061.962,1048.76,1062.145,1048.668,1062.316z"/>
			</g>
			<g>
				<path style="fill:#FFFFFF;" d="M1092.151,1031.914c0.294,1.437,0.183,2.76-0.333,3.969c-0.516,1.209-1.512,2.562-2.987,4.056
					l-3.031,3.094c-0.886,0.892-1.598,1.703-2.135,2.435c-0.537,0.732-0.933,1.441-1.187,2.127
					c-0.254,0.687-0.394,1.369-0.421,2.046c-0.027,0.678,0.042,1.419,0.207,2.223l0.157,0.767l12.311-2.519
					c0.195-0.04,0.376-0.02,0.545,0.06c0.169,0.08,0.273,0.217,0.313,0.412l0.329,1.608c0.04,0.195-0.001,0.368-0.122,0.52
					c-0.121,0.152-0.279,0.247-0.474,0.287l-14.476,2.962c-0.193,0.04-0.375,0.007-0.546-0.097
					c-0.172-0.104-0.277-0.254-0.317-0.448l-0.605-2.955c-0.388-1.896-0.311-3.724,0.233-5.482c0.544-1.758,1.68-3.51,3.409-5.258
					l3.193-3.237c0.652-0.665,1.183-1.242,1.592-1.732c0.409-0.489,0.715-0.951,0.919-1.385c0.204-0.434,0.318-0.87,0.344-1.306
					c0.025-0.435-0.016-0.921-0.126-1.456c-0.269-1.313-0.884-2.181-1.846-2.605c-0.962-0.424-2.43-0.434-4.402-0.031
					c-0.95,0.194-1.998,0.466-3.145,0.815c-1.146,0.349-2.216,0.701-3.209,1.056l-0.146,0.03c-0.39,0.08-0.63-0.1-0.719-0.54
					l-0.265-1.295c-0.041-0.198-0.004-0.359,0.11-0.485c0.113-0.125,0.262-0.233,0.448-0.323c0.875-0.436,1.878-0.835,3.01-1.195
					s2.246-0.652,3.341-0.876c2.971-0.608,5.27-0.532,6.897,0.225C1090.642,1028.137,1091.688,1029.649,1092.151,1031.914z"/>
				<path style="fill:#FFFFFF;" d="M1117.493,1042.295c-0.12,1.522-0.476,2.819-1.069,3.892c-0.593,1.073-1.393,1.934-2.402,2.585
					c-1.009,0.65-2.207,1.118-3.595,1.402c-1.388,0.284-2.68,0.326-3.875,0.127c-1.196-0.199-2.276-0.676-3.242-1.43
					c-0.967-0.754-1.803-1.806-2.512-3.159c-0.708-1.352-1.269-3.038-1.682-5.06l-1.009-4.932c-0.414-2.021-0.561-3.792-0.441-5.315
					c0.12-1.521,0.476-2.819,1.069-3.891c0.592-1.073,1.399-1.935,2.42-2.588c1.021-0.653,2.225-1.121,3.613-1.405
					c1.389-0.284,2.674-0.325,3.857-0.123c1.183,0.202,2.258,0.68,3.224,1.433c0.966,0.754,1.803,1.807,2.511,3.159
					c0.708,1.353,1.269,3.039,1.682,5.061l1.009,4.932C1117.466,1039.003,1117.613,1040.774,1117.493,1042.295z M1112.719,1032.729
					c-0.314-1.534-0.715-2.816-1.204-3.845c-0.489-1.029-1.045-1.835-1.67-2.418c-0.625-0.582-1.316-0.961-2.073-1.136
					c-0.756-0.175-1.56-0.176-2.41-0.002c-0.85,0.174-1.588,0.49-2.215,0.948c-0.627,0.459-1.114,1.078-1.459,1.859
					c-0.346,0.782-0.542,1.742-0.587,2.88c-0.045,1.139,0.089,2.474,0.403,4.009l1.009,4.932c0.314,1.534,0.715,2.816,1.204,3.845
					c0.489,1.029,1.046,1.835,1.671,2.418c0.625,0.583,1.316,0.961,2.072,1.136c0.757,0.175,1.56,0.176,2.41,0.002
					c0.85-0.174,1.588-0.49,2.215-0.948c0.627-0.458,1.113-1.078,1.46-1.859c0.346-0.781,0.541-1.741,0.586-2.88
					c0.045-1.138-0.089-2.475-0.403-4.009L1112.719,1032.729z"/>
				<path style="fill:#FFFFFF;" d="M1136.354,1022.869c0.294,1.437,0.183,2.76-0.333,3.969c-0.516,1.209-1.512,2.562-2.987,4.056
					l-3.031,3.094c-0.886,0.892-1.598,1.703-2.135,2.435c-0.537,0.732-0.933,1.441-1.187,2.127
					c-0.254,0.687-0.394,1.369-0.421,2.046c-0.027,0.678,0.042,1.419,0.207,2.223l0.157,0.767l12.311-2.519
					c0.195-0.04,0.376-0.02,0.545,0.06c0.169,0.08,0.273,0.217,0.313,0.412l0.329,1.608c0.04,0.195-0.001,0.368-0.122,0.52
					c-0.121,0.152-0.279,0.247-0.474,0.287l-14.476,2.962c-0.193,0.04-0.375,0.007-0.546-0.097
					c-0.172-0.104-0.277-0.254-0.317-0.448l-0.605-2.955c-0.388-1.896-0.311-3.724,0.233-5.482c0.544-1.758,1.68-3.51,3.409-5.258
					l3.193-3.237c0.652-0.665,1.183-1.242,1.592-1.732c0.409-0.489,0.715-0.951,0.919-1.385c0.204-0.434,0.318-0.87,0.344-1.306
					c0.025-0.435-0.016-0.921-0.126-1.456c-0.269-1.313-0.884-2.181-1.847-2.605c-0.962-0.424-2.43-0.434-4.402-0.031
					c-0.95,0.194-1.998,0.466-3.145,0.815c-1.146,0.349-2.216,0.701-3.209,1.056l-0.146,0.03c-0.39,0.08-0.63-0.1-0.72-0.54
					l-0.265-1.295c-0.04-0.198-0.004-0.359,0.11-0.485c0.113-0.126,0.263-0.233,0.448-0.323c0.875-0.436,1.878-0.835,3.01-1.195
					c1.132-0.36,2.246-0.652,3.341-0.876c2.971-0.608,5.27-0.532,6.897,0.225
					C1134.845,1019.093,1135.891,1020.604,1136.354,1022.869z"/>
				<path style="fill:#FFFFFF;" d="M1156.907,1040.168c-0.092,0.171-0.235,0.277-0.43,0.317l-2.009,0.411
					c-0.196,0.04-0.368-0.001-0.52-0.122c-0.152-0.121-0.247-0.279-0.287-0.474l-4.702-22.978l-4.294,3.01
					c-0.156,0.108-0.306,0.177-0.453,0.207c-0.219,0.045-0.356-0.066-0.411-0.335l-0.381-1.863
					c-0.025-0.122-0.013-0.219,0.035-0.293c0.048-0.073,0.126-0.159,0.233-0.257l4.978-3.759c0.262-0.206,0.503-0.331,0.722-0.376
					l1.498-0.306c0.195-0.04,0.373-0.006,0.534,0.1c0.161,0.107,0.262,0.257,0.302,0.452l5.262,25.719
					C1157.025,1039.814,1156.999,1039.997,1156.907,1040.168z"/>
			</g>
		</g>
		<g>
			
				<rect x="761.376" y="1134.017" transform="matrix(0.9797 -0.2005 0.2005 0.9797 -213.289 183.5005)" style="fill:#FFFFFF;" width="76.121" height="21.806"/>
		</g>
		<g>
			
				<rect x="1053.412" y="856.182" transform="matrix(0.9797 -0.2005 0.2005 0.9797 -150.7902 236.315)" style="fill:#FFFFFF;" width="76.121" height="13.083"/>
		</g>
		<g>
			
				<rect x="998.969" y="885.065" transform="matrix(0.9797 -0.2005 0.2005 0.9797 -157.0789 231.9744)" style="fill:#FFFFFF;" width="135.855" height="13.083"/>
		</g>
		<g>
			
				<rect x="765.123" y="1139.3" transform="matrix(0.9797 -0.2005 0.2005 0.9797 -211.6603 210.1493)" style="fill:#FFFFFF;" width="333.427" height="21.806"/>
		</g>
		<g>
			<path style="fill:#FFFFFF;" d="M1148.897,1105.788c1.207,5.899-2.597,11.66-8.496,12.867c-5.899,1.207-11.66-2.597-12.867-8.496
				c-1.207-5.899,2.597-11.66,8.496-12.867C1141.929,1096.085,1147.69,1099.888,1148.897,1105.788z"/>
		</g>
		<g>
			<path style="fill:#FFFFFF;" d="M1178.805,1099.668c1.207,5.899-2.597,11.66-8.496,12.867c-5.899,1.207-11.66-2.597-12.867-8.496
				c-1.207-5.899,2.597-11.66,8.496-12.867C1171.837,1089.965,1177.598,1093.769,1178.805,1099.668z"/>
		</g>
		<g>
			<path style="fill:#FECC86;" d="M783.056,935.007l7.604,37.16c0.386,1.888-0.828,3.739-2.725,4.127l-63.57,13.008
				c-1.896,0.388-3.749-0.835-4.136-2.723l-7.604-37.16c-0.388-1.896,0.835-3.749,2.732-4.137l63.57-13.008
				C780.824,931.885,782.668,933.11,783.056,935.007z"/>
		</g>
		<g>
			<polygon style="fill:#EFA348;" points="749.265,959.219 716.022,966.021 715.665,964.273 747.159,957.829 744.874,946.662 
				746.622,946.304 			"/>
		</g>
		<g>
			<polygon style="fill:#EFA348;" points="759.836,982.043 758.088,982.4 754.552,965.118 787.824,958.31 788.182,960.058 
				756.658,966.508 			"/>
		</g>
		<g>
			
				<rect x="760.182" y="936.122" transform="matrix(0.9797 -0.2005 0.2005 0.9797 -174.125 171.7873)" style="fill:#EFA348;" width="1.784" height="18.9"/>
		</g>
		<g>
			
				<rect x="761.06" y="943.41" transform="matrix(0.9797 -0.2005 0.2005 0.9797 -173.613 174.1081)" style="fill:#EFA348;" width="23.653" height="1.784"/>
		</g>
		<g>
			<polygon style="fill:#EFA348;" points="738.729,978.271 736.982,978.628 735.756,972.64 718.115,976.25 717.758,974.502 
				737.147,970.534 			"/>
		</g>
		<g>
			<path style="fill:#1D1D1B;" d="M1198.284,1127.236l-440.529,90.141c-7.945,1.626-15.731-3.515-17.356-11.46L685.71,938.65
				c-1.626-7.945,3.515-15.731,11.46-17.356l440.53-90.141c7.945-1.626,15.73,3.515,17.356,11.46l54.688,267.268
				C1211.37,1117.825,1206.229,1125.611,1198.284,1127.236z M697.707,923.915c-6.499,1.33-10.704,7.699-9.375,14.198l54.688,267.268
				c1.33,6.499,7.699,10.704,14.198,9.374l440.529-90.141c6.499-1.33,10.704-7.699,9.375-14.198l-54.688-267.268
				c-1.33-6.499-7.699-10.704-14.198-9.375L697.707,923.915z"/>
		</g>
	</g>
	<g>
		<g>
			
				<ellipse transform="matrix(0.7071 -0.7071 0.7071 0.7071 -234.9784 1533.5594)" style="fill:#FFFFFF;" cx="1733.681" cy="1050.424" rx="130.755" ry="130.755"/>
		</g>
		<g>
			<g>
				<path style="fill:#5AB3BF;" d="M1709.386,1117.035l-49.314-68.58c-2.335-3.246-1.595-7.77,1.651-10.105
					c3.246-2.334,7.771-1.595,10.104,1.651l38.089,52.969l95.221-120.798c2.475-3.141,7.028-3.679,10.167-1.204
					c3.141,2.476,3.68,7.027,1.204,10.168L1709.386,1117.035z"/>
			</g>
		</g>
	</g>
	<polygon style="fill:#FFFFFF;" points="1778.273,1157.795 1832.192,1211.071 1808.574,1126.452 	"/>
	<rect x="1626.583" y="1281.68" style="fill:#FFFFFF;" width="223.607" height="11.112"/>
	<rect x="1626.583" y="1327.67" style="fill:#FFFFFF;" width="223.607" height="11.112"/>
	<g>
		<g>
			<path style="fill:#6095AB;" d="M1155.167,674.34c-11.273-0.925-22.207-3.989-32.498-9.106l2.71-5.453
				c9.597,4.771,19.787,7.628,30.286,8.49L1155.167,674.34z M1188.727,671.734l-1.462-5.911c10.375-2.567,20.075-6.893,28.827-12.86
				l3.43,5.032C1210.17,664.371,1199.808,668.993,1188.727,671.734z M1095.434,645.481c-7.564-7.471-14.542-16.309-20.741-26.271
				l5.17-3.217c5.947,9.557,12.625,18.02,19.85,25.155L1095.434,645.481z M1243.671,634.498l-4.916-3.593
				c6.146-8.408,11.054-17.911,14.588-28.244l5.761,1.971C1255.371,615.546,1250.178,625.594,1243.671,634.498z M769.482,622.276
				l-6.076-0.402c0.726-10.963,2.112-22.04,4.12-32.924l5.988,1.105C771.549,600.707,770.192,611.547,769.482,622.276z
				 M1059.793,589.381c-3.989-10.088-7.289-20.78-9.809-31.781l5.936-1.359c2.452,10.701,5.66,21.098,9.536,30.901L1059.793,589.381
				z M1265.608,571.736l-6.075-0.407c0.193-2.891,0.291-5.851,0.291-8.798c0-7.642-0.658-15.45-1.955-23.208l6.006-1.004
				c1.352,8.09,2.038,16.236,2.038,24.213C1265.914,565.613,1265.812,568.71,1265.608,571.736z M781.227,558.504l-5.823-1.779
				c3.213-10.513,7.068-20.986,11.458-31.127l5.588,2.419C788.15,537.951,784.374,548.208,781.227,558.504z M1044.792,524.826
				c-1.176-11.123-2.011-22.201-2.483-32.925l6.083-0.268c0.466,10.6,1.292,21.553,2.455,32.553L1044.792,524.826z
				 M1249.276,508.349c-3.809-9.78-8.661-19.478-14.424-28.824l5.183-3.196c5.955,9.658,10.973,19.688,14.915,29.81
				L1249.276,508.349z M806.994,498.958l-5.286-3.022c5.475-9.577,11.54-18.945,18.028-27.843l4.92,3.587
				C818.3,480.398,812.358,489.576,806.994,498.958z M1800.472,498.815l-5.804-1.842c3.331-10.5,5.929-21.084,7.717-31.459
				l6.001,1.035C1806.55,477.195,1803.887,488.051,1800.472,498.815z M1048.068,459.025l-6.087-0.155
				c0.285-11.183,0.994-22.274,2.109-32.963l6.057,0.632C1049.049,437.069,1048.35,448,1048.068,459.025z M1215.729,453.478
				c-6.843-7.957-14.507-15.703-22.778-23.024l4.035-4.56c8.478,7.503,16.337,15.448,23.36,23.613L1215.729,453.478z
				 M845.237,446.537l-4.487-4.116c7.497-8.173,15.502-15.955,23.794-23.129l3.984,4.605
				C860.412,430.918,852.576,438.535,845.237,446.537z M1811.558,433.441l-6.089-0.112c0.023-1.214,0.033-2.424,0.033-3.632
				c0.001-9.565-0.692-19.174-2.06-28.559l6.025-0.878c1.411,9.676,2.125,19.58,2.124,29.438
				C1811.591,430.942,1811.581,432.19,1811.558,433.441z M1167.405,410.439c-7.551-5.254-15.619-10.344-23.978-15.128
				c-1.206-0.69-2.412-1.369-3.62-2.036l2.945-5.329c1.233,0.681,2.466,1.375,3.699,2.079c8.515,4.874,16.735,10.06,24.432,15.416
				L1167.405,410.439z M894.301,404.162l-3.403-5.05c9.238-6.224,18.876-11.872,28.646-16.787l2.737,5.44
				C912.74,392.564,903.327,398.081,894.301,404.162z M1054.917,394.37l-5.977-1.163c2.134-10.965,4.785-21.776,7.881-32.131
				l5.834,1.743C1059.616,372.984,1057.012,383.599,1054.917,394.37z M1110.513,379.355c-10.127-4.048-20.496-7.407-30.817-9.982
				l1.474-5.908c10.589,2.642,21.222,6.086,31.604,10.237L1110.513,379.355z M952.117,375.153l-1.987-5.756
				c10.515-3.629,21.302-6.529,32.064-8.618l1.161,5.977C972.872,368.792,962.362,371.617,952.117,375.153z M1796.191,369.708
				c-3.211-10.101-7.303-20.166-12.164-29.917l5.449-2.716c5,10.031,9.212,20.39,12.518,30.789L1796.191,369.708z M1047.813,363.795
				c-10.717-1.084-21.608-1.384-32.342-0.887l-0.281-6.083c11.031-0.511,22.222-0.203,33.235,0.912L1047.813,363.795z
				 M1073.588,332.263l-5.612-2.362c4.308-10.24,9.211-20.251,14.572-29.754l5.304,2.991
				C1082.604,312.439,1077.805,322.237,1073.588,332.263z M1767.563,311.927c-5.968-8.682-12.703-17.264-20.016-25.507l4.555-4.041
				c7.479,8.43,14.369,17.211,20.479,26.1L1767.563,311.927z M1105.434,275.904l-4.907-3.605
				c6.515-8.87,13.651-17.444,21.209-25.486l4.437,4.17C1118.783,258.847,1111.805,267.231,1105.434,275.904z M1724.681,263.348
				c-7.83-7.11-16.28-14.068-25.115-20.681l3.649-4.875c8.989,6.728,17.588,13.809,25.56,21.047L1724.681,263.348z
				 M1149.746,228.707l-3.916-4.663c8.345-7.008,17.273-13.684,26.538-19.843l3.37,5.071
				C1166.662,215.306,1157.917,221.844,1149.746,228.707z M1672.677,224.281c-9.034-5.645-18.552-11.097-28.292-16.203l2.828-5.393
				c9.875,5.177,19.528,10.706,28.692,16.432L1672.677,224.281z M1614.975,193.952c-9.823-4.312-20.019-8.395-30.304-12.136
				l2.081-5.722c10.407,3.786,20.727,7.918,30.671,12.283L1614.975,193.952z M1203.708,192.737l-2.826-5.394
				c9.597-5.027,19.703-9.709,30.038-13.918l2.297,5.64C1223.061,183.201,1213.133,187.801,1203.708,192.737z M1553.651,171.607
				c-10.358-3.062-20.991-5.863-31.602-8.323l1.375-5.932c10.73,2.489,21.48,5.32,31.954,8.416L1553.651,171.607z M1263.884,168.143
				l-1.793-5.819c10.342-3.187,21.099-6.028,31.975-8.444l1.32,5.944C1284.669,162.204,1274.07,165.003,1263.884,168.143z
				 M1490.016,156.838c-10.711-1.83-21.595-3.364-32.35-4.559l0.673-6.052c10.873,1.208,21.875,2.758,32.702,4.608L1490.016,156.838
				z M1327.458,153.952l-0.878-6.026c10.731-1.562,21.782-2.779,32.843-3.617l0.462,6.071
				C1348.961,151.208,1338.051,152.41,1327.458,153.952z M1425.118,149.64c-10.9-0.555-21.841-0.778-32.628-0.66l-0.064-6.089
				c10.891-0.118,21.977,0.107,33.002,0.668L1425.118,149.64z"/>
		</g>
		<g>
			<path style="fill:#6095AB;" d="M1780.973,545.356l-5.402-2.809c2.521-4.851,4.922-9.775,7.136-14.635l5.542,2.524
				C1785.992,535.392,1783.543,540.412,1780.973,545.356z"/>
		</g>
	</g>
	<g>
		<g>
			<g>
				<g>
					<g>
						<g>
							<g>
								<g>
									<g>
										<path style="fill:#CC154A;" d="M1728.18,576.527l-33.819,58.29c0,0,48.944-39.19,50.122-40.13
											c1.17-0.934,44.693-64.258,44.693-64.258l19.348-5.538l-30.713-8.23L1728.18,576.527z"/>
									</g>
								</g>
							</g>
						</g>
					</g>
				</g>
			</g>
		</g>
		<g>
			<g>
				<g>
					<g>
						<g>
							<g>
								<g>
									<g>
										<polygon style="fill:#F7597F;" points="1777.812,516.66 1755.992,495.87 1694.361,634.817 										"/>
									</g>
								</g>
							</g>
						</g>
					</g>
				</g>
			</g>
		</g>
		<g>
			<g>
				<g>
					<g>
						<g>
							<g>
								<g>
									<g>
										<polygon style="fill:#F7597F;" points="1818.064,557.857 1789.176,530.428 1694.361,634.817 										"/>
									</g>
								</g>
							</g>
						</g>
					</g>
				</g>
			</g>
		</g>
	</g>
</g>
</svg>
