<?xml version="1.0" encoding="utf-8"?>
<!-- Generator: Adobe Illustrator 27.5.0, SVG Export Plug-In . SVG Version: 6.00 Build 0)  -->
<svg version="1.1" xmlns="http://www.w3.org/2000/svg" xmlns:xlink="http://www.w3.org/1999/xlink" x="0px" y="0px"
	 viewBox="0 0 500 500" style="enable-background:new 0 0 500 500;" xml:space="preserve">
<g id="Background_Simple">
	<g>
		<path style="fill:#92E3A9;" d="M451.687,276.517c-4.334,36.698-21.089,79.366-54.554,98.967
			c-50.563,29.622-46.331,75.182-145.024,94.989c-15.387,3.09-29.99,4.39-43.76,4.133c-7.402-0.137-14.567-0.734-21.477-1.751
			c-62.725-9.163-104.937-52.763-120.423-105.394c-20.38-69.219,20.314-114.535,47.286-141.838
			c26.973-27.303,46.728-112.375,143.597-132.609c14.77-3.078,29.874-4.65,44.974-4.273c34.465,0.846,72.059,12.163,98.071,35.785
			c1.953,1.775,3.852,3.615,5.704,5.511C442.235,167.146,457.598,226.486,451.687,276.517z"/>
		<path style="opacity:0.7;fill:#FFFFFF;" d="M451.687,276.517c-4.334,36.698-21.089,79.366-54.554,98.967
			c-50.563,29.622-46.331,75.182-145.024,94.989c-15.387,3.09-29.99,4.39-43.76,4.133c-7.402-0.137-14.567-0.734-21.477-1.751
			c-62.725-9.163-104.937-52.763-120.423-105.394c-20.38-69.219,20.314-114.535,47.286-141.838
			c26.973-27.303,46.728-112.375,143.597-132.609c14.77-3.078,29.874-4.65,44.974-4.273c34.465,0.846,72.059,12.163,98.071,35.785
			c1.953,1.775,3.852,3.615,5.704,5.511C442.235,167.146,457.598,226.486,451.687,276.517z"/>
	</g>
</g>
<g id="Plants">
	<g style="opacity:0.15;">
		<path d="M322.093,97.967c-4.741,3.288-17.483,5.503-17.493,5.505c-0.132,0.023,1.09-8.843,1.231-9.393
			c1.635-6.372,8.542-17.722,15.896-18.167c5.297-0.32,9.185,4.279,8.978,9.366C330.493,90.476,326.129,95.165,322.093,97.967z"/>
		<path d="M286.957,258.312c0.006,0.3,0.016,0.581,0.022,0.878l-4.375,2.826c-0.009-1.195-0.014-2.409-0.012-3.661
			c-0.003-3.544,0.065-7.331,0.171-11.22c-0.911-0.169-6.086-1.163-10.8-2.699c-2.91,4.736-11.464,11.293-12.574,12.131
			c1.915,2.919,3.807,5.738,5.635,8.37c1.254,1.815,2.473,3.548,3.659,5.209l-4.797,0.946c-0.814-1.206-1.635-2.43-2.479-3.711
			c-1.958-2.954-3.991-6.152-6.047-9.453c-1.304,0.552-11.982,5.004-17.397,4.857c-4.911-0.136-11.131-1.673-14.153-5.907
			c-2.958-4.144-2.22-10.12,2.391-12.752c6.397-3.652,18.389,2.067,23.245,6.505c0.288,0.261,3.078,3.449,4.805,5.489
			c-0.833-1.353-1.657-2.658-2.497-4.063c-1.682-2.764-3.277-5.573-5.005-8.589c-0.784-1.485-1.575-2.987-2.375-4.502
			c-0.824-1.486-1.506-3.161-2.274-4.752c-1.704-3.73-3.247-7.59-4.717-11.514c-2.425,1.465-11.11,6.548-16.008,7.16
			c-4.876,0.61-11.255,0.034-14.883-3.694c-3.552-3.648-3.728-9.668,0.429-12.968c5.771-4.579,18.491-0.742,23.964,2.909
			c0.342,0.226,3.973,3.288,5.935,5.008c-0.865-2.366-1.739-4.722-2.537-7.145c-2.302-6.991-4.414-14.139-6.555-21.261
			c-0.654-2.182-1.332-4.348-2.003-6.519c-0.858,0.531-11.049,6.795-16.536,7.482c-4.875,0.611-11.256,0.034-14.883-3.694
			c-3.552-3.648-3.728-9.667,0.43-12.966c5.771-4.58,18.49-0.743,23.962,2.908c0.412,0.275,5.632,4.687,6.905,5.875
			c-1.479-4.782-2.996-9.531-4.683-14.154c-2.317-6.381-4.945-12.513-7.929-18.266c-0.398,0.248-11.008,6.834-16.626,7.538
			c-4.876,0.61-11.257,0.033-14.883-3.694c-3.552-3.649-3.728-9.667,0.43-12.967c5.771-4.58,18.49-0.742,23.963,2.908
			c0.429,0.287,6.042,5.037,6.999,5.971c-0.179-0.341-0.326-0.715-0.508-1.054c-3.264-6.102-7.192-11.602-11.122-16.571
			c-2.278-2.893-4.618-5.53-6.95-8.044c-1.851,1.43-10.378,7.868-15.364,9.06c-4.779,1.142-11.185,1.269-15.198-2.038
			c-3.932-3.236-4.768-9.199-0.998-12.935c5.234-5.186,18.297-2.769,24.138,0.259c0.317,0.164,3.36,2.196,5.555,3.707
			c-1.07-1.119-2.154-2.294-3.201-3.344c-3.921-3.958-7.756-7.34-11.176-10.308c-1.958-1.671-3.762-3.145-5.465-4.506
			c-2.546,0.456-12.835,2.162-17.72,0.944c-4.766-1.189-10.511-4.027-12.551-8.811c-1.997-4.685,0.01-10.363,5.076-11.94
			c7.033-2.192,17.515,5.973,21.303,11.352c0.327,0.466,4.612,8.323,4.479,8.348c0,0-0.124,0.023-0.154,0.028
			c1.666,1.276,3.434,2.664,5.338,4.219c3.493,2.899,7.411,6.206,11.432,10.094c4.031,3.875,8.3,8.197,12.386,13.156
			c4.102,4.965,8.163,10.398,11.624,16.537c0.039,0.069,0.071,0.147,0.11,0.216c-0.455-2.11-1.53-8.052-1.559-8.517
			c-0.432-6.564,2.589-19.502,9.439-22.218c4.934-1.955,10.061,1.201,11.451,6.101c1.418,5.003-1.265,10.819-4.227,14.74
			c-3.34,4.421-13.904,10.147-14.745,10.601c3.243,5.876,6.092,12.17,8.626,18.697c1.453,3.732,2.799,7.534,4.101,11.364
			c-0.334-1.837-0.62-3.482-0.634-3.716c-0.432-6.565,2.59-19.501,9.439-22.217c4.934-1.957,10.061,1.201,11.45,6.099
			c1.42,5.003-1.264,10.82-4.226,14.74c-3.006,3.977-11.914,9.041-14.288,10.349c0.484,1.474,0.984,2.942,1.462,4.418
			c2.297,7.083,4.558,14.16,6.989,21.035c0.855,2.424,1.786,4.777,2.71,7.136c-0.295-1.631-0.53-3.008-0.544-3.221
			c-0.432-6.565,2.59-19.502,9.438-22.218c4.935-1.955,10.063,1.2,11.453,6.1c1.419,5.001-1.265,10.82-4.228,14.739
			c-2.867,3.796-11.048,8.544-13.863,10.112c1.019,2.388,2.035,4.781,3.13,7.049c0.783,1.532,1.43,3.06,2.301,4.555
			c0.831,1.497,1.655,2.981,2.47,4.449c1.676,2.77,3.385,5.639,5.085,8.3c1.169,1.861,2.319,3.611,3.469,5.378
			c-0.879-2.402-2.503-7.14-2.594-7.551c-0.944-4.267-0.796-11.538,1.269-17.035c-0.143-0.629-0.232-1.268-0.255-1.915
			c-0.18-5.089,3.732-9.666,9.029-9.318c7.351,0.483,14.198,11.87,15.798,18.249c0.095,0.377,0.664,4.574,0.979,7.229
			c0.053-1.589,0.085-3.131,0.158-4.766c0.124-3.233,0.343-6.456,0.563-9.926c0.166-1.671,0.335-3.358,0.504-5.064
			c0.132-1.693,0.487-3.466,0.725-5.218c0.637-4.049,1.479-8.123,2.418-12.206c-2.833-0.115-12.88-0.668-17.303-2.859
			c-4.403-2.18-9.406-6.183-10.376-11.291c-0.949-5.003,2.223-10.121,7.511-10.579c7.34-0.637,15.833,9.581,18.384,15.645
			c0.159,0.379,1.499,4.935,2.188,7.452c0.584-2.45,1.154-4.899,1.826-7.359c1.935-7.102,4.116-14.229,6.261-21.349
			c0.658-2.181,1.287-4.361,1.926-6.541c-1.009-0.031-12.966-0.429-17.92-2.882c-4.403-2.18-9.406-6.182-10.375-11.291
			c-0.949-5.002,2.223-10.12,7.511-10.577c7.34-0.637,15.832,9.58,18.383,15.644c0.192,0.457,2.111,7.016,2.518,8.708
			c1.404-4.802,2.759-9.601,3.903-14.387c1.586-6.601,2.779-13.165,3.463-19.609c-0.47-0.014-12.951-0.374-18.026-2.886
			c-4.403-2.18-9.406-6.182-10.375-11.292c-0.95-5.003,2.223-10.119,7.512-10.578c7.339-0.637,15.832,9.581,18.382,15.645
			c0.2,0.476,2.262,7.535,2.544,8.84c0.04-0.383,0.125-0.775,0.16-1.158c0.642-6.891,0.401-13.646-0.136-19.959
			c-0.304-3.668-0.801-7.158-1.36-10.542c-2.331,0.171-12.996,0.836-17.812-0.92c-4.617-1.684-10.029-5.112-11.553-10.083
			c-1.493-4.869,1.099-10.304,6.304-11.34c7.225-1.439,16.789,7.785,19.99,13.531c0.174,0.313,1.593,3.686,2.59,6.157
			c-0.276-1.524-0.531-3.102-0.825-4.556c-1.088-5.463-2.42-10.4-3.635-14.762c-0.711-2.476-1.404-4.699-2.074-6.772
			c-2.375-1.027-11.897-5.279-15.3-8.99c-3.321-3.621-6.544-9.157-5.607-14.272c0.919-5.01,5.724-8.638,10.82-7.16
			c7.076,2.053,11.313,14.646,11.507,21.222c0.015,0.568-0.746,9.485-0.871,9.434c0,0-0.116-0.05-0.143-0.062
			c0.685,1.982,1.395,4.117,2.124,6.463c1.314,4.344,2.757,9.265,3.967,14.727c1.224,5.455,2.4,11.416,3.072,17.806
			c0.682,6.404,1.073,13.176,0.573,20.205c-0.006,0.079-0.022,0.162-0.028,0.241c0.785-2.011,3.169-7.559,3.4-7.965
			c3.26-5.714,12.919-14.836,20.129-13.323c5.194,1.091,7.73,6.553,6.186,11.406c-1.577,4.956-7.024,8.326-11.656,9.962
			c-5.226,1.845-17.195,0.794-18.148,0.706c-0.538,6.691-1.633,13.512-3.121,20.355c-0.846,3.913-1.821,7.827-2.847,11.74
			c0.734-1.716,1.404-3.245,1.52-3.45c3.261-5.714,12.921-14.837,20.129-13.322c5.195,1.089,7.729,6.551,6.186,11.403
			c-1.574,4.956-7.024,8.328-11.657,9.963c-4.702,1.661-14.924,0.969-17.627,0.75c-0.409,1.497-0.801,2.996-1.217,4.491
			c-1.991,7.175-4.009,14.326-5.774,21.401c-0.624,2.493-1.145,4.97-1.677,7.448c0.654-1.525,1.218-2.802,1.324-2.989
			c3.261-5.713,12.919-14.837,20.129-13.323c5.195,1.09,7.73,6.552,6.186,11.404c-1.577,4.957-7.024,8.328-11.658,9.963
			c-4.487,1.585-13.928,1.031-17.141,0.786c-0.468,2.553-0.941,5.11-1.279,7.605c-0.192,1.709-0.497,3.341-0.593,5.068
			c-0.133,1.708-0.264,3.399-0.393,5.075c-0.133,3.233-0.289,6.57-0.338,9.728c-0.051,2.196-0.059,4.291-0.074,6.4
			c0.591-2.488,1.852-7.336,2.003-7.73c2.356-6.141,10.522-16.621,17.878-16.218c5.299,0.291,8.633,5.305,7.841,10.336
			c-0.807,5.137-5.68,9.295-10.012,11.613c-4.77,2.552-16.287,3.35-17.727,3.44C286.863,251.713,286.885,255.108,286.957,258.312z"
			/>
		<path d="M194.32,126.058c-0.098,0.092-3.97-7.978-4.156-8.514c-2.15-6.217-2.65-19.494,3.238-23.922
			c4.242-3.189,10.021-1.498,12.654,2.861c2.69,4.449,1.638,10.769-0.184,15.332C203.734,117.173,194.326,126.05,194.32,126.058z"/>
	</g>
	<g style="opacity:0.15;">
		<path d="M127.929,283.272c-0.816,2.861-5.174,7.91-5.178,7.914c-0.045,0.052-2.456-3.883-2.579-4.149
			c-1.431-3.076-2.386-9.861,0.402-12.442c2.008-1.859,5.062-1.296,6.643,0.801C128.831,277.538,128.623,280.835,127.929,283.272z"
			/>
		<path d="M166.326,358.71c0.101,0.118,0.196,0.227,0.296,0.343l-0.821,2.557c-0.394-0.474-0.793-0.956-1.201-1.456
			c-1.16-1.413-2.371-2.945-3.599-4.531c-0.419,0.23-2.807,1.525-5.19,2.454c0.387,2.84-0.881,8.251-1.05,8.948
			c1.718,0.538,3.394,1.044,4.983,1.496c1.093,0.314,2.146,0.607,3.162,0.882l-1.604,1.945c-0.719-0.215-1.447-0.435-2.202-0.67
			c-1.747-0.539-3.603-1.149-5.502-1.794c-0.339,0.646-3.143,5.913-5.351,7.624c-2.003,1.551-4.987,2.971-7.576,2.27
			c-2.534-0.686-4.193-3.311-3.215-5.868c1.357-3.548,8.01-5.187,11.397-5.003c0.2,0.01,2.355,0.37,3.711,0.619
			c-0.775-0.267-1.53-0.519-2.324-0.804c-1.575-0.553-3.129-1.152-4.804-1.79c-0.798-0.336-1.604-0.676-2.419-1.019
			c-0.814-0.323-1.634-0.768-2.46-1.152c-1.899-0.931-3.776-1.966-5.645-3.051c-0.488,1.377-2.291,6.243-4.044,8.089
			c-1.745,1.837-4.478,3.692-7.143,3.391c-2.609-0.294-4.647-2.638-4.067-5.313c0.805-3.713,7.133-6.34,10.509-6.673
			c0.21-0.021,2.66,0.013,4.004,0.057c-1.118-0.661-2.237-1.315-3.347-2.021c-3.204-2.036-6.382-4.196-9.564-6.337
			c-0.974-0.656-1.952-1.299-2.93-1.945c-0.168,0.492-2.186,6.322-4.15,8.389c-1.744,1.837-4.479,3.693-7.143,3.391
			c-2.609-0.294-4.647-2.637-4.067-5.312c0.805-3.713,7.132-6.34,10.508-6.673c0.254-0.025,3.779,0.029,4.674,0.086
			c-2.153-1.424-4.31-2.822-6.494-4.115c-3.01-1.788-6.063-3.374-9.133-4.694c-0.078,0.229-2.157,6.324-4.167,8.441
			c-1.745,1.837-4.479,3.692-7.144,3.392c-2.609-0.294-4.647-2.637-4.067-5.312c0.805-3.713,7.132-6.34,10.508-6.673
			c0.265-0.026,4.056,0.034,4.743,0.094c-0.183-0.078-0.364-0.179-0.547-0.254c-3.296-1.367-6.661-2.277-9.853-2.974
			c-1.854-0.409-3.649-0.696-5.402-0.937c-0.271,1.175-1.568,6.53-3.167,8.636c-1.533,2.017-4.046,4.162-6.728,4.155
			c-2.626-0.006-4.909-2.111-4.626-4.833c0.393-3.779,6.393-7.085,9.712-7.787c0.18-0.038,2.058-0.222,3.427-0.337
			c-0.793-0.097-1.609-0.211-2.37-0.288c-2.858-0.297-5.492-0.392-7.827-0.458c-1.327-0.027-2.528-0.025-3.653-0.01
			c-0.866,1.014-4.413,5.057-6.759,6.169c-2.29,1.084-5.509,1.829-7.886,0.588c-2.328-1.216-3.384-4.137-1.878-6.422
			c2.089-3.173,8.938-3.343,12.207-2.436c0.282,0.079,4.56,1.812,4.515,1.865c0,0-0.042,0.049-0.052,0.062
			c1.081-0.036,2.24-0.06,3.508-0.062c2.341,0.015,4.984,0.053,7.859,0.289c2.874,0.228,5.99,0.557,9.241,1.199
			c3.259,0.64,6.654,1.479,10.042,2.796c0.038,0.014,0.076,0.035,0.115,0.05c-0.871-0.693-3.242-2.712-3.406-2.887
			c-2.318-2.477-5.342-8.625-3.498-11.947c1.329-2.392,4.405-2.81,6.561-1.31c2.201,1.532,3.032,4.729,3.132,7.261
			c0.113,2.855-2.229,8.592-2.416,9.048c3.214,1.284,6.408,2.863,9.552,4.638c1.799,1.013,3.579,2.09,5.35,3.192
			c-0.734-0.624-1.386-1.186-1.468-1.275c-2.318-2.477-5.341-8.625-3.497-11.947c1.328-2.393,4.405-2.81,6.561-1.31
			c2.202,1.531,3.032,4.729,3.133,7.26c0.101,2.569-1.796,7.5-2.316,8.798c0.675,0.43,1.354,0.852,2.027,1.284
			c3.231,2.074,6.446,4.158,9.663,6.105c1.133,0.687,2.274,1.322,3.413,1.96c-0.651-0.554-1.195-1.027-1.27-1.107
			c-2.318-2.477-5.342-8.625-3.498-11.946c1.329-2.393,4.406-2.81,6.562-1.31c2.201,1.531,3.032,4.729,3.132,7.261
			c0.097,2.451-1.614,7.019-2.224,8.564c1.187,0.62,2.374,1.242,3.552,1.789c0.813,0.355,1.57,0.753,2.407,1.065
			c0.821,0.325,1.634,0.648,2.439,0.967c1.574,0.557,3.193,1.143,4.741,1.648c1.075,0.36,2.105,0.682,3.142,1.011
			c-1.136-0.671-3.332-2.03-3.503-2.164c-1.771-1.394-4.089-4.342-5.062-7.209c-0.263-0.204-0.507-0.43-0.727-0.681
			c-1.735-1.971-1.671-5.075,0.555-6.668c3.09-2.21,9.542,0.093,12.266,2.115c0.161,0.119,1.76,1.607,2.754,2.563
			c-0.498-0.651-0.99-1.276-1.495-1.953c-1.007-1.33-1.974-2.687-3.02-4.143c-0.48-0.721-0.964-1.449-1.454-2.185
			c-0.501-0.718-0.939-1.542-1.416-2.318c-1.069-1.823-2.065-3.723-3.025-5.659c-1.167,0.88-5.355,3.944-7.836,4.516
			c-2.469,0.57-5.772,0.609-7.829-1.112c-2.014-1.685-2.421-4.763-0.462-6.674c2.719-2.653,9.447-1.354,12.446,0.231
			c0.187,0.099,2.211,1.478,3.309,2.257c-0.568-1.168-1.141-2.331-1.677-3.532c-1.549-3.465-3.01-7.021-4.481-10.562
			c-0.451-1.085-0.912-2.16-1.37-3.239c-0.412,0.317-5.312,4.067-8.09,4.708c-2.468,0.57-5.772,0.609-7.829-1.112
			c-2.014-1.685-2.421-4.763-0.462-6.674c2.719-2.653,9.446-1.354,12.446,0.231c0.226,0.12,3.136,2.108,3.851,2.65
			c-1.009-2.374-2.038-4.731-3.146-7.014c-1.525-3.151-3.195-6.159-5.028-8.953c-0.192,0.148-5.288,4.084-8.133,4.741
			c-2.469,0.57-5.772,0.609-7.829-1.112c-2.014-1.685-2.421-4.763-0.462-6.674c2.719-2.653,9.446-1.353,12.446,0.232
			c0.236,0.124,3.365,2.266,3.904,2.694c-0.109-0.166-0.204-0.35-0.314-0.514c-1.997-2.958-4.301-5.574-6.578-7.916
			c-1.32-1.364-2.659-2.593-3.988-3.76c-0.874,0.83-4.91,4.582-7.405,5.455c-2.392,0.837-5.671,1.239-7.904-0.245
			c-2.187-1.454-2.93-4.469-1.192-6.583c2.411-2.936,9.241-2.383,12.396-1.137c0.172,0.068,1.84,0.95,3.046,1.609
			c-0.608-0.518-1.226-1.064-1.818-1.548c-2.22-1.823-4.365-3.357-6.275-4.7c-1.093-0.755-2.096-1.415-3.041-2.023
			c-1.283,0.367-6.471,1.783-9.041,1.415c-2.508-0.359-5.603-1.513-6.901-3.86c-1.271-2.298-0.54-5.316,1.975-6.393
			c3.493-1.494,9.299,2.144,11.526,4.703c0.192,0.222,2.803,4.027,2.736,4.047c0,0-0.063,0.018-0.077,0.022
			c0.921,0.567,1.902,1.186,2.96,1.884c1.944,1.303,4.128,2.794,6.396,4.577c2.271,1.776,4.689,3.769,7.046,6.098
			c2.365,2.331,4.735,4.905,6.833,7.872c0.024,0.034,0.044,0.072,0.068,0.105c-0.344-1.059-1.207-4.051-1.248-4.288
			c-0.567-3.345,0.303-10.14,3.673-11.893c2.428-1.262,5.225,0.087,6.196,2.527c0.991,2.492-0.08,5.617-1.393,7.783
			c-1.481,2.444-6.599,5.937-7.007,6.214c1.972,2.845,3.766,5.923,5.408,9.139c0.942,1.837,1.832,3.717,2.702,5.613
			c-0.268-0.924-0.501-1.753-0.521-1.873c-0.567-3.345,0.304-10.141,3.674-11.893c2.428-1.264,5.224,0.086,6.195,2.526
			c0.992,2.491-0.08,5.618-1.393,7.784c-1.332,2.199-5.636,5.264-6.786,6.061c0.326,0.731,0.66,1.457,0.982,2.189
			c1.551,3.513,3.083,7.024,4.692,10.423c0.566,1.198,1.168,2.357,1.766,3.519c-0.237-0.822-0.43-1.516-0.449-1.625
			c-0.567-3.344,0.303-10.141,3.674-11.893c2.428-1.263,5.225,0.087,6.195,2.526c0.991,2.492-0.079,5.617-1.393,7.784
			c-1.272,2.099-5.218,4.964-6.58,5.916c0.648,1.171,1.295,2.346,1.976,3.451c0.482,0.745,0.894,1.495,1.42,2.215
			c0.505,0.725,1.006,1.442,1.502,2.153c1.004,1.333,2.032,2.715,3.045,3.99c0.698,0.893,1.379,1.731,2.063,2.577
			c-0.578-1.186-1.66-3.531-1.728-3.738c-1.068-3.219-1.236-10.069,1.83-12.312c2.209-1.616,5.177-0.706,6.506,1.559
			c1.357,2.313,0.773,5.564-0.197,7.905c-1.069,2.577-5.401,6.66-5.946,7.166C164.132,356.109,165.25,357.456,166.326,358.71z"/>
		<path d="M86.148,336.24c-0.009,0.069-4.191-1.884-4.44-2.037c-2.89-1.777-7.429-6.909-6.528-10.6
			c0.649-2.659,3.507-3.873,5.982-2.995c2.527,0.895,4.174,3.76,4.938,6.175C86.999,329.62,86.148,336.235,86.148,336.24z"/>
	</g>
	<g style="opacity:0.15;">
		<path d="M371.909,283.272c0.816,2.861,5.174,7.91,5.178,7.914c0.045,0.052,2.456-3.883,2.579-4.149
			c1.431-3.076,2.386-9.861-0.402-12.442c-2.008-1.859-5.062-1.296-6.643,0.801C371.007,277.538,371.215,280.835,371.909,283.272z"
			/>
		<path d="M333.511,358.71c-0.101,0.118-0.196,0.227-0.296,0.343l0.821,2.557c0.394-0.474,0.793-0.956,1.201-1.456
			c1.16-1.413,2.37-2.945,3.599-4.531c0.419,0.23,2.807,1.525,5.19,2.454c-0.387,2.84,0.881,8.251,1.05,8.948
			c-1.718,0.538-3.394,1.044-4.983,1.496c-1.093,0.314-2.146,0.607-3.162,0.882l1.604,1.945c0.719-0.215,1.447-0.435,2.202-0.67
			c1.746-0.539,3.603-1.149,5.502-1.794c0.339,0.646,3.143,5.913,5.351,7.624c2.003,1.551,4.987,2.971,7.576,2.27
			c2.534-0.686,4.193-3.311,3.215-5.868c-1.357-3.548-8.01-5.187-11.397-5.003c-0.2,0.01-2.355,0.37-3.711,0.619
			c0.775-0.267,1.53-0.519,2.324-0.804c1.575-0.553,3.129-1.152,4.804-1.79c0.798-0.336,1.604-0.676,2.419-1.019
			c0.814-0.323,1.634-0.768,2.46-1.152c1.899-0.931,3.776-1.966,5.645-3.051c0.488,1.377,2.291,6.243,4.044,8.089
			c1.745,1.837,4.478,3.692,7.143,3.391c2.609-0.294,4.647-2.638,4.068-5.313c-0.805-3.713-7.133-6.34-10.509-6.673
			c-0.21-0.021-2.66,0.013-4.004,0.057c1.118-0.661,2.237-1.315,3.347-2.021c3.203-2.036,6.382-4.196,9.564-6.337
			c0.974-0.656,1.953-1.299,2.93-1.945c0.168,0.492,2.186,6.322,4.15,8.389c1.745,1.837,4.479,3.693,7.143,3.391
			c2.609-0.294,4.647-2.637,4.067-5.312c-0.805-3.713-7.132-6.34-10.508-6.673c-0.254-0.025-3.779,0.029-4.674,0.086
			c2.153-1.424,4.31-2.822,6.494-4.115c3.01-1.788,6.063-3.374,9.133-4.694c0.078,0.229,2.157,6.324,4.167,8.441
			c1.745,1.837,4.479,3.692,7.144,3.392c2.609-0.294,4.647-2.637,4.067-5.312c-0.805-3.713-7.132-6.34-10.508-6.673
			c-0.265-0.026-4.056,0.034-4.743,0.094c0.183-0.078,0.364-0.179,0.547-0.254c3.296-1.367,6.661-2.277,9.853-2.974
			c1.854-0.409,3.649-0.696,5.402-0.937c0.271,1.175,1.568,6.53,3.167,8.636c1.533,2.017,4.046,4.162,6.728,4.155
			c2.626-0.006,4.909-2.111,4.626-4.833c-0.392-3.779-6.393-7.085-9.712-7.787c-0.18-0.038-2.058-0.222-3.427-0.337
			c0.793-0.097,1.609-0.211,2.37-0.288c2.858-0.297,5.492-0.392,7.827-0.458c1.327-0.027,2.528-0.025,3.653-0.01
			c0.866,1.014,4.413,5.057,6.759,6.169c2.29,1.084,5.509,1.829,7.886,0.588c2.328-1.216,3.384-4.137,1.878-6.422
			c-2.089-3.173-8.938-3.343-12.207-2.436c-0.282,0.079-4.56,1.812-4.515,1.865c0,0,0.042,0.049,0.052,0.062
			c-1.081-0.036-2.241-0.06-3.508-0.062c-2.341,0.015-4.984,0.053-7.859,0.289c-2.874,0.228-5.99,0.557-9.24,1.199
			c-3.259,0.64-6.655,1.479-10.042,2.796c-0.038,0.014-0.076,0.035-0.115,0.05c0.871-0.693,3.242-2.712,3.406-2.887
			c2.318-2.477,5.342-8.625,3.498-11.947c-1.329-2.392-4.405-2.81-6.561-1.31c-2.201,1.532-3.032,4.729-3.132,7.261
			c-0.113,2.855,2.229,8.592,2.416,9.048c-3.214,1.284-6.408,2.863-9.552,4.638c-1.799,1.013-3.579,2.09-5.35,3.192
			c0.734-0.624,1.386-1.186,1.468-1.275c2.318-2.477,5.341-8.625,3.497-11.947c-1.328-2.393-4.405-2.81-6.561-1.31
			c-2.202,1.531-3.032,4.729-3.133,7.26c-0.101,2.569,1.797,7.5,2.316,8.798c-0.675,0.43-1.354,0.852-2.027,1.284
			c-3.231,2.074-6.446,4.158-9.663,6.105c-1.133,0.687-2.274,1.322-3.413,1.96c0.651-0.554,1.194-1.027,1.27-1.107
			c2.318-2.477,5.342-8.625,3.498-11.946c-1.329-2.393-4.406-2.81-6.562-1.31c-2.201,1.531-3.032,4.729-3.132,7.261
			c-0.097,2.451,1.614,7.019,2.224,8.564c-1.187,0.62-2.374,1.242-3.552,1.789c-0.813,0.355-1.57,0.753-2.407,1.065
			c-0.821,0.325-1.634,0.648-2.439,0.967c-1.574,0.557-3.193,1.143-4.741,1.648c-1.074,0.36-2.105,0.682-3.142,1.011
			c1.136-0.671,3.332-2.03,3.503-2.164c1.771-1.394,4.089-4.342,5.062-7.209c0.263-0.204,0.507-0.43,0.727-0.681
			c1.735-1.971,1.671-5.075-0.555-6.668c-3.09-2.21-9.543,0.093-12.266,2.115c-0.161,0.119-1.76,1.607-2.754,2.563
			c0.498-0.651,0.99-1.276,1.495-1.953c1.007-1.33,1.974-2.687,3.02-4.143c0.48-0.721,0.964-1.449,1.454-2.185
			c0.501-0.718,0.939-1.542,1.417-2.318c1.069-1.823,2.065-3.723,3.025-5.659c1.167,0.88,5.355,3.944,7.836,4.516
			c2.469,0.57,5.772,0.609,7.829-1.112c2.014-1.685,2.422-4.763,0.462-6.674c-2.719-2.653-9.447-1.354-12.446,0.231
			c-0.187,0.099-2.211,1.478-3.309,2.257c0.568-1.168,1.141-2.331,1.677-3.532c1.549-3.465,3.009-7.021,4.481-10.562
			c0.45-1.085,0.912-2.16,1.37-3.239c0.412,0.317,5.312,4.067,8.09,4.708c2.469,0.57,5.772,0.609,7.829-1.112
			c2.013-1.685,2.421-4.763,0.462-6.674c-2.719-2.653-9.446-1.354-12.446,0.231c-0.226,0.12-3.136,2.108-3.851,2.65
			c1.01-2.374,2.038-4.731,3.146-7.014c1.525-3.151,3.195-6.159,5.028-8.953c0.192,0.148,5.288,4.084,8.133,4.741
			c2.469,0.57,5.772,0.609,7.829-1.112c2.014-1.685,2.421-4.763,0.461-6.674c-2.719-2.653-9.446-1.353-12.446,0.232
			c-0.235,0.124-3.365,2.266-3.904,2.694c0.109-0.166,0.204-0.35,0.314-0.514c1.996-2.958,4.301-5.574,6.578-7.916
			c1.32-1.364,2.659-2.593,3.988-3.76c0.874,0.83,4.91,4.582,7.405,5.455c2.392,0.837,5.671,1.239,7.904-0.245
			c2.187-1.454,2.93-4.469,1.192-6.583c-2.411-2.936-9.241-2.383-12.396-1.137c-0.172,0.068-1.84,0.95-3.046,1.609
			c0.608-0.518,1.226-1.064,1.818-1.548c2.22-1.823,4.365-3.357,6.275-4.7c1.093-0.755,2.096-1.415,3.041-2.023
			c1.283,0.367,6.471,1.783,9.041,1.415c2.508-0.359,5.603-1.513,6.901-3.86c1.271-2.298,0.54-5.316-1.975-6.393
			c-3.493-1.494-9.299,2.144-11.526,4.703c-0.191,0.222-2.803,4.027-2.736,4.047c0,0,0.063,0.018,0.077,0.022
			c-0.921,0.567-1.902,1.186-2.96,1.884c-1.944,1.303-4.128,2.794-6.396,4.577c-2.271,1.776-4.689,3.769-7.046,6.098
			c-2.365,2.331-4.735,4.905-6.833,7.872c-0.024,0.034-0.044,0.072-0.068,0.105c0.344-1.059,1.207-4.051,1.248-4.288
			c0.567-3.345-0.303-10.14-3.673-11.893c-2.428-1.262-5.225,0.087-6.196,2.527c-0.991,2.492,0.08,5.617,1.393,7.783
			c1.481,2.444,6.599,5.937,7.007,6.214c-1.972,2.845-3.766,5.923-5.408,9.139c-0.942,1.837-1.832,3.717-2.702,5.613
			c0.268-0.924,0.501-1.753,0.521-1.873c0.567-3.345-0.304-10.141-3.674-11.893c-2.428-1.264-5.224,0.086-6.195,2.526
			c-0.992,2.491,0.079,5.618,1.393,7.784c1.332,2.199,5.636,5.264,6.786,6.061c-0.326,0.731-0.66,1.457-0.982,2.189
			c-1.551,3.513-3.084,7.024-4.692,10.423c-0.566,1.198-1.168,2.357-1.766,3.519c0.237-0.822,0.43-1.516,0.449-1.625
			c0.567-3.344-0.303-10.141-3.674-11.893c-2.428-1.263-5.225,0.087-6.195,2.526c-0.991,2.492,0.079,5.617,1.393,7.784
			c1.271,2.099,5.218,4.964,6.58,5.916c-0.648,1.171-1.295,2.346-1.976,3.451c-0.482,0.745-0.894,1.495-1.42,2.215
			c-0.505,0.725-1.006,1.442-1.502,2.153c-1.004,1.333-2.032,2.715-3.045,3.99c-0.697,0.893-1.379,1.731-2.063,2.577
			c0.578-1.186,1.66-3.531,1.728-3.738c1.068-3.219,1.236-10.069-1.83-12.312c-2.209-1.616-5.177-0.706-6.506,1.559
			c-1.357,2.313-0.773,5.564,0.197,7.905c1.069,2.577,5.401,6.66,5.946,7.166C335.706,356.109,334.587,357.456,333.511,358.71z"/>
		<path d="M413.689,336.24c0.009,0.069,4.191-1.884,4.44-2.037c2.889-1.777,7.429-6.909,6.528-10.6
			c-0.649-2.659-3.507-3.873-5.982-2.995c-2.527,0.895-4.174,3.76-4.938,6.175C412.839,329.62,413.689,336.235,413.689,336.24z"/>
	</g>
</g>
<g id="Money">
	<g>
		<g>
			<g>
				<polygon style="fill:#D1D1D1;stroke:#263238;stroke-linecap:round;stroke-linejoin:round;stroke-miterlimit:10;" points="
					327.3,301.024 261.047,273.254 316.937,138.971 383.19,166.741 				"/>
				<path style="fill:#FFFFFF;stroke:#263238;stroke-linecap:round;stroke-linejoin:round;stroke-miterlimit:10;" d="
					M369.889,180.446c-4.414-1.85-6.493-6.929-4.643-11.344c0.141-0.336,0.306-0.653,0.482-0.961l-38.041-15.945
					c-0.096,0.342-0.206,0.681-0.347,1.017c-1.85,4.415-6.929,6.493-11.344,4.643c-0.167-0.07-0.324-0.153-0.484-0.232
					L273.348,259.16c0.169,0.059,0.338,0.112,0.505,0.182c4.415,1.85,6.493,6.929,4.643,11.343
					c-0.141,0.336-0.306,0.653-0.482,0.961l38.041,15.945c0.096-0.342,0.206-0.682,0.347-1.017c1.85-4.414,6.929-6.493,11.344-4.643
					c0.336,0.141,0.652,0.306,0.961,0.482l42.2-101.621C370.565,180.697,370.225,180.586,369.889,180.446z M316.026,233.19
					c-7.236-3.033-10.644-11.358-7.611-18.594c3.033-7.236,11.358-10.644,18.594-7.611c7.236,3.033,10.644,11.358,7.611,18.594
					C331.587,232.816,323.262,236.223,316.026,233.19z"/>
			</g>
		</g>
		<g>
			<g>
				<polygon style="fill:#D1D1D1;stroke:#263238;stroke-linecap:round;stroke-linejoin:round;stroke-miterlimit:10;" points="
					326.429,301.364 263.571,266.586 333.668,139.142 396.526,173.92 				"/>
				<path style="fill:#FFFFFF;stroke:#263238;stroke-linecap:round;stroke-linejoin:round;stroke-miterlimit:10;" d="
					M381.82,186.104c-4.188-2.317-5.705-7.591-3.387-11.779c0.176-0.319,0.374-0.616,0.583-0.903l-36.092-19.969
					c-0.132,0.329-0.279,0.655-0.455,0.974c-2.317,4.188-7.591,5.705-11.78,3.388c-0.158-0.088-0.305-0.188-0.456-0.283
					l-52.907,96.376c0.161,0.077,0.324,0.148,0.482,0.236c4.189,2.317,5.705,7.591,3.388,11.779
					c-0.176,0.318-0.375,0.616-0.583,0.903l36.091,19.969c0.132-0.329,0.279-0.655,0.455-0.974
					c2.317-4.188,7.591-5.705,11.779-3.388c0.318,0.176,0.616,0.375,0.903,0.583l52.952-96.456
					C382.464,186.427,382.138,186.28,381.82,186.104z M322.564,232.708c-6.865-3.798-9.352-12.443-5.553-19.309
					s12.443-9.352,19.309-5.553c6.865,3.798,9.352,12.443,5.553,19.309C338.074,234.02,329.43,236.507,322.564,232.708z"/>
			</g>
		</g>
		<g>
			<g>
				<polygon style="fill:#D1D1D1;stroke:#263238;stroke-linecap:round;stroke-linejoin:round;stroke-miterlimit:10;" points="
					325.27,301.659 267.83,258.516 354.89,141.999 412.33,185.142 				"/>
				<path style="fill:#FFFFFF;stroke:#263238;stroke-linecap:round;stroke-linejoin:round;stroke-miterlimit:10;" d="
					M396.079,195.174c-3.827-2.875-4.599-8.308-1.725-12.135c0.218-0.291,0.456-0.558,0.702-0.814l-32.981-24.772
					c-0.177,0.308-0.367,0.61-0.585,0.901c-2.875,3.827-8.308,4.6-12.135,1.725c-0.145-0.109-0.276-0.228-0.412-0.344
					l-65.736,88.126c0.149,0.098,0.3,0.192,0.445,0.3c3.827,2.875,4.6,8.308,1.725,12.135c-0.218,0.291-0.456,0.558-0.702,0.813
					l32.98,24.772c0.177-0.308,0.367-0.61,0.586-0.901c2.875-3.827,8.308-4.6,12.135-1.725c0.291,0.219,0.558,0.456,0.813,0.702
					l65.792-88.199C396.673,195.583,396.37,195.392,396.079,195.174z M330.944,233.129c-6.274-4.712-7.539-13.618-2.827-19.891
					c4.712-6.274,13.618-7.54,19.891-2.827c6.274,4.712,7.54,13.618,2.827,19.891C346.123,236.575,337.217,237.841,330.944,233.129z
					"/>
			</g>
		</g>
		<g>
			<g>
				<polygon style="fill:#D1D1D1;stroke:#263238;stroke-linecap:round;stroke-linejoin:round;stroke-miterlimit:10;" points="
					324.121,301.788 272.965,251.354 374.821,147.522 425.977,197.957 				"/>
				<path style="fill:#FFFFFF;stroke:#263238;stroke-linecap:round;stroke-linejoin:round;stroke-miterlimit:10;" d="
					M408.531,205.726c-3.408-3.36-3.447-8.848-0.087-12.257c0.255-0.259,0.527-0.492,0.805-0.712l-29.373-28.958
					c-0.216,0.281-0.445,0.556-0.701,0.815c-3.361,3.409-8.848,3.448-12.257,0.087c-0.129-0.127-0.243-0.263-0.363-0.396
					l-76.927,78.546c0.135,0.118,0.272,0.23,0.401,0.357c3.409,3.36,3.448,8.848,0.087,12.257c-0.255,0.259-0.527,0.492-0.805,0.712
					l29.373,28.958c0.216-0.281,0.445-0.556,0.701-0.815c3.36-3.409,8.848-3.448,12.257-0.087c0.259,0.255,0.492,0.527,0.712,0.805
					l76.992-78.612C409.065,206.21,408.79,205.981,408.531,205.726z M338.906,234.632c-5.587-5.509-5.651-14.503-0.143-20.091
					c5.509-5.587,14.504-5.651,20.091-0.143c5.587,5.508,5.651,14.504,0.143,20.091C353.488,240.076,344.493,240.14,338.906,234.632
					z"/>
			</g>
		</g>
	</g>
</g>
<g id="Passport">
	<g>
		<path style="fill:#A8A8A8;stroke:#263238;stroke-linecap:round;stroke-linejoin:round;stroke-miterlimit:10;" d="M259.067,290.54
			l-91.96,58.458L69.239,194.477l91.96-58.458c3.351-2.13,7.794-1.141,9.924,2.21l90.154,142.387
			C263.407,283.967,262.418,288.41,259.067,290.54z"/>
		<path style="fill:#FFFFFF;stroke:#263238;stroke-linecap:round;stroke-linejoin:round;stroke-miterlimit:10;" d="M256.484,290.641
			l-91.96,58.458L66.656,194.577l91.96-58.458c3.351-2.13,7.794-1.14,9.924,2.21l90.154,142.387
			C260.825,284.067,259.835,288.51,256.484,290.641z"/>
		<path style="fill:#A8A8A8;stroke:#263238;stroke-linecap:round;stroke-linejoin:round;stroke-miterlimit:10;" d="M253.481,292.684
			l-91.96,58.458L63.653,196.621l91.96-58.458c3.351-2.13,7.794-1.14,9.924,2.21l90.154,142.388
			C257.822,286.111,256.832,290.554,253.481,292.684z"/>
		<g>
			<path style="fill:#FFFFFF;" d="M112.814,215.826l-7.069-11.12l2.76-1.754c0.668-0.424,1.278-0.642,1.83-0.653
				c0.552-0.01,1.065,0.155,1.539,0.496c0.474,0.342,0.917,0.837,1.33,1.487c0.372,0.586,0.593,1.159,0.66,1.72
				c0.067,0.561-0.026,1.086-0.281,1.576c-0.254,0.489-0.683,0.926-1.287,1.31l-1.222,0.777l3.29,5.176L112.814,215.826z
				 M110.368,208.553l0.714-0.454c0.448-0.285,0.769-0.559,0.961-0.823c0.193-0.264,0.264-0.556,0.213-0.877
				c-0.05-0.321-0.22-0.711-0.511-1.169c-0.338-0.531-0.636-0.913-0.894-1.147c-0.259-0.234-0.546-0.328-0.863-0.28
				c-0.316,0.047-0.736,0.237-1.258,0.568l-0.728,0.463L110.368,208.553z"/>
			<path style="fill:#FFFFFF;" d="M118.277,212.353l-4.708-12.621l1.496-0.951l9.444,9.61l-1.468,0.933l-2.288-2.478l-2.265,1.44
				l1.245,3.141L118.277,212.353z M117.987,207.044l1.853-1.178l-4.118-4.418L117.987,207.044z"/>
			<path style="fill:#FFFFFF;" d="M128.336,206.132c-0.641,0.407-1.261,0.609-1.861,0.605c-0.6-0.004-1.165-0.178-1.692-0.524
				c-0.528-0.346-1.014-0.827-1.458-1.444l1.138-1.244c0.277,0.376,0.581,0.717,0.909,1.022c0.329,0.305,0.677,0.504,1.046,0.598
				c0.368,0.094,0.748,0.016,1.142-0.235c0.402-0.256,0.636-0.561,0.699-0.917c0.064-0.355-0.038-0.743-0.306-1.164
				c-0.32-0.503-0.692-0.835-1.116-0.996c-0.424-0.161-0.908-0.287-1.453-0.377l-2.915-0.46c-0.57-0.087-1.062-0.266-1.478-0.535
				c-0.415-0.27-0.8-0.683-1.155-1.242c-0.518-0.815-0.686-1.594-0.505-2.339c0.182-0.745,0.675-1.374,1.481-1.886
				c0.44-0.279,0.862-0.467,1.269-0.565c0.407-0.098,0.798-0.099,1.174-0.004c0.375,0.096,0.744,0.282,1.107,0.559
				c0.362,0.277,0.72,0.644,1.075,1.1l-1.091,1.195c-0.261-0.348-0.529-0.65-0.807-0.904c-0.277-0.254-0.578-0.41-0.903-0.466
				c-0.325-0.056-0.68,0.037-1.064,0.281c-0.385,0.245-0.619,0.538-0.703,0.881s0.002,0.715,0.258,1.118
				c0.215,0.339,0.45,0.582,0.704,0.728c0.254,0.147,0.582,0.254,0.983,0.319l2.928,0.452c0.654,0.099,1.302,0.3,1.946,0.604
				c0.643,0.305,1.186,0.805,1.628,1.5c0.349,0.549,0.535,1.096,0.56,1.639c0.024,0.544-0.096,1.048-0.36,1.511
				C129.251,205.403,128.858,205.801,128.336,206.132z"/>
			<path style="fill:#FFFFFF;" d="M134.83,202.004c-0.641,0.407-1.261,0.609-1.861,0.605c-0.6-0.004-1.164-0.178-1.692-0.524
				s-1.014-0.826-1.458-1.444l1.138-1.244c0.277,0.377,0.581,0.717,0.909,1.022c0.329,0.305,0.677,0.504,1.046,0.598
				c0.368,0.094,0.748,0.016,1.142-0.235c0.402-0.256,0.636-0.561,0.699-0.916c0.064-0.355-0.038-0.743-0.306-1.164
				c-0.32-0.504-0.692-0.835-1.116-0.997c-0.424-0.161-0.908-0.287-1.453-0.377l-2.915-0.46c-0.57-0.087-1.062-0.266-1.478-0.535
				c-0.415-0.27-0.8-0.684-1.155-1.242c-0.518-0.815-0.686-1.594-0.505-2.339c0.182-0.745,0.675-1.374,1.481-1.886
				c0.439-0.279,0.862-0.467,1.269-0.565c0.407-0.098,0.798-0.099,1.174-0.004c0.375,0.096,0.744,0.282,1.107,0.559
				c0.362,0.277,0.72,0.644,1.075,1.1l-1.091,1.194c-0.26-0.348-0.529-0.65-0.807-0.904c-0.277-0.254-0.578-0.41-0.903-0.466
				c-0.325-0.056-0.68,0.037-1.064,0.281c-0.385,0.245-0.619,0.538-0.703,0.881c-0.084,0.342,0.002,0.715,0.258,1.118
				c0.215,0.339,0.45,0.582,0.704,0.728c0.254,0.147,0.582,0.254,0.983,0.32l2.928,0.452c0.654,0.099,1.303,0.3,1.946,0.604
				c0.643,0.305,1.186,0.805,1.628,1.5c0.349,0.549,0.535,1.096,0.56,1.639c0.024,0.544-0.096,1.048-0.36,1.511
				C135.745,201.275,135.352,201.673,134.83,202.004z"/>
			<path style="fill:#FFFFFF;" d="M138.623,199.42l-7.069-11.12l2.76-1.754c0.668-0.424,1.278-0.642,1.83-0.653
				c0.552-0.01,1.065,0.155,1.539,0.496c0.474,0.342,0.917,0.837,1.33,1.487c0.372,0.586,0.593,1.159,0.66,1.72
				c0.067,0.561-0.026,1.086-0.281,1.576c-0.254,0.489-0.683,0.926-1.287,1.31l-1.222,0.777l3.29,5.175L138.623,199.42z
				 M136.177,192.146l0.714-0.454c0.448-0.285,0.769-0.559,0.961-0.823c0.193-0.264,0.264-0.556,0.213-0.877
				c-0.05-0.321-0.22-0.711-0.511-1.169c-0.337-0.531-0.636-0.913-0.894-1.147c-0.259-0.234-0.546-0.327-0.863-0.28
				c-0.316,0.047-0.736,0.237-1.258,0.568l-0.727,0.463L136.177,192.146z"/>
			<path style="fill:#FFFFFF;" d="M148.133,193.548c-0.75,0.477-1.443,0.712-2.077,0.704c-0.635-0.007-1.222-0.223-1.76-0.645
				c-0.538-0.423-1.04-1-1.506-1.732l-2.679-4.214c-0.465-0.732-0.767-1.424-0.905-2.075c-0.138-0.651-0.074-1.258,0.193-1.819
				c0.267-0.561,0.775-1.081,1.525-1.557c0.75-0.477,1.436-0.713,2.056-0.709c0.62,0.004,1.193,0.205,1.722,0.602
				c0.528,0.396,1.025,0.961,1.49,1.693l2.688,4.228c0.46,0.723,0.763,1.417,0.91,2.082c0.146,0.665,0.095,1.286-0.156,1.863
				C149.383,192.544,148.883,193.071,148.133,193.548z M147.356,192.326c0.412-0.262,0.67-0.544,0.772-0.848
				c0.103-0.303,0.094-0.631-0.028-0.984c-0.122-0.353-0.314-0.735-0.576-1.148l-3.098-4.873c-0.262-0.412-0.524-0.743-0.786-0.994
				c-0.262-0.251-0.549-0.39-0.862-0.416c-0.312-0.026-0.675,0.092-1.086,0.353c-0.412,0.262-0.674,0.541-0.788,0.838
				c-0.113,0.297-0.112,0.617,0.004,0.961c0.115,0.344,0.304,0.722,0.566,1.134l3.098,4.874c0.262,0.412,0.527,0.748,0.796,1.008
				c0.268,0.26,0.563,0.406,0.886,0.439C146.577,192.703,146.944,192.588,147.356,192.326z"/>
			<path style="fill:#FFFFFF;" d="M152.612,190.527l-7.069-11.12l2.238-1.422c0.741-0.471,1.417-0.762,2.027-0.874
				c0.61-0.111,1.171-0.024,1.68,0.262c0.51,0.287,0.988,0.783,1.436,1.487c0.274,0.43,0.477,0.85,0.61,1.261
				c0.132,0.411,0.175,0.801,0.128,1.171c-0.048,0.371-0.2,0.716-0.46,1.035l5.122,4.57l-1.496,0.951l-4.772-4.292l-1.209,0.768
				l3.316,5.217L152.612,190.527z M150.14,183.213l0.591-0.376c0.439-0.279,0.761-0.561,0.966-0.845
				c0.205-0.284,0.287-0.6,0.246-0.947c-0.041-0.347-0.212-0.758-0.515-1.234c-0.413-0.65-0.83-1.043-1.251-1.18
				c-0.422-0.136-0.984,0.019-1.689,0.467l-0.687,0.436L150.14,183.213z"/>
			<path style="fill:#FFFFFF;" d="M160.959,185.221l-6.336-9.967l-1.881,1.195l-0.733-1.153l5.257-3.342l0.733,1.153l-1.826,1.161
				l6.336,9.967L160.959,185.221z"/>
		</g>
		<g>
			
				<ellipse transform="matrix(0.2271 -0.9739 0.9739 0.2271 -111.0613 353.0168)" style="fill:none;stroke:#FFFFFF;stroke-miterlimit:10;" cx="166.884" cy="246.481" rx="34.847" ry="34.847"/>
			
				<ellipse transform="matrix(0.8439 -0.5365 0.5365 0.8439 -106.1829 127.9999)" style="fill:none;stroke:#FFFFFF;stroke-miterlimit:10;" cx="166.884" cy="246.481" rx="14.938" ry="34.847"/>
			<line style="fill:none;stroke:#FFFFFF;stroke-miterlimit:10;" x1="135.718" y1="231.33" x2="166.571" y2="211.717"/>
			<line style="fill:none;stroke:#FFFFFF;stroke-miterlimit:10;" x1="132.246" y1="251.21" x2="186.044" y2="217.01"/>
			<line style="fill:none;stroke:#FFFFFF;stroke-miterlimit:10;" x1="147.894" y1="275.825" x2="201.692" y2="241.626"/>
			<line style="fill:none;stroke:#FFFFFF;stroke-miterlimit:10;" x1="137.401" y1="265.223" x2="196.546" y2="227.626"/>
			<line style="fill:none;stroke:#FFFFFF;stroke-miterlimit:10;" x1="167.651" y1="281.564" x2="198.504" y2="261.951"/>
		</g>
	</g>
</g>
<g id="Earth_Globe">
	<g>
		<g>
			
				<ellipse transform="matrix(0.7071 -0.7071 0.7071 0.7071 -180.709 282.22)" style="fill:#92E3A9;stroke:#263238;stroke-linecap:round;stroke-linejoin:round;stroke-miterlimit:10;" cx="250.315" cy="359.245" rx="111.676" ry="111.677"/>
			<g>
				<path style="fill:none;stroke:#263238;stroke-linecap:round;stroke-linejoin:round;stroke-miterlimit:10;" d="M227.891,462.568
					c5.937,1.292,12.024,2.079,18.204,2.322"/>
				<path style="fill:none;stroke:#263238;stroke-linecap:round;stroke-linejoin:round;stroke-miterlimit:10;" d="M214.201,458.602
					c3.026,1.103,6.109,2.071,9.239,2.896"/>
				<path style="fill:none;stroke:#263238;stroke-linecap:round;stroke-linejoin:round;stroke-miterlimit:10;" d="M148.626,330.317
					c-4.668,16.355-5.447,34.073-1.5,51.844c7.806,35.148,32.273,62.29,63.25,74.962"/>
				<path style="fill:none;stroke:#263238;stroke-linecap:round;stroke-linejoin:round;stroke-miterlimit:10;" d="M162.839,299.905
					c-3.813,5.624-7.086,11.61-9.763,17.873"/>
			</g>
			<g>
				<defs>
					<polygon id="SVGID_1_" points="235.186,309.645 246.57,312.004 250.451,316.029 255.511,316.806 257.12,321.607 
						255.94,324.856 252.491,326.436 244.039,325.055 243.809,324.02 247.805,321.232 245.046,316.143 237.486,315.107 
						233.461,311.657 					"/>
				</defs>
				<defs>
					<path id="SVGID_00000148652071152939279360000003775867652382780602_" d="M326.936,414.705l-9.027-1.525l-10.896-1.382
						l-8.021,1.781l-7.848,0.114l-7.877,3.65l-4.6,1.293l-2.847,0.632l-4.744,4.312l-4.715,3.219l-7.963-2.847l0.203-7.647
						l-4.801-0.835l-5.175,1.149l-1.293-2.156l-0.517-4.772l-2.386-2.185l-3.507,1.322l-0.46,2.817l-4.341,1.236l-4.915-3.795
						l-2.931-5.865l2.272-8.107l7.618-1.149l2.472,1.352l3.105-0.69l3.364-3.191l3.593,0.288l6.439,6.987l1.754-0.661l-1.839-5.836
						l-2.242-2.76l-0.574-5.031l8.654-6.266l-0.832-9.861l3.393-4.283l2.043-6.698l2.472-1.092l5.089-5.203l-0.201-2.128
						l-4.082,1.178l-1.236-1.898l-2.846,0.632l-4.169,2.012l1.323-3.823l8.482-4.599l1.553-2.789l4.886,4.888l2.846,1.811
						l3.393-1.839l-2.299-3.019l-6.296-2.675l-7.761-5.607l-7.445-2.962l-6.44,0.344l-3.794-2.415l-4.37-0.116l-0.288,1.15
						l1.149,7.619l1.609,2.357l-0.49,8.797l-6.094-2.991l-0.028-3.795l-6.008-1.381l-2.961-2.329l-0.143-6.756l6.297-7.1
						l-0.862-6.325l-2.789,0.891l-2.328-1.927l-1.638-3.709l-1.869,0.143l-0.116,4.37l-2.731,1.15l-3.305-8.769l-2.357-0.834
						l-3.967-0.748l-3.68,2.99l6.267,3.767l2.012,4.169l-10.866-4.917l-8.02-5.55l-2.069-6.871l-7.187-0.576l-4.428,4.513
						c0,0-2.243,2.127-3.422,2.932c-1.179,0.805-5.98,2.414-5.98,2.414l-0.058,4.628l-5.894,1.58l1.15,2.731l9.918-0.574
						l6.123,4.342l2.011,9.056l-1.065,8.653l2.414,8.424l-4.429,14.287l2.642,19.233l4.742,10.35l5.202,7.533l3.996-0.345
						l-2.213-3.853l-2.759-2.646l-2.558-5.405l2.214-1.035l5.691,8.51l4.426,7.705l1.494,6.727l6.238,4.86l10.234,4.515
						l14.259,0.634l5.002,2.962l4.024,3.45l5.29,1.812l6.037,0.288l5.635-1.523c0,0,0.316,2.645,0.603,3.938
						c0.287,1.294-2.358,6.497-2.358,6.497l-1.697,5.807l3.334,5.233l6.21,1.064l9.86,6.499l3.967,0.748l0.862,3.881l0.853,1.707
						c19.852-7.893,36.493-21.12,48.594-37.599l-0.282-1.906l4.17-14.23l-3.881-1.582L326.936,414.705z"/>
				</defs>
				<defs>
					<path id="SVGID_00000093898502567417274730000002098511714941954479_" d="M331.149,306.525l-3.938-4.284l-4.887-4.888
						l-2.759-7.533l4.83-0.258l-0.316-2.645l-3.421,0.488l2.559-1.926l2.702-2.501l-0.575-2.587l-4.024-3.451l-1.9-5.421
						c-25.42-20.001-59.277-28.855-93.317-21.296c-15.474,3.436-29.473,9.935-41.516,18.709l6.905,2.901l-2.588,5.462l-4.687,2.127
						l1.034,7.101l-1.898,1.236l-1.955,3.421l1.293,4.6l4.514-0.459l-0.834,4.801l4.399-0.977l5.378-11.24l-0.143-4.312l7.13-2.126
						l1.122-3.507l7.331-2.443l-0.201-4.571l5.376-1.466c0,0,3.421-2.932,4.198-3.104c0.776-0.172,4.686,0.317,4.686,0.317
						l4.571,2.243l5.434-1.207l4.025-3.88l6.066-0.804c0,0,1.782,0.69,3.076,0.403c1.294-0.287,4.773-2.96,4.773-2.96l8.538,2.991
						l3.622,1.639l0.862,3.881l3.996-0.344l0.777-2.616l3.708,0.805l0.201,2.127l-7.303,3.794l5.663,4.716l10.464,3.106l5.03,4.313
						l5.807-0.747l0.719-2.875l1.955-0.977l-7.877-3.681l-4.255,0.402l3.134-1.782l-4.082-3.709l4.341-1.236l6.382,1.841
						l2.673,5.923l3.593,2.732l3.995,6.986l6.612,2.876l1.896,8.539l6.813,2.56l0.373,2.903l-0.029,3.536l2.587,4.313l1.034,2.214
						l4.571-0.201l1.093-4.858L331.149,306.525z"/>
				</defs>
				<defs>
					<path id="SVGID_00000106867735596576675060000007913735962329675942_" d="M328.724,279.712l0.33,1.486l-0.374,4.427l1.581,3.45
						l3.076,0.403l1.092,4.916l-3.392-0.604l2.327,14.145l-1.841,6.382l3.679,6.785l4.053,2.358l3.103,13.972l5.777,10.12
						l5.461,7.475l6.296,0.231l0.921-5.634l0.697-0.847c-0.436-4.564-1.153-9.151-2.172-13.741
						C354.489,313.207,343.556,294.307,328.724,279.712z"/>
				</defs>
				<defs>
					<polygon id="SVGID_00000134224735420973431310000017035826955234790282_" points="268.595,291.366 249.851,287.654 
						242.405,289.579 241.686,294.898 237.834,292.224 232.429,294.782 233.807,303.435 239.212,305.764 241.484,300.101 
						246.227,303.121 255.799,308.325 259.018,315.484 267.641,322.529 278.107,318.304 276.986,314.48 273.681,310.599 
						270.864,300.364 272.475,295.391 					"/>
				</defs>
				<defs>
					<polygon id="SVGID_00000120560505373318547260000013312347796552412582_" points="283.831,293.955 279.72,293.782 
						276.988,297.375 280.466,304.477 283.829,303.729 					"/>
				</defs>
				<defs>
					<polygon id="SVGID_00000019663665541707636410000000498702014179770249_" points="308.986,293.527 299.154,290.823 
						296.653,288.121 294.756,289.357 297.716,294.129 300.763,300.512 304.989,301.202 305.535,299.996 302.344,296.631 
						309.646,297.725 					"/>
				</defs>
				<defs>
					<polygon id="SVGID_00000075847297365687244180000001626381921617876368_" points="254.176,403.712 253.371,404.977 
						261.65,405.582 265.559,408.515 270.591,407.941 271.77,404.692 265.589,404.979 					"/>
				</defs>
				<defs>
					<polygon id="SVGID_00000183929050792009168050000011026369765740650684_" points="278.296,403.515 273.207,406.274 
						274.443,408.171 281.17,406.677 282.004,404.32 279.733,405.096 					"/>
				</defs>
				<use xlink:href="#SVGID_1_"  style="overflow:visible;fill:#FFFFFF;"/>
				<use xlink:href="#SVGID_00000148652071152939279360000003775867652382780602_"  style="overflow:visible;fill:#FFFFFF;"/>
				<use xlink:href="#SVGID_00000093898502567417274730000002098511714941954479_"  style="overflow:visible;fill:#FFFFFF;"/>
				<use xlink:href="#SVGID_00000106867735596576675060000007913735962329675942_"  style="overflow:visible;fill:#FFFFFF;"/>
				<use xlink:href="#SVGID_00000134224735420973431310000017035826955234790282_"  style="overflow:visible;fill:#FFFFFF;"/>
				<use xlink:href="#SVGID_00000120560505373318547260000013312347796552412582_"  style="overflow:visible;fill:#FFFFFF;"/>
				<use xlink:href="#SVGID_00000019663665541707636410000000498702014179770249_"  style="overflow:visible;fill:#FFFFFF;"/>
				<use xlink:href="#SVGID_00000075847297365687244180000001626381921617876368_"  style="overflow:visible;fill:#FFFFFF;"/>
				<use xlink:href="#SVGID_00000183929050792009168050000011026369765740650684_"  style="overflow:visible;fill:#FFFFFF;"/>
				<clipPath id="SVGID_00000164504876230639801130000006545715908342849454_">
					<use xlink:href="#SVGID_1_"  style="overflow:visible;"/>
				</clipPath>
				
					<clipPath id="SVGID_00000046303920802384343980000006329282157771000999_" style="clip-path:url(#SVGID_00000164504876230639801130000006545715908342849454_);">
					<use xlink:href="#SVGID_00000148652071152939279360000003775867652382780602_"  style="overflow:visible;"/>
				</clipPath>
				
					<clipPath id="SVGID_00000044179544707052738260000015360747946089062828_" style="clip-path:url(#SVGID_00000046303920802384343980000006329282157771000999_);">
					<use xlink:href="#SVGID_00000093898502567417274730000002098511714941954479_"  style="overflow:visible;"/>
				</clipPath>
				
					<clipPath id="SVGID_00000004540728431527140310000005056403719461590926_" style="clip-path:url(#SVGID_00000044179544707052738260000015360747946089062828_);">
					<use xlink:href="#SVGID_00000106867735596576675060000007913735962329675942_"  style="overflow:visible;"/>
				</clipPath>
				
					<clipPath id="SVGID_00000107587237253737397780000014144716208758658452_" style="clip-path:url(#SVGID_00000004540728431527140310000005056403719461590926_);">
					<use xlink:href="#SVGID_00000134224735420973431310000017035826955234790282_"  style="overflow:visible;"/>
				</clipPath>
				
					<clipPath id="SVGID_00000058590431307510991740000013686883324190970805_" style="clip-path:url(#SVGID_00000107587237253737397780000014144716208758658452_);">
					<use xlink:href="#SVGID_00000120560505373318547260000013312347796552412582_"  style="overflow:visible;"/>
				</clipPath>
				
					<clipPath id="SVGID_00000174562580413753548690000004316886031082079674_" style="clip-path:url(#SVGID_00000058590431307510991740000013686883324190970805_);">
					<use xlink:href="#SVGID_00000019663665541707636410000000498702014179770249_"  style="overflow:visible;"/>
				</clipPath>
				
					<clipPath id="SVGID_00000155843045960386464740000017338325288032580272_" style="clip-path:url(#SVGID_00000174562580413753548690000004316886031082079674_);">
					<use xlink:href="#SVGID_00000075847297365687244180000001626381921617876368_"  style="overflow:visible;"/>
				</clipPath>
				
					<clipPath id="SVGID_00000012431407644209030690000004974537126803822247_" style="clip-path:url(#SVGID_00000155843045960386464740000017338325288032580272_);">
					<use xlink:href="#SVGID_00000183929050792009168050000011026369765740650684_"  style="overflow:visible;"/>
				</clipPath>
				
					<use xlink:href="#SVGID_1_"  style="overflow:visible;fill:none;stroke:#263238;stroke-linecap:round;stroke-linejoin:round;stroke-miterlimit:10;"/>
				
					<use xlink:href="#SVGID_00000148652071152939279360000003775867652382780602_"  style="overflow:visible;fill:none;stroke:#263238;stroke-linecap:round;stroke-linejoin:round;stroke-miterlimit:10;"/>
				
					<use xlink:href="#SVGID_00000093898502567417274730000002098511714941954479_"  style="overflow:visible;fill:none;stroke:#263238;stroke-linecap:round;stroke-linejoin:round;stroke-miterlimit:10;"/>
				
					<use xlink:href="#SVGID_00000106867735596576675060000007913735962329675942_"  style="overflow:visible;fill:none;stroke:#263238;stroke-linecap:round;stroke-linejoin:round;stroke-miterlimit:10;"/>
				
					<use xlink:href="#SVGID_00000134224735420973431310000017035826955234790282_"  style="overflow:visible;fill:none;stroke:#263238;stroke-linecap:round;stroke-linejoin:round;stroke-miterlimit:10;"/>
				
					<use xlink:href="#SVGID_00000120560505373318547260000013312347796552412582_"  style="overflow:visible;fill:none;stroke:#263238;stroke-linecap:round;stroke-linejoin:round;stroke-miterlimit:10;"/>
				
					<use xlink:href="#SVGID_00000019663665541707636410000000498702014179770249_"  style="overflow:visible;fill:none;stroke:#263238;stroke-linecap:round;stroke-linejoin:round;stroke-miterlimit:10;"/>
				
					<use xlink:href="#SVGID_00000075847297365687244180000001626381921617876368_"  style="overflow:visible;fill:none;stroke:#263238;stroke-linecap:round;stroke-linejoin:round;stroke-miterlimit:10;"/>
				
					<use xlink:href="#SVGID_00000183929050792009168050000011026369765740650684_"  style="overflow:visible;fill:none;stroke:#263238;stroke-linecap:round;stroke-linejoin:round;stroke-miterlimit:10;"/>
			</g>
		</g>
	</g>
</g>
<g id="Ubication_Icons">
	<g>
		<path style="fill:#263238;stroke:#263238;stroke-miterlimit:10;" d="M354.223,283.508c-8.54,0-15.464,6.923-15.464,15.464
			c0,8.54,15.464,25.773,15.464,25.773s15.464-17.232,15.464-25.773C369.687,290.432,362.764,283.508,354.223,283.508z
			 M354.223,305.78c-3.76,0-6.808-3.048-6.808-6.808c0-3.76,3.048-6.808,6.808-6.808s6.808,3.048,6.808,6.808
			C361.031,302.732,357.983,305.78,354.223,305.78z"/>
		<path style="fill:#263238;stroke:#263238;stroke-miterlimit:10;" d="M234.247,323.2c-7.449,0-13.488,6.039-13.488,13.488
			c0,7.449,13.488,22.48,13.488,22.48s13.488-15.031,13.488-22.48C247.736,329.239,241.697,323.2,234.247,323.2z M234.247,342.626
			c-3.279,0-5.938-2.659-5.938-5.938c0-3.28,2.659-5.938,5.938-5.938c3.279,0,5.938,2.659,5.938,5.938
			C240.186,339.967,237.527,342.626,234.247,342.626z"/>
		<path style="fill:#263238;stroke:#263238;stroke-miterlimit:10;" d="M285.257,428.398c-3.747,0-6.785,3.038-6.785,6.785
			s6.785,11.309,6.785,11.309s6.785-7.561,6.785-11.309S289.004,428.398,285.257,428.398z M285.257,438.17
			c-1.65,0-2.987-1.337-2.987-2.987c0-1.65,1.337-2.987,2.987-2.987c1.65,0,2.987,1.337,2.987,2.987
			C288.244,436.833,286.906,438.17,285.257,438.17z"/>
		<path style="fill:#263238;stroke:#263238;stroke-miterlimit:10;" d="M200.884,365.753c-3.747,0-6.785,3.038-6.785,6.785
			c0,3.747,6.785,11.309,6.785,11.309s6.785-7.561,6.785-11.309C207.669,368.791,204.632,365.753,200.884,365.753z M200.884,375.525
			c-1.65,0-2.987-1.337-2.987-2.987c0-1.65,1.337-2.987,2.987-2.987c1.65,0,2.987,1.337,2.987,2.987
			C203.871,374.188,202.534,375.525,200.884,375.525z"/>
		<path style="fill:#263238;stroke:#263238;stroke-miterlimit:10;" d="M224.882,394.313c-3.747,0-6.785,3.038-6.785,6.785
			c0,3.747,6.785,11.309,6.785,11.309s6.785-7.561,6.785-11.309C231.668,397.351,228.63,394.313,224.882,394.313z M224.882,404.085
			c-1.65,0-2.987-1.337-2.987-2.987c0-1.65,1.337-2.987,2.987-2.987c1.65,0,2.987,1.337,2.987,2.987
			C227.869,402.748,226.532,404.085,224.882,404.085z"/>
		<path style="fill:#263238;stroke:#263238;stroke-miterlimit:10;" d="M309.169,407.132c-4.443,0-8.045,3.602-8.045,8.045
			c0,4.443,8.045,13.408,8.045,13.408s8.045-8.965,8.045-13.408C317.214,410.733,313.612,407.132,309.169,407.132z M309.169,418.718
			c-1.956,0-3.542-1.586-3.542-3.542c0-1.956,1.586-3.542,3.542-3.542c1.956,0,3.542,1.586,3.542,3.542
			C312.711,417.133,311.125,418.718,309.169,418.718z"/>
		<path style="fill:#263238;stroke:#263238;stroke-miterlimit:10;" d="M308.584,253.316c-3.946,0-7.146,3.199-7.146,7.146
			c0,3.947,7.146,11.91,7.146,11.91s7.146-7.963,7.146-11.91C315.729,256.515,312.53,253.316,308.584,253.316z M308.584,263.607
			c-1.737,0-3.146-1.408-3.146-3.146c0-1.737,1.408-3.146,3.146-3.146c1.737,0,3.146,1.408,3.146,3.146
			C311.729,262.199,310.321,263.607,308.584,263.607z"/>
		<path style="fill:#263238;stroke:#263238;stroke-miterlimit:10;" d="M186.285,297.995c-3.947,0-7.146,3.199-7.146,7.146
			c0,3.946,7.146,11.91,7.146,11.91s7.146-7.963,7.146-11.91C193.431,301.194,190.232,297.995,186.285,297.995z M186.285,308.287
			c-1.737,0-3.146-1.408-3.146-3.146s1.408-3.146,3.146-3.146c1.737,0,3.146,1.409,3.146,3.146S188.023,308.287,186.285,308.287z"/>
	</g>
</g>
<g id="Character">
	<g>
		<path style="fill:#263238;stroke:#263238;stroke-miterlimit:10;" d="M271.063,144.132c0,0-0.62,56.294-0.62,65.599
			s-0.775,18.3-0.775,18.3s2.792,2.016,2.326,4.342c-0.465,2.326-2.171,5.738-2.171,5.738s-2.171-0.465-3.257-0.155
			c-1.086,0.31-7.599,3.257-8.685,3.257c-1.086,0-1.551,0.93-1.861-2.016c-0.31-2.947-0.465-4.963-0.31-7.909
			s1.086-6.979,1.086-6.979l-6.513-71.182l-1.551,69.321c0,0,0.31,4.187,0.775,4.963c0.465,0.775,1.241,2.791,1.241,3.567
			c0,0.775-1.396,8.064-2.016,8.374c-0.62,0.31-2.481,1.396-2.481,1.396s-1.241-0.31-2.946-2.481
			c-1.706-2.171-5.738-2.016-6.513-1.706c-0.775,0.31-0.775,0.31-0.775,0.31s-2.326-2.791-2.792-4.808
			c-0.465-2.016,2.636-2.171,2.481-7.599c-0.155-5.428-4.808-51.487-4.808-51.487l-1.086-31.016l41.562-1.241L271.063,144.132z"/>
		<path style="fill:#FFFFFF;stroke:#263238;stroke-miterlimit:10;" d="M254.779,72.174l-16.594,1.086l-0.62,70.872
			c0,0,1.241,1.086,11.476,1.241c10.235,0.155,12.407-1.086,12.407-1.086L254.779,72.174z"/>
		<path style="fill:#FFFFFF;stroke:#263238;stroke-miterlimit:10;" d="M253.756,37.273c0,0,4.059,5.726,3.987,6.596
			c-0.072,0.87-0.507,2.537-0.507,2.537s4.422,4.567,3.987,4.929c-0.435,0.362-2.465,2.102-2.465,2.102s0.073,4.277,0.073,4.929
			c0,0.652,0.942,2.319,0.652,2.972c-0.29,0.652-0.87,1.595-1.377,2.03c-0.507,0.435-4.204,0.362-4.204,0.362l-0.072,5.871
			c0,0,0.652,3.697,0.072,5.001c-0.58,1.305-2.247,2.32-6.451,2.537c-4.204,0.217-6.252-1.212-7.484-2.226
			c-1.232-1.015-1.069-10.386-1.142-11.836c-0.072-1.45-0.145-4.204-0.942-5.437c-0.797-1.232-6.016-10.003-6.886-12.178
			c-0.87-2.175-0.942-4.422,0.725-6.379c1.667-1.957,3.769-2.827,3.987-3.914c0.217-1.087,0-2.175,1.595-2.682
			c1.595-0.507,3.552-0.217,3.552-0.217s3.044-3.697,4.639-3.262c1.595,0.435,1.595,0.435,1.595,0.435s4.422-1.232,6.741,0.725
			C256.148,32.127,256.655,35.244,253.756,37.273z"/>
		<path style="fill:#263238;stroke:#263238;stroke-miterlimit:10;" d="M254.589,47.516c0,0.926,0.286,1.677,0.639,1.677
			s0.639-0.751,0.639-1.677s-0.286-1.677-0.639-1.677S254.589,46.59,254.589,47.516z"/>
		<path style="fill:#263238;stroke:#263238;stroke-miterlimit:10;" d="M235.707,35.171c0.217-1.087,0-2.174,1.595-2.682
			c1.595-0.507,3.552-0.217,3.552-0.217s3.044-3.697,4.639-3.262c1.595,0.435,1.595,0.435,1.595,0.435s4.422-1.232,6.741,0.725
			c2.319,1.957,2.827,5.074-0.073,7.104c0,0-7.973,0.87-7.031,2.32c0.942,1.45,1.45,2.61,0.652,3.044
			c-0.797,0.435-4.422,2.247-4.059,3.117c0.363,0.87,0.725,3.189,0.217,3.334c-0.507,0.145-0.435-0.145-1.957-1.305
			c-1.522-1.16-3.334-0.29-3.552,2.03c-0.217,2.32,1.667,3.769,2.465,3.914c0.797,0.145,0.362,2.972-1.16,4.059
			c-0.303,0.217-0.689,0.406-1.124,0.567c-0.094-0.266-0.198-0.513-0.326-0.712c-0.797-1.232-6.016-10.003-6.886-12.178
			c-0.87-2.175-0.942-4.422,0.725-6.379C233.387,37.129,235.489,36.259,235.707,35.171z"/>
		<path style="fill:none;stroke:#263238;stroke-miterlimit:10;" d="M258.033,55.685c0,0-3.262,0.58-5.146-1.74"/>
		<polygon style="fill:#263238;stroke:#263238;stroke-miterlimit:10;" points="253.901,63.731 247.232,61.629 253.756,68.225 		"/>
		<path style="fill:none;stroke:#263238;stroke-miterlimit:10;" d="M256.146,43.833c0,0-2.352-1.298-3.731,0.649"/>
		<path style="fill:#263238;stroke:#263238;stroke-miterlimit:10;" d="M271.613,99.167c0,0,9.049,15.163,9.293,18.098
			c0.245,2.935-4.769,12.962-6.236,13.329c-1.467,0.367-5.625-4.402-6.114-6.359c-0.489-1.956-1.223-24.089-0.367-26.046
			C269.045,96.232,271.613,99.167,271.613,99.167z"/>
		<path style="fill:#92E3A9;stroke:#263238;stroke-miterlimit:10;" d="M256.6,71.967l8.675,0.667c0,0,4.782-1.112,6.228-0.667
			c1.446,0.445,21.91,8.341,24.134,9.898c2.224,1.557,1.891,7.229,1.335,9.565c-0.556,2.336-2.558,2.892-3.559,3.003
			c-1.001,0.111-21.687-1.223-21.687-1.223l5.338,54.162l-11.122,3.67l-7.896,1.001l-3.893-67.508L256.6,71.967z"/>
		<path style="fill:#92E3A9;stroke:#263238;stroke-miterlimit:10;" d="M253.756,68.225l2.845,3.742c0,0,0.334,5.672-0.445,8.007
			c-0.779,2.336-2.002,4.56-2.002,4.56l-3.559-8.23C250.595,76.305,253.247,72.045,253.756,68.225z"/>
		<path style="fill:#92E3A9;stroke:#263238;stroke-miterlimit:10;" d="M240.029,86.648l1.014,65.589c0,0-9.782-1.1-12.962-2.446
			c-3.179-1.345-5.38-2.568-5.38-2.568s3.179-23.967,3.302-25.924c0.122-1.956,0.122-3.546,0.122-3.546s-7.215,2.568-9.905,1.712
			c-2.69-0.856-3.057-3.668-2.813-7.215c0.245-3.546,0.067-5.288,0.067-5.899c0-0.611,0.731-10.745,3.665-18.327
			c2.935-7.581,1.159-7.812,3.238-9.157c2.079-1.345,17.242-6.726,17.242-6.726l1.712,3.546L240.029,86.648z"/>
		<path style="fill:#263238;stroke:#263238;stroke-miterlimit:10;" d="M228.448,75.811c0,0,2.201,25.924-0.367,34.483l-4.035,0.122
			c0.256,2.96,2.079-2.323,2.568-18.587c0.21-6.967-2.935-14.429-2.935-14.429S226.614,76.178,228.448,75.811z"/>
		<path style="fill:#92E3A9;stroke:#263238;stroke-miterlimit:10;" d="M239.139,68.631c0,0,1.446,3.67,2.335,5.561
			c0.89,1.891,1.557,3.114,1.557,3.114l-3.003,9.342c0,0-2.335-6.45-2.78-10.677c-0.445-4.226-0.853-3.583-0.853-3.583
			S238.361,67.852,239.139,68.631z"/>
		<path style="fill:#FFFFFF;stroke:#263238;stroke-miterlimit:10;" d="M269.279,56.397c0,0-1.891-0.667-2.558-1.223
			s-2.002-2.669-2.447-3.114c-0.445-0.445-2.657,0.332-3.052-0.724c-0.395-1.056-0.607-2.128,0.722-1.814
			c1.329,0.314,3.947,0.42,3.947,0.42l-2.088-6.835l9.591,0.055c0,0,2.78,9.453,2.78,10.232c0,0.778-0.445,2.558-0.445,2.558
			s13.124,14.681,15.904,18.351c2.78,3.67,6.228,8.675,6.562,10.566c0.334,1.891-0.667,7.896-3.003,8.675
			c-2.336,0.779-4.449-0.111-6.895-2.447c-2.447-2.336-9.787-17.35-10.121-17.906c-0.334-0.556-6.006-14.569-6.339-15.014
			C271.503,57.732,269.279,56.397,269.279,56.397z"/>
		<path style="fill:#263238;stroke:#263238;stroke-miterlimit:10;" d="M264.398,72.754c0,0,2.812,18.342,5.869,27.391
			s5.625,14.796,5.625,14.796l-1.345,7.948c0,0-5.014-8.682-9.171-20.421c-4.158-11.739-6.481-30.081-6.481-30.081L264.398,72.754z"
			/>
		<polygon style="fill:#FFFFFF;stroke:#263238;stroke-miterlimit:10;" points="239.918,90.335 243.225,119.622 224.397,117.388 
			219.485,88.198 		"/>
		<polygon style="fill:#FFFFFF;stroke:#263238;stroke-miterlimit:10;" points="237.497,90.485 243.488,119.343 224.535,118.854 
			216.953,90.241 		"/>
		<path style="fill:#FFFFFF;stroke:#263238;stroke-miterlimit:10;" d="M219.154,107.115c0,0,4.035,2.201,6.359,3.057
			c2.323,0.856,4.28,0.611,6.114-0.245c1.834-0.856,2.813-2.079,2.813-2.079s0.611-3.302,1.345-3.791
			c0.734-0.489,2.446-0.856,3.179-1.956c0.734-1.101,1.101-0.978,1.345,0.122c0.244,1.101,0.489,2.323-0.245,2.812
			s-0.856,1.223-0.856,1.223s0.122,0.856,1.101,0.489c0.978-0.367,1.59-1.59,2.568-1.223c0.978,0.367,1.345,1.101,0.978,1.957
			c-0.367,0.856-0.978,1.712-0.978,1.712s1.223,2.812,0.611,4.647c-0.611,1.834-3.669,2.935-5.136,3.057
			c-1.467,0.122-5.625,0.245-5.625,0.245s-5.992,1.956-9.66,3.057c-3.668,1.1-4.769,0.856-6.848-0.734
			c-2.079-1.59-3.057-4.28-2.201-7.215C214.875,109.316,215.853,107.727,219.154,107.115z"/>
		<g>
			<path style="fill:#FFFFFF;stroke:#263238;stroke-miterlimit:10;" d="M268.891,235.785c0,0,2.016,4.808,2.481,5.738
				c0.465,0.93,1.861,2.636,4.187,4.032c2.326,1.396,5.118,2.326,4.497,3.567c-0.62,1.241-3.412,1.551-5.738,1.861
				c-2.326,0.31-7.754-0.62-9.925-0.62c-2.171,0-6.979-0.775-7.444-1.861c-0.465-1.086,0.155-8.84,0.155-8.84
				S260.672,235.63,268.891,235.785z"/>
			<path style="fill:#FFFFFF;stroke:#263238;stroke-miterlimit:10;" d="M256.95,248.502c-0.146-0.34-0.185-1.335-0.17-2.54
				l5.585,1.658c0,0,5.851,1.489,10.426,1.702c3.369,0.157,5.982-0.666,7.129-1.111c0.228,0.292,0.298,0.591,0.137,0.911
				c-0.62,1.241-3.412,1.551-5.738,1.861s-7.754-0.62-9.925-0.62C262.223,250.363,257.415,249.587,256.95,248.502z"/>
		</g>
		<g>
			<path style="fill:#FFFFFF;stroke:#263238;stroke-miterlimit:10;" d="M246.726,240.043c0,0-0.453,8.035-0.566,8.578
				c-0.113,0.543-0.679,0.977-2.263,1.194c-1.584,0.217-2.263,0.109-3.169,0.543c-0.905,0.434-2.829,1.411-8.261,1.411
				c-5.432,0-7.13-0.977-6.451-2.932s5.885-5.755,7.13-7.275c1.245-1.52,2.638-4.782,2.638-4.782s1.549-1.299,4.605-0.647
				c3.055,0.652,3.848,1.846,4.187,2.389C244.916,239.066,246.726,240.043,246.726,240.043z"/>
			<path style="fill:#FFFFFF;stroke:#263238;stroke-miterlimit:10;" d="M226.016,248.838c0.04-0.116,0.099-0.24,0.17-0.369
				c0.404,0.433,0.994,0.927,1.867,1.346c2.037,0.977,10.072,0.434,11.883-0.543c1.539-0.831,5.277-1.972,6.366-2.297
				c-0.061,0.868-0.112,1.505-0.141,1.645c-0.113,0.543-0.679,0.977-2.263,1.194c-1.584,0.217-2.263,0.109-3.169,0.543
				c-0.905,0.434-2.829,1.411-8.261,1.411C227.035,251.769,225.337,250.792,226.016,248.838z"/>
		</g>
		<g>
			<path style="fill:#FFFFFF;stroke:#263238;stroke-miterlimit:10;" d="M261.302,44.641l7.399-0.488v5.788l-7.399-0.488
				c-0.353,0-0.639-1.077-0.639-2.406C260.663,45.718,260.949,44.641,261.302,44.641z"/>
			<path style="fill:#FFFFFF;stroke:#263238;stroke-miterlimit:10;" d="M259.266,44.065h2.33c0.265,0,0.446,0.262,0.349,0.509
				c-0.211,0.536-0.349,1.444-0.349,2.474c0,1.03,0.139,1.938,0.349,2.474c0.097,0.247-0.084,0.508-0.349,0.508h-2.33
				c-0.437,0-0.792-1.335-0.792-2.982C258.474,45.4,258.828,44.065,259.266,44.065z"/>
			<path style="fill:#FFFFFF;stroke:#263238;stroke-miterlimit:10;" d="M266.613,43.107l16.068-0.799v9.479l-16.068-0.799
				c-0.578,0-1.046-1.764-1.046-3.941C265.567,44.871,266.035,43.107,266.613,43.107z"/>
			<path style="fill:#FFFFFF;stroke:#263238;stroke-miterlimit:10;" d="M281.423,47.048c0,2.618,0.563,4.739,1.258,4.739
				c0.695,0,1.258-2.122,1.258-4.739s-0.563-4.739-1.258-4.739C281.986,42.308,281.423,44.43,281.423,47.048z"/>
		</g>
		<g>
			<path style="fill:#263238;stroke:#263238;stroke-miterlimit:10;" d="M258.492,44.641l7.399-0.488v5.788l-7.399-0.488
				c-0.353,0-0.639-1.077-0.639-2.406C257.853,45.718,258.139,44.641,258.492,44.641z"/>
			<path style="fill:#FFFFFF;stroke:#263238;stroke-miterlimit:10;" d="M256.456,44.065h2.33c0.265,0,0.446,0.262,0.349,0.509
				c-0.211,0.536-0.349,1.444-0.349,2.474c0,1.03,0.139,1.938,0.35,2.474c0.097,0.247-0.084,0.508-0.349,0.508h-2.33
				c-0.437,0-0.792-1.335-0.792-2.982C255.664,45.4,256.019,44.065,256.456,44.065z"/>
			<path style="fill:#263238;stroke:#263238;stroke-miterlimit:10;" d="M263.803,43.107l16.068-0.799v9.479l-16.068-0.799
				c-0.578,0-1.046-1.764-1.046-3.941C262.757,44.871,263.225,43.107,263.803,43.107z"/>
			<path style="fill:#FFFFFF;stroke:#263238;stroke-miterlimit:10;" d="M278.613,47.048c0,2.618,0.563,4.739,1.258,4.739
				c0.695,0,1.258-2.122,1.258-4.739s-0.563-4.739-1.258-4.739C279.177,42.308,278.613,44.43,278.613,47.048z"/>
		</g>
		<g>
			<path style="fill:#FFFFFF;stroke:#263238;stroke-miterlimit:10;" d="M273.119,42.535c0,0-2.071-2.225-2.839-2.225
				c-0.767,0-1.995,1.995-2.225,2.225c-0.23,0.23-0.077,0.614,0.767,0.691c0.844,0.077,1.765-0.614,1.765-0.614L273.119,42.535z"/>
			<path style="fill:#FFFFFF;stroke:#263238;stroke-miterlimit:10;" d="M270.281,40.31c0,0-2.609-0.614-3.222-0.46
				c-0.614,0.153-1.765,2.762-1.534,3.146c0.23,0.384,2.532-0.46,2.532-0.46S269.59,40.234,270.281,40.31z"/>
			<path style="fill:#FFFFFF;stroke:#263238;stroke-miterlimit:10;" d="M266.521,40.08c0,0-1.228-0.767-1.841-0.23
				c-0.614,0.537-1.918,2.378-1.611,3.069c0.307,0.69,2.455,0.077,2.455,0.077S265.984,40.31,266.521,40.08z"/>
			<path style="fill:#FFFFFF;stroke:#263238;stroke-miterlimit:10;" d="M264.066,40.31c0,0-1.534-0.614-2.071,0
				c-0.537,0.614-1.918,2.532-0.997,2.992s1.841-0.921,1.841-0.921L264.066,40.31z"/>
		</g>
	</g>
</g>
</svg>
