<?xml version="1.0" encoding="utf-8"?>
<!-- Generator: Adobe Illustrator 27.5.0, SVG Export Plug-In . SVG Version: 6.00 Build 0)  -->
<svg version="1.1" id="_x3C_Layer_x3E_" xmlns="http://www.w3.org/2000/svg" xmlns:xlink="http://www.w3.org/1999/xlink" x="0px"
	 y="0px" viewBox="0 0 3000 2000" style="enable-background:new 0 0 3000 2000;" xml:space="preserve">
<rect style="fill:#FFFFFF;" width="3000" height="2000"/>
<g>
	<defs>
		<path id="SVGID_1_" d="M2764.711,1382.051c-53.113,592.189-573.803,626.604-1114.454,426.153
			c-194.178-71.973-469.403-76.669-763.607,42.615c-269.074,109.142-691.374-10.654-650.098-255.692
			c62.74-372.445,310.594-268.989,144.152-637.703c-121.358-268.84-56.36-650.994,312.797-567.125
			c276.859,62.905,395.253-60.703,437.137-126.437c29.008-45.527,67.417-85.313,113.83-115.452
			c350.411-227.518,539.811,206.53,733.258,100.075c364.273-200.446,730.563,3.693,544.179,330.825
			C2366.558,851.988,2795.107,1043.082,2764.711,1382.051z"/>
	</defs>
	<clipPath id="SVGID_00000044139768394757013240000010051075079628878734_">
		<use xlink:href="#SVGID_1_"  style="overflow:visible;"/>
	</clipPath>
	<g style="clip-path:url(#SVGID_00000044139768394757013240000010051075079628878734_);">
		<path style="fill:#D1EEF7;" d="M2764.711,1382.051c-53.113,592.189-573.803,626.604-1114.454,426.153
			c-194.178-71.973-469.403-76.669-763.607,42.615c-269.074,109.142-691.374-10.654-650.098-255.692
			c62.74-372.445,310.594-268.989,144.152-637.703c-121.358-268.84-56.36-650.994,312.797-567.125
			c276.859,62.905,395.253-60.703,437.137-126.437c29.008-45.527,67.417-85.313,113.83-115.452
			c350.411-227.518,539.811,206.53,733.258,100.075c364.273-200.446,730.563,3.693,544.179,330.825
			C2366.558,851.988,2795.107,1043.082,2764.711,1382.051z"/>
	</g>
	<g style="clip-path:url(#SVGID_00000044139768394757013240000010051075079628878734_);">
		<g>
			<g>
				<g>
					<g>
						<path style="fill:#FDBAA0;" d="M1297.605,1235.452v0.025c-16.211,67.466-52.125,123.29-102.397,168.296
							c-90.374,80.814-33.122,413.771-49.142,503.232c-142.055,25.603-296.934,64.031-501.941,29.866
							c11.163-184.867,89.412-689.455,64.385-786.579c21.83-9.363,514.866-220.833,539.418-231.363
							c12.388,21.983,31.206,66.721,43.023,111.715C1308.511,1096.837,1313.844,1168.094,1297.605,1235.452z"/>
					</g>
				</g>
				<g>
					<g>
						<g>
							<path style="fill:#FDBAA0;" d="M746.631,1367.768c58.802,66.201,107.805-285.489,92.565-368.869
								c-10.313-56.423-8.337-112.798-5.891-148.97c4.61-68.175-2.784-130.005-53.314-140.599
								c-20.668-4.334-28.978,0.462-33.337,16.112c-3.644,13.054-4.539,33.657-7.553,62.803
								c-2.223,21.343-5.575,47.268-11.988,78.167C701.438,990.12,657.341,1267.242,746.631,1367.768z"/>
						</g>
					</g>
					<g>
						<g>
							<path style="fill:#FFD1C3;" d="M1149.055,1864.839c1.255-116.021-29.064-356.469,32.255-445.111
								c-1.906,0.823-123.66,53.791-115.964,135.48c7.751,82.319,41.025,151.294,23.574,211.957
								C1072.963,1822.614,1105.888,1871.216,1149.055,1864.839z"/>
						</g>
					</g>
					<g>
						<g>
							<path style="fill:#FF8F65;" d="M1193.089,1696.103c-1.87-59.979-16.227-73.843-50.401-66.515
								c-15.641,3.349-35.433,11.146-60.085,20.981c-17.436,6.969-37.29,14.951-59.836,23.107
								c-103.569,37.49-260.866-77.34-341.154-89.745c-15.828-2.447-28.678-0.902-37.514,6.573
								c-53.679,45.386,7.565,127.816-29.775,228.596c-14.046,37.897-26.272,73.595-33.463,105.216
								c21.623,4.98,42.699,9.131,63.263,12.554c205.007,34.166,359.886-4.263,501.941-29.866
								c26.297-4.745,52.158-9.045,77.808-12.357C1213.442,1853.043,1195.432,1771.441,1193.089,1696.103z"/>
						</g>
					</g>
					<g>
						<g>
							<g>
								<path style="fill:#FF8F65;" d="M782.44,1594.131c10.48,4.209,20.96,8.419,31.44,12.628
									c6.606,2.653,9.477-8.044,2.941-10.669c-10.48-4.209-20.96-8.418-31.441-12.628
									C778.776,1580.809,775.905,1591.506,782.44,1594.131L782.44,1594.131z"/>
							</g>
						</g>
					</g>
					<g>
						<g>
							<g>
								<path style="fill:#E79780;" d="M1183.056,1408.31c-38.149,25.534-84.654,36.041-130.069,29.12
									c-3.483-0.531-4.984,4.799-1.471,5.335c46.888,7.146,94.872-3.266,134.332-29.678
									C1188.792,1411.116,1186.026,1406.322,1183.056,1408.31L1183.056,1408.31z"/>
							</g>
						</g>
					</g>
					<g>
						<g>
							<g>
								<path style="fill:#E79780;" d="M718.68,1311.154c41.204,44.829,92.234,79.389,149.011,101.335
									c3.323,1.284,4.762-4.062,1.471-5.334c-55.875-21.597-106.036-55.812-146.57-99.912
									C720.177,1304.616,716.273,1308.536,718.68,1311.154L718.68,1311.154z"/>
							</g>
						</g>
					</g>
				</g>
			</g>
			<g>
				<g>
					<path style="fill:#007888;" d="M877.282,1358.853l413.618-15.673c17.584-0.667,31.295-15.467,30.617-33.051l-27.633-716.809
						c-0.677-17.567-15.461-31.263-33.029-30.597l-413.618,15.673c-17.584,0.666-31.295,15.467-30.617,33.051l27.632,716.809
						C844.93,1345.823,859.714,1359.519,877.282,1358.853z"/>
				</g>
			</g>
			<g>
				<g>
					<path style="fill:#7CCCDB;" d="M876.579,1301.923l410.666-15.561c6.79-0.257,12.085-5.973,11.823-12.763l-26.221-680.198
						c-0.262-6.784-5.971-12.072-12.755-11.815l-410.666,15.561c-6.79,0.257-12.085,5.973-11.823,12.763l26.221,680.198
						C864.085,1296.891,869.794,1302.18,876.579,1301.923z"/>
				</g>
			</g>
			<g>
				<g>
					<path style="fill:#FDBAA0;" d="M808.237,1359.563c-0.302,0-0.611-0.069-0.9-0.206
						c-68.054-34.274-96.407-106.999-96.682-107.727c-0.398-1.03,0.124-2.198,1.161-2.596c1.01-0.371,2.191,0.137,2.589,1.168
						c0.275,0.714,28.106,72.01,94.731,105.556c0.996,0.508,1.394,1.717,0.893,2.706
						C809.679,1359.165,808.972,1359.563,808.237,1359.563z"/>
				</g>
			</g>
			<g style="opacity:0.7;">
				<g>
					<g>
						<path style="fill:#FFFFFF;" d="M530.194,755.865c3.56,0,3.565-5.532,0-5.532C526.634,750.333,526.629,755.865,530.194,755.865
							L530.194,755.865z"/>
					</g>
				</g>
			</g>
			<g>
				<g>
					<g>
						<path style="fill:#8FD7E3;" d="M1070.382,1315.8c6.011,0.054,12.023,0.107,18.034,0.161c2.747,0.024,5.57-0.161,8.299,0.104
							c4.23,0.41,14.936,2.214,1.089,9.707c-4.358,2.358-12.86,1.269-17.676,1.157c-2.849-0.067-5.715-0.145-8.558-0.358
							c-1.53-0.15-3.06-0.3-4.591-0.45c-1.218-7.624,0.849-11.005,6.202-10.143c3.551-0.114,3.567-5.646,0-5.532
							c-7.637,0.245-22.419,4.803-15.958,15.64c2.496,4.187,7.228,5.255,11.668,5.843c8.545,1.132,18.07,1.097,26.59-0.153
							c7.521-1.103,19.623-8.054,12.493-17.087c-2.432-3.081-6.503-3.764-10.173-4.117c-8.996-0.866-18.381-0.224-27.419-0.304
							C1066.821,1310.236,1066.818,1315.768,1070.382,1315.8L1070.382,1315.8z"/>
					</g>
				</g>
			</g>
			<g>
				<g>
					<g>
						<path style="fill:#E9F4F6;" d="M1335.244,797.074c-4.193-0.611-8.076,0.953-10.463,4.513
							c-1.988,2.966,2.802,5.738,4.777,2.792c0.872-1.3,2.623-2.203,4.215-1.971c1.476,0.215,2.972-0.366,3.403-1.932
							C1337.533,799.175,1336.731,797.291,1335.244,797.074L1335.244,797.074z"/>
					</g>
				</g>
			</g>
		</g>
		<g>
			<g>
				<path style="fill:#49B2A4;" d="M1161.614,1184.634l-160.774,8.666c-30.114,1.623-55.842-21.473-57.465-51.587l-0.436-8.091
					c-1.623-30.114,21.473-55.842,51.587-57.465l160.774-8.666c30.114-1.623,55.842,21.473,57.465,51.587l0.436,8.091
					C1214.824,1157.282,1191.728,1183.01,1161.614,1184.634z"/>
			</g>
			<g>
				<g>
					<path style="fill:#FFFFFF;" d="M1007.794,1112.218c-0.178-2.393,1.617-4.478,4.01-4.656l15.527-1.158
						c11.597-0.865,19.123,5.487,19.874,15.556c0.839,11.249-7.476,17.734-18.379,18.547l-3.791,0.283
						c-2.393,0.178-4.189,2.263-4.01,4.656l0.441,5.917c0.178,2.393-1.617,4.478-4.01,4.656l-2.028,0.151
						c-2.393,0.178-4.478-1.617-4.656-4.01L1007.794,1112.218z M1028.464,1130.968c5.347-0.398,8.234-3.826,7.913-8.131
						c-0.357-4.792-3.881-7.113-9.228-6.714l-3.931,0.293c-2.393,0.178-4.188,2.263-4.01,4.656l0.462,6.195
						c0.178,2.393,2.263,4.188,4.656,4.01L1028.464,1130.968z"/>
				</g>
				<g>
					<path style="fill:#FFFFFF;" d="M1068.504,1102.985l4.13-0.308c1.738-0.13,3.384,0.791,4.184,2.339l20.148,39.011
						c1.429,2.767-0.432,6.095-3.537,6.327l-1.714,0.128c-1.762,0.131-3.427-0.817-4.214-2.398l-2.656-5.34
						c-0.787-1.582-2.452-2.53-4.214-2.398l-14.729,1.098c-1.762,0.131-3.268,1.316-3.811,2.997l-1.834,5.675
						c-0.543,1.681-2.05,2.865-3.812,2.997l-1.436,0.107c-3.106,0.231-5.44-2.784-4.437-5.733l14.141-41.568
						C1065.274,1104.27,1066.766,1103.115,1068.504,1102.985z M1076.265,1125.452l-2.952-5.908c-0.706-1.414-2.771-1.26-3.259,0.243
						l-2.081,6.399c-0.891,2.742,1.282,5.511,4.157,5.297l0.74-0.055C1075.804,1131.209,1077.579,1128.084,1076.265,1125.452z"/>
				</g>
				<g>
					<path style="fill:#FFFFFF;" d="M1111.34,1128.679l-15.403-20.698c-2.045-2.748-0.254-6.673,3.163-6.927l2.153-0.161
						c1.528-0.114,3.004,0.586,3.883,1.842l7.479,10.686c1.881,2.688,5.949,2.401,7.435-0.525l5.962-11.747
						c0.688-1.356,2.035-2.253,3.552-2.366l1.798-0.134c3.423-0.255,5.776,3.372,4.148,6.394l-12.135,22.525
						c-0.393,0.73-0.569,1.557-0.508,2.384l1.027,13.775c0.178,2.393-1.617,4.478-4.01,4.656l-2.028,0.151
						c-2.393,0.178-4.478-1.617-4.656-4.01l-1.012-13.574C1112.126,1130.128,1111.832,1129.34,1111.34,1128.679z"/>
				</g>
			</g>
			<g>
				<g>
					<path style="fill:#9CD9EF;" d="M969.693,1103.087c2.478-3.969,6.069-7.02,10.561-8.474c3.339-1.08,2.366-6.53-1.016-5.436
						c-5.903,1.91-10.8,5.486-14.107,10.784C963.249,1102.977,967.803,1106.114,969.693,1103.087L969.693,1103.087z"/>
				</g>
			</g>
			<g>
				<g>
					<path style="fill:#9CD9EF;" d="M991.994,1091.343c2.174-0.406,4.349-0.813,6.523-1.22c3.498-0.654,2.487-6.091-1.016-5.436
						c-2.174,0.407-4.349,0.813-6.523,1.22C987.481,1086.561,988.491,1091.998,991.994,1091.343L991.994,1091.343z"/>
				</g>
			</g>
			<g>
				<g>
					<path style="fill:#9CD9EF;" d="M1106.869,1179.122c5.056-0.511,10.113-1.023,15.169-1.534c3.541-0.358,2.504-5.792-1.016-5.436
						c-5.056,0.511-10.113,1.023-15.169,1.534C1102.312,1174.045,1103.348,1179.478,1106.869,1179.122L1106.869,1179.122z"/>
				</g>
			</g>
			<g>
				<g>
					<path style="fill:#9CD9EF;" d="M1131.512,1176.474c2.092,0.219,4.23,0.079,6.269-0.44c1.448-0.369,2.497-1.69,2.21-3.226
						c-0.261-1.398-1.771-2.58-3.226-2.21c-1.608,0.41-3.139,0.536-4.787,0.364
						C1128.431,1170.592,1127.976,1176.105,1131.512,1176.474L1131.512,1176.474z"/>
				</g>
			</g>
		</g>
		<g>
			
				<ellipse transform="matrix(0.7071 -0.7071 0.7071 0.7071 -303.8512 1004.7801)" style="fill:#49B2A4;" cx="1060.951" cy="869.171" rx="116.404" ry="116.404"/>
		</g>
		<g>
			<g>
				<g>
					<path style="fill:#E9F4F6;" d="M988.832,876.114c13.942,23.069,31.883,43.809,53,60.579c3.64,2.89,7.05,4.498,11.793,3.861
						c4.271-0.574,8.077-2.872,10.256-6.702c17.691-31.089,37.069-61.204,55.52-91.841c4.666-7.747,9.292-15.518,13.765-23.378
						c3.633-6.385,1.719-15.638-5.036-19.208c-6.664-3.521-15.328-1.781-19.207,5.036c-17.691,31.089-37.069,61.204-55.521,91.841
						c-4.665,7.746-9.292,15.518-13.765,23.378c7.35-0.947,14.699-1.894,22.049-2.841c-9.964-7.914-19.24-16.662-27.669-26.196
						c-2.022-2.287-3.995-4.616-5.918-6.987c-0.856-1.055-1.774-2.738-2.847-3.586c2.099,1.661,0.737,0.946,0.035,0.01
						c-0.509-0.678-1.014-1.359-1.515-2.043c-3.806-5.203-7.362-10.578-10.696-16.094c-3.798-6.284-12.77-9.187-19.208-5.036
						C987.555,860.977,984.768,869.389,988.832,876.114L988.832,876.114z"/>
				</g>
			</g>
		</g>
	</g>
	<g style="clip-path:url(#SVGID_00000044139768394757013240000010051075079628878734_);">
		<g>
			<g>
				<path style="fill:#FDBAA0;" d="M2005.154,124.167l289.162,236.639c-47.324,231.548-63.096,309.865-63.234,310.029
					c-6.63,11.606-41.146,67.444-47.295,94.315c-50.309-6.215-77.299-9.554-98.687-12.175
					c-0.257,0.097-341.715,129.521-341.891,129.376c9.907-16.809,211.08-323.258,228.71-440.845c0,0-0.012-0.01-0.002-0.021
					c0.658-4.222,0.183-2.785,0.818-3.562c6.807-8.32,15.382-141.276,23.817-303.243L2005.154,124.167z"/>
			</g>
		</g>
		<g>
			<path style="fill:#FDBAA0;" d="M1802.443,809.404c3.553,3.252,52.7,88.818,61.143,75.047
				c32.948-53.74,100.443-89.023,131.186-82.272c58.893,12.932,59.451,77.512,59.124,84.627l87.874-199.416
				c-7.972-43.062-77.913-270.971-91.518-265.903C1994.458,442.273,1793.38,801.109,1802.443,809.404z"/>
		</g>
		<g>
			<path style="fill:#FDBAA0;" d="M2043.62,635.475c0,0-276.691,208.626-300.407,246.875
				c-23.716,38.248,27.302,154.884,47.305,189.746c20.003,34.861,134.478,76.934,160.009,67.91
				c31.323-11.07-12.936-67.697-56.62-97.977c-40.134-27.819-44.257-87.074-50.844-105.565
				c-4.421-12.409,24.314-67.56,54.382-92.427c57.608-47.643,149.586,3.895,149.586,3.895L2043.62,635.475z"/>
		</g>
		<g>
			<path style="fill:#FDBAA0;" d="M1847.731,692.956c0,0-158.671,169.995-163.74,231.252
				c-5.069,61.257-0.367,128.369,32.124,157.042s115.757,73.237,126.919,67.461c11.162-5.776-7.671-63.248-36.244-96.125
				c-28.572-32.877-19.644-151.519-19.644-151.519l85.173-156.77L1847.731,692.956z"/>
		</g>
		<g>
			<path style="fill:#FDBAA0;" d="M1989.345,379.439c0,0-26.61,127.274-90.055,203.434
				c-88.194,105.868-203.008,215.018-213.035,235.628c-17.24,35.436-39.411,139.141-33.665,163.24
				c5.746,24.099,19.567,103.976,30.89,117.161c11.324,13.185,48.207-51.048,58.572-118.777
				c10.365-67.73,41.486-147.536,41.486-147.536l252.346-191.261L1989.345,379.439z"/>
		</g>
		<g>
			<g>
				<path style="fill:#00ADC8;" d="M1900.81-16.222c-6.593,129.289-1.337,519.511,34.548,520.609
					c2.526,0.049,5.236-0.535,7.942-1.592c53.304-21.567,124.853-34.146,173.178-20.291c2.094,0.468,6.419,1.864,6.459,1.897
					c31.162,8.751,74.293,27.68,74.975,28.229c15.252,7.288,59.813,25.366,60.259,25.315c14.496,4.827,35.84,11.276,50.167,5.93
					c17.022-8.394,203.633-487.639,219.101-557.607l-219.291-300.121L1900.81-16.222z"/>
			</g>
		</g>
		<path style="fill:#E5967E;" d="M1848.332,1111.08c0.536,3.422-3.007,6.026-6.118,4.503c-20.595-10.082-46.181-25.15-55.462-41.326
			c-19.052-33.203-64.53-135.911-51.724-183.45c0.936-3.476,5.473-4.331,7.597-1.424l0.054,0.074
			c0.77,1.054,1.012,2.396,0.667,3.654c-11.458,41.682,30.311,140.871,50.941,176.823c6.494,11.319,25.497,25.078,51.668,37.87
			c1.26,0.616,2.143,1.801,2.363,3.186C1848.322,1111.02,1848.327,1111.05,1848.332,1111.08z"/>
		<path style="fill:#FDBAA0;" d="M1936.044,826.684c0,0,20.698-7.547,51.511,0.105c43.449,10.79,51.792,17.258,51.792,17.258
			l-59.812-52.926L1936.044,826.684z"/>
		<g>
			<g>
				<path style="fill:#FF8F65;" d="M2197.426,1005.153l-40.803,98.046l-11.948,28.713l-164.638,395.658
					c-8.556,20.562-32.147,30.29-52.709,21.734l-273.064-113.627c-20.55-8.55-30.29-32.146-21.734-52.709l72.658-174.622
					l23.324-56.065l121.406-291.729c8.556-20.562,32.159-30.284,52.709-21.734l273.064,113.627
					C2196.254,961,2205.976,984.603,2197.426,1005.153z"/>
			</g>
			<g style="opacity:0.45;">
				<path style="fill:#FFB39B;" d="M2197.426,1005.153l-40.803,98.046c-125.366,25.061-339.707,42.115-428.11,49.081
					l121.406-291.729c8.556-20.562,32.159-30.284,52.709-21.734l273.064,113.627C2196.254,961,2205.976,984.603,2197.426,1005.153z"
					/>
			</g>
			<g>
				<path style="fill:#FFB39B;" d="M1808.194,1334.619l-35.7,85.792c-2.647,6.362-9.951,9.374-16.314,6.726l-75.553-31.439
					c-6.362-2.647-9.374-9.951-6.726-16.314l35.699-85.792c2.647-6.362,9.952-9.374,16.314-6.726l75.553,31.439
					C1807.83,1320.953,1810.842,1328.257,1808.194,1334.619z"/>
			</g>
			<g>
				
					<rect x="1612.654" y="1166.051" transform="matrix(0.3842 -0.9233 0.9233 0.3842 80.6456 2528.7078)" style="fill:#384955;" width="646.477" height="75.699"/>
			</g>
			<g>
				<g>
					<path style="fill:#384955;" d="M1904.224,1492.584c11.619-29.813,24.135-59.261,37.536-88.316c2.456-5.325-5.693-9.45-8.16-4.1
						c-13.402,29.055-25.918,58.503-37.536,88.316C1893.948,1493.912,1902.088,1498.066,1904.224,1492.584L1904.224,1492.584z"/>
				</g>
			</g>
			<g>
				<g>
					<path style="fill:#384955;" d="M1960.235,1362.084c13.355-32.321,26.405-64.767,39.149-97.333c2.124-5.427-6.016-9.58-8.16-4.1
						c-12.744,32.567-25.794,65.012-39.149,97.333C1949.844,1363.382,1957.986,1367.526,1960.235,1362.084L1960.235,1362.084z"/>
				</g>
			</g>
			<g>
				<g>
					<path style="fill:#384955;" d="M1929.76,1503.215c19.656-47.519,40.854-94.382,63.564-140.52c2.594-5.27-5.56-9.383-8.16-4.1
						c-22.711,46.138-43.908,93-63.564,140.52C1919.367,1504.513,1927.51,1508.657,1929.76,1503.215L1929.76,1503.215z"/>
				</g>
			</g>
			<g>
				<g>
					<path style="fill:#FF8F65;" d="M1713.925,1410.939c2.577-7.812,5.155-15.624,7.732-23.437
						c1.744-5.287,4.947-11.302,1.891-16.679c-2.757-4.849-9.076-6.929-13.869-8.987c-7.534-3.234-15.225-6.048-23.015-8.596
						c-4.357-1.425-5.729,5.594-1.397,7.012c6.001,1.963,11.928,4.119,17.766,6.523c4.311,1.775,12.969,3.799,14.093,8.769
						c1.082,4.789-2.899,11.83-4.414,16.421c-1.933,5.859-3.866,11.718-5.799,17.577
						C1705.478,1413.895,1712.498,1415.266,1713.925,1410.939L1713.925,1410.939z"/>
				</g>
			</g>
			<g>
				<g>
					<path style="fill:#FF8F65;" d="M1688.883,1340.263c9.141,4.141,18.283,8.282,27.424,12.423
						c4.571,2.071,9.141,4.141,13.712,6.212c4.595,2.081,12.617,4.038,14.748,8.54c2.193,4.632-1.223,10.618-3.017,15.091
						c-1.85,4.612-3.707,9.222-5.561,13.832c-3.862,9.606-7.724,19.212-11.586,28.818c-1.703,4.237,4.668,7.484,6.387,3.209
						c4.634-11.527,9.268-23.054,13.903-34.581c3.207-7.977,10.056-19.635,7.968-28.675c-0.983-4.256-4.611-5.776-8.205-7.445
						c-6.068-2.816-12.189-5.522-18.283-8.282c-11.427-5.176-22.853-10.353-34.28-15.529
						C1687.914,1331.983,1684.683,1338.36,1688.883,1340.263L1688.883,1340.263z"/>
				</g>
			</g>
			<g>
				<g>
					<path style="fill:#FF8F65;" d="M1704.043,1305.777c6.158,2.997,12.362,5.896,18.634,8.647
						c4.047,1.775,8.816,4.672,13.316,2.845c4.074-1.655,6.89-6.343,9.286-9.773c3.56-5.097,6.456-10.498,8.833-16.239
						c1.75-4.225-4.623-7.468-6.387-3.209c-2.603,6.287-7.86,20.087-14.948,21.582c-4.131,0.871-8.973-2.493-12.752-4.211
						c-4.287-1.948-8.539-3.967-12.773-6.028C1703.119,1297.379,1699.898,1303.76,1704.043,1305.777L1704.043,1305.777z"/>
				</g>
			</g>
			<g>
				<g>
					<path style="fill:#FF8F65;" d="M1698.031,1321.329c10.092,5.004,20.184,10.008,30.277,15.012
						c5.434,2.694,10.869,5.389,16.303,8.083c3.753,1.861,7.721,4.406,11.976,4.788c7.252,0.65,11.318-5.194,14.766-10.635
						c5.996-9.464,11.915-18.977,17.872-28.465c2.445-3.893-3.958-7.077-6.387-3.209c-4.413,7.029-8.826,14.057-13.239,21.086
						c-2.179,3.47-4.139,7.309-6.696,10.518c-4.07,5.105-8.996,2.55-13.919,0.11c-15.915-7.891-31.83-15.782-47.744-23.673
						C1697.121,1312.9,1693.903,1319.282,1698.031,1321.329L1698.031,1321.329z"/>
				</g>
			</g>
			<g>
				<g>
					<path style="fill:#FF8F65;" d="M1817.768,1347.012c-7.43-3.955-20.934-11.219-29.497-7.335
						c-3.108,1.409-4.713,4.189-6.27,7.051c-3.221,5.919-5.955,12.179-8.694,18.332c-2.75,6.179-5.353,12.425-7.8,18.73
						c-1.649,4.249-4.453,9.194-4.59,13.793c-0.265,8.868,11.597,13.911,18.625,15.781c4.442,1.182,5.835-5.83,1.397-7.012
						c-3.676-0.978-7.636-2.542-10.435-5.237c-3.839-3.696-1.11-7.583,0.479-11.75c2.863-7.504,5.943-14.926,9.231-22.254
						c2.618-5.836,5.653-17.066,11.446-19.921c6.415-3.161,17.056,3.096,22.9,6.207
						C1818.622,1355.562,1821.83,1349.174,1817.768,1347.012L1817.768,1347.012z"/>
				</g>
			</g>
			<g>
				<g>
					<g>
						<path style="fill:#FFB39B;" d="M1802.208,1046.687c20.127,9.254,40.505,17.93,61.125,26.025
							c5.71,2.242,10.081-6.325,4.316-8.589c-20.62-8.095-40.998-16.771-61.125-26.025
							C1800.916,1035.52,1796.575,1044.097,1802.208,1046.687L1802.208,1046.687z"/>
					</g>
				</g>
				<g>
					<g>
						<path style="fill:#FFB39B;" d="M1810.436,1041.905c1.855-8.201,5.606-20.554,16.549-15.725
							c9.523,4.203,5.247,14.988,2.122,22.143c-2.466,5.646,6.107,9.998,8.589,4.316c5.726-13.113,8.226-29.627-8.177-35.735
							c-16.848-6.274-25.339,9.1-28.512,23.122C1799.642,1046.057,1809.068,1047.948,1810.436,1041.905L1810.436,1041.905z"/>
					</g>
				</g>
				<g>
					<g>
						<path style="fill:#FFB39B;" d="M1836.901,1056.751c3.07-5.609,4.605-11.974,7.885-17.456c3.901-6.519,9.973-7.87,17.065-6.477
							c3.165,0.622,6.849,1.383,7.832,4.81c0.793,2.765-1.129,6.387-2.113,8.912c-2.625,6.737-5.277,13.465-7.915,20.197
							c2.505-0.47,5.011-0.939,7.516-1.409c-0.561-0.48-1.121-0.96-1.682-1.441c-3.852-4.781-11.941,0.422-8.061,5.238
							c1.131,1.404,1.847,2.264,3.299,3.337c2.267,1.676,6.274,1.76,7.516-1.409c5.399-13.777,21.714-40.121-0.83-46.765
							c-7.634-2.25-16.309-2.672-23.241,1.78c-9.178,5.895-10.981,17.449-15.861,26.366
							C1825.34,1057.866,1833.933,1062.174,1836.901,1056.751L1836.901,1056.751z"/>
					</g>
				</g>
				<g>
					<g>
						<g>
							<path style="fill:#FFB39B;" d="M1864.014,985.333c-4.778,4.425-7.077,12.867-5.473,19.226
								c1.546,6.13,7.459,10.44,13.366,11.954c6.525,1.672,13.282,0.336,17.171-5.429c3.637-5.392,6.456-12.526,1.76-18.203
								c-3.906-4.722-11.999,0.477-8.061,5.238c1.875,2.267-0.03,6.188-1.98,8.072c-2.174,2.1-5.863,1.518-8.48,0.323
								c-2.247-1.027-4.232-2.639-4.558-5.166c-0.432-3.345,0.997-7.352,3.391-9.569
								C1875.692,987.569,1868.519,981.161,1864.014,985.333L1864.014,985.333z"/>
						</g>
					</g>
					<g>
						<g>
							<path style="fill:#FFB39B;" d="M1860.559,987.928c6.792,1.922,34.831,16.164,37.879,3.291
								c1.425-6.017-8.002-7.903-9.429-1.878c-0.05,0.213-0.101,0.427-0.151,0.64c1.068-1.208,2.136-2.415,3.204-3.623
								c-4.003,1.594-11.442-1.503-15.256-2.879c-4.778-1.724-9.473-3.594-14.368-4.98
								C1856.491,976.816,1854.627,986.249,1860.559,987.928L1860.559,987.928z"/>
						</g>
					</g>
				</g>
				<g>
					<g>
						<g>
							<path style="fill:#FFB39B;" d="M1870.635,962.583c9.799,3.654,19.292,7.929,28.523,12.845
								c5.463,2.909,9.776-5.68,4.316-8.589c-9.231-4.916-18.724-9.191-28.523-12.845
								C1869.217,951.856,1864.838,960.421,1870.635,962.583L1870.635,962.583z"/>
						</g>
					</g>
					<g>
						<g>
							<path style="fill:#FFB39B;" d="M1886.787,955.358c-2.787-4.18-0.848-9.85,4.616-10.037
								c5.157-0.177,11.493,2.918,16.183,4.771c5.707,2.255,10.076-6.312,4.316-8.589c-8.586-3.393-19.936-8.892-28.725-3.452
								c-7.856,4.863-9.442,15.059-4.45,22.545C1882.163,965.75,1890.222,960.51,1886.787,955.358L1886.787,955.358z"/>
						</g>
					</g>
				</g>
				<g>
					<g>
						<g>
							<path style="fill:#FFB39B;" d="M1887.614,920.306c9.818,2.9,19.346,6.747,28.778,10.708
								c5.672,2.382,10.031-6.188,4.315-8.589c-10.222-4.293-20.573-8.405-31.215-11.548
								C1883.569,909.128,1881.711,918.562,1887.614,920.306L1887.614,920.306z"/>
						</g>
					</g>
					<g>
						<g>
							<path style="fill:#FFB39B;" d="M1910.96,917.471c-0.301-8.726-5.018-18.095-10.57-24.672
								c-1.686-1.998-4.266-2.924-6.65-1.412c-1.98,1.256-3.083,4.669-1.412,6.649c4.542,5.38,8.79,12.858,9.037,20.043
								C1901.579,924.264,1911.174,923.662,1910.96,917.471L1910.96,917.471z"/>
						</g>
					</g>
					<g>
						<g>
							<path style="fill:#FFB39B;" d="M1908.248,911.229c5.685-1.166,11.37-2.332,17.056-3.498c2.545-0.522,3.8-3.813,3.052-6.073
								c-0.895-2.704-3.522-3.575-6.073-3.052c-5.685,1.166-11.371,2.332-17.056,3.498c-2.545,0.522-3.8,3.813-3.052,6.073
								C1903.071,910.881,1905.697,911.752,1908.248,911.229L1908.248,911.229z"/>
						</g>
					</g>
				</g>
			</g>
		</g>
		<g>
			<g>
				<path style="fill:#FDBAA0;" d="M2243.912,628.341c18.044,112.579-62.318,277.416-92.722,319.889
					c-56.859,79.429-65.895,170.337-80.697,175.133c-14.802,4.796-57.948-16.984-51.204-97.844
					c6.407-76.821,44.093-144.615,23.417-183.984c-8.179-15.573,19.956-57.456,19.956-57.456S2237.018,585.329,2243.912,628.341z"/>
			</g>
			<g>
				<g>
					<path style="fill:#E79780;" d="M2074.965,1101.044c-5.72,2.276-4.746-6.871-4.116-9.426c0.468-1.898,1.177-3.763,1.813-5.608
						c1.465-4.249,3.077-8.445,4.676-12.645c2.824-7.42,5.803-23.505,17.031-18.7c3.082,1.319,4.538-3.687,1.491-4.991
						c-16.493-7.058-21.366,16.431-25.359,27.065c-2.541,6.768-7.466,15.884-5.016,23.287c1.751,5.291,7.055,7.541,12.013,5.568
						C2080.598,1104.362,2078.045,1099.818,2074.965,1101.044L2074.965,1101.044z"/>
				</g>
			</g>
		</g>
		<g>
			<g>
				<path style="fill:#E5967E;" d="M1685.224,878.196c3.764,36.669-7.848,71.9-7.189,108.395c0.53,29.364,5.232,65.85,27.219,87.524
					c3.039,2.995,8.069-1.374,5.015-4.385c-22.299-21.981-26.132-60.494-25.581-90.144c0.304-16.357,3.229-32.444,5.469-48.606
					c2.499-18.035,3.455-35.972,1.592-54.121C1691.31,872.594,1684.789,873.965,1685.224,878.196L1685.224,878.196z"/>
			</g>
		</g>
		<g>
			<g>
				<path style="fill:#EF9F8A;" d="M2248.908,645.187c-6.707-23.133-18.132-44.253-33.778-62.559
					c-3.077-3.6-8.349,1.514-5.287,5.096c14.813,17.331,25.602,37.39,31.95,59.285
					C2243.105,651.533,2250.229,649.744,2248.908,645.187L2248.908,645.187z"/>
			</g>
		</g>
	</g>
	<g style="clip-path:url(#SVGID_00000044139768394757013240000010051075079628878734_);">
		<g>
			<g>
				<path style="fill:#FDBAA0;" d="M1331.862,741.392c-49.399,7.936-98.392,20.821-86.996,78.586
					c11.342,57.49,115.267,40.688,125.379-5.551C1375.502,790.386,1371.589,735.01,1331.862,741.392z"/>
			</g>
		</g>
		<g>
			<g>
				<path style="fill:#D44D2C;" d="M1340.203,773.394c0,0,8.033,29.166,1.064,39.162c-6.97,9.996-32.994,22.879-36.047,20.804
					c-3.053-2.075,0.128-17.187-3.773-34.518c-3.05-13.547-14.938-25.531-8.377-29.997
					C1299.631,764.381,1336.826,763.287,1340.203,773.394z"/>
			</g>
		</g>
		<g>
			<g>
				<path style="fill:#FDBAA0;" d="M1361.396,837.231c-54.027,6.065-107.876,17.477-98.57,80.222
					c9.261,62.446,122.927,49.572,136.351,0.312C1406.156,892.153,1404.845,832.353,1361.396,837.231z"/>
			</g>
		</g>
		<g>
			<g>
				<path style="fill:#D44D2C;" d="M1371.954,875.29c0,0,9.309,26.499,1.216,36.908c-8.093,10.41-42.358,25.072-45.561,22.685
					c-3.203-2.387,1.05-18.493-2.264-37.341c-2.591-14.734-14.857-28.229-7.501-32.706
					C1325.201,860.358,1368.826,864.243,1371.954,875.29z"/>
			</g>
		</g>
		<g>
			<g>
				<path style="fill:#FDBAA0;" d="M1328.828,939.983c-50.185,12.035-99.558,29.129-83.229,87.659
					c16.251,58.251,121.82,32.824,128.536-15.535C1377.626,986.964,1369.187,930.304,1328.828,939.983z"/>
			</g>
		</g>
		<g>
			<g>
				<path style="fill:#D44D2C;" d="M1341.356,975.872c0,0,12.058,27.062,5.685,37.891c-6.373,10.83-34.984,24.812-38.29,22.916
					c-3.306-1.896-1.238-17.691-6.632-35.213c-4.217-13.698-17.402-25.093-11.009-30.202
					C1297.504,966.157,1337.077,965.74,1341.356,975.872z"/>
			</g>
		</g>
		<g>
			<g>
				<path style="fill:#FDBAA0;" d="M1313.088,1041.135c-38.766,10.169-76.816,24.254-63.159,69.432
					c13.592,44.963,95.138,23.484,99.544-14.175C1351.764,1076.812,1344.264,1032.956,1313.088,1041.135z"/>
			</g>
		</g>
		<g>
			<g>
				<path style="fill:#D44D2C;" d="M1323.802,1067.759c0,0,7.409,19.52,2.641,28.033c-4.767,8.514-24.728,22.172-27.327,20.754
					c-2.599-1.417-1.257-13.716-5.739-27.233c-3.504-10.566-13.932-19.198-9.053-23.27
					C1289.204,1061.973,1320.31,1059.962,1323.802,1067.759z"/>
			</g>
		</g>
		<g>
			<g>
				<path style="fill:#FDBAA0;" d="M1290.153,856.635c-0.359,0-0.703-0.187-0.875-0.531c-0.234-0.484-0.039-1.078,0.445-1.312
					c20.286-10.01,64.38-17.663,64.825-17.741c0.476-0.016,1.031,0.281,1.124,0.796c0.094,0.531-0.266,1.046-0.796,1.14
					c-0.438,0.063-44.258,7.668-64.294,17.553C1290.442,856.604,1290.302,856.635,1290.153,856.635z"/>
			</g>
		</g>
		<g>
			<g>
				<path style="fill:#FDBAA0;" d="M1316.202,956.629c-11.767,0-22.644-0.921-28.165-3.748c-0.476-0.25-0.672-0.843-0.422-1.327
					c0.242-0.468,0.843-0.625,1.312-0.422c14.828,7.668,72.665,0.547,73.235,0.469c0.539-0.078,1.015,0.328,1.085,0.843
					c0.063,0.547-0.312,1.031-0.851,1.093C1360.858,953.724,1337.121,956.629,1316.202,956.629z"/>
			</g>
		</g>
		<g>
			<g>
				<path style="fill:#FDBAA0;" d="M1286.78,1060.293c-6.879,0-12.712-0.844-16.163-3.077c-0.453-0.281-0.578-0.89-0.289-1.343
					c0.297-0.437,0.906-0.578,1.351-0.281c13.446,8.698,68.62-5.638,69.166-5.794c0.547-0.219,1.054,0.172,1.195,0.687
					c0.133,0.531-0.179,1.062-0.695,1.187C1339.604,1052.141,1308.136,1060.293,1286.78,1060.293z"/>
			</g>
		</g>
	</g>
</g>
</svg>
