<?xml version="1.0" encoding="utf-8"?>
<!-- Generator: Adobe Illustrator 27.5.0, SVG Export Plug-In . SVG Version: 6.00 Build 0)  -->
<svg version="1.1" xmlns="http://www.w3.org/2000/svg" xmlns:xlink="http://www.w3.org/1999/xlink" x="0px" y="0px"
	 viewBox="0 0 500 500" style="enable-background:new 0 0 500 500;" xml:space="preserve">
<g id="BACKGROUND">
	<g style="opacity:0.85;">
		<g>
			<g style="opacity:0.41;">
				<g>
					<g>
						<path style="fill:#BFDDE8;" d="M478.851,296.7c0.428-7.371,0.236-14.775-0.594-22.107
							c-3.903-34.45-21.577-66.935-47.59-89.856c-9.281-8.177-19.84-15.503-25.88-26.297c-10.171-18.178-9.4-39.069-22.024-57.017
							c-12.638-17.969-31.055-31.982-51.824-39.179c-61.926-21.458-148.625,13.48-140.819,88.091
							c0.028,0.268,0.059,0.657,0.091,1.149c1.038,15.498-11.126,28.529-26.607,28.896c-57.135,1.356-106.317,45.407-116.84,101.207
							c-6.768,35.885,4.314,75.218,30.564,100.604c19.595,18.95,45.885,29.36,72.188,36.513
							c52.739,14.343,108.237,17.349,162.615,11.865c50.902-5.134,104.594-19.767,137.514-58.928
							C467.207,350.75,477.267,323.96,478.851,296.7z"/>
					</g>
				</g>
			</g>
			<g style="opacity:0.31;">
				
					<ellipse transform="matrix(0.9239 -0.3827 0.3827 0.9239 -0.1581 86.4225)" style="fill:#BFDDE8;" cx="217.158" cy="43.609" rx="13.293" ry="13.293"/>
			</g>
			<g style="opacity:0.31;">
				<circle style="fill:#BFDDE8;" cx="396.781" cy="35.502" r="6.859"/>
			</g>
			<g style="opacity:0.31;">
				
					<ellipse transform="matrix(0.7071 -0.7071 0.7071 0.7071 -6.58 130.8493)" style="fill:#BFDDE8;" cx="154.659" cy="73.367" rx="9.191" ry="9.191"/>
			</g>
		</g>
	</g>
	<g style="opacity:0.85;">
		<g>
			<g>
				<g style="opacity:0.47;">
					<path style="fill:#BFDDE8;" d="M22.739,81.951c-5.965-11.62-1.381-25.876,10.239-31.842c11.62-5.965,33.95-5.526,39.916,6.094
						S60.975,77.796,53.682,88.633C43.511,103.746,28.705,93.571,22.739,81.951z"/>
				</g>
				<g style="opacity:0.47;">
					<path style="fill:#BFDDE8;" d="M77.546,443.175c-9.655,6.233-22.534,3.459-28.768-6.195c-6.233-9.655-7.79-29.242,1.865-35.476
						c9.655-6.233,19.941,8.557,30.062,14C94.822,423.094,87.201,436.942,77.546,443.175z"/>
				</g>
			</g>
			<g>
				<g style="opacity:0.47;">
					<path style="fill:#BFDDE8;" d="M467.692,128.463c8.245,17.898,10.496,38.532,6.54,57.822
						c-4.65,22.678-18.769,40.101-13.87,64.294c2.984,14.736,3.731,28.387,5.244,42.968c3.107,29.94-16.332,56.321-40.448,70.566
						c-19.587,11.57-42.55,15.911-65.069,15.603c-20.268-0.278-40.5-4.021-60.14-9.053c-18.927-4.85-37.432-11.24-57.271-9.224
						c-16.5,1.677-31.36,8.81-46.726,14.129c-36.685,12.699-81.124,14.49-114.67-4.842c-21.529-12.406-36.598-32.555-43.281-54.217
						c-5.341-17.312-6.019-33.501-2.015-51.175c4.111-18.146,11.05-36.439,8.895-55.347c-1.502-13.176-7.528-25.893-6.424-39.108
						c0.734-8.781,4.6-17.019,9.328-24.454c17.262-27.149,46.166-45.326,76.74-55.341c28.773-9.425,58.446-16.251,88.402-13.983
						c61.936,4.688,74.562-5.149,137.858-18.687c40.863-8.74,86.572,22.415,110.484,58.507
						C463.707,120.6,465.849,124.463,467.692,128.463z"/>
				</g>
				<g>
					<g style="opacity:0.81;">
						<path style="fill:#BFDDE8;" d="M425.079,156.356c1.27,14.292-3.55,29.02,0.479,43.174
							c4.824,16.945,18.787,29.638,24.479,46.275c8.411,24.584,8.007,52.131-2.207,76.087
							c-4.923,11.545-12.114,22.275-21.934,29.695c-15.139,11.439-34.975,13.948-53.63,12.497
							c-27.764-2.159-57.06-14.179-84.975-10.901c-15.404,1.809-20.108,18.481-28.064,29.479
							c-8.998,12.439-21.252,22.208-34.799,28.712c-24.952,11.978-54.898,13.112-80.4,2.251
							c-27.227-11.596-50.958-39.913-49.398-71.938c0.722-14.815,6.652-29.53,3.907-44.088
							c-3.446-18.269-17.211-34.917-27.186-49.802c-11.016-16.439-17.685-36.043-18.993-56.043c-0.015-0.227-0.029-0.454-0.042-0.68
							c-2.045-34.503,19.717-65.971,52.55-76.769c0,0,69.859-22.975,69.862-22.976C245.615,68.015,316.44,68.786,381.617,103
							c14.104,7.404,37.069,29.463,41.799,44.674C424.308,150.544,424.82,153.441,425.079,156.356z"/>
					</g>
				</g>
			</g>
		</g>
	</g>
	<circle style="opacity:0.58;fill:#2F4770;" cx="467.651" cy="388.579" r="4.5"/>
	<circle style="opacity:0.58;fill:#3D85FD;" cx="319.066" cy="33.395" r="4.751"/>
	<circle style="opacity:0.58;fill:#2F4770;" cx="105.515" cy="441.078" r="4.5"/>
	<circle style="opacity:0.58;fill:#FFB44F;" cx="381.238" cy="442.001" r="3.5"/>
	<circle style="opacity:0.58;fill:#FFB44F;" cx="98.74" cy="64.177" r="3.5"/>
	<circle style="opacity:0.58;fill:#3D85FD;" cx="70.811" cy="102.769" r="1.5"/>
	<path style="opacity:0.58;fill:#3D85FD;" d="M136.47,30.758c-0.245,1.145-1.37,1.874-2.515,1.63
		c-1.145-0.244-1.874-1.37-1.63-2.515c0.244-1.145,1.37-1.874,2.515-1.63C135.985,28.488,136.715,29.614,136.47,30.758z"/>
	<path style="opacity:0.58;fill:#FFB44F;" d="M478.202,225.918c-0.244,1.145-1.37,1.874-2.515,1.63
		c-1.145-0.244-1.874-1.37-1.63-2.515c0.245-1.145,1.37-1.874,2.515-1.63C477.716,223.648,478.446,224.774,478.202,225.918z"/>
	<path style="opacity:0.58;fill:#2F4770;" d="M457.753,96.88c-0.208,0.973-1.165,1.593-2.138,1.385
		c-0.973-0.208-1.593-1.165-1.385-2.138s1.165-1.593,2.138-1.385C457.341,94.95,457.961,95.907,457.753,96.88z"/>
	<path style="opacity:0.58;fill:#FFB44F;" d="M438.552,49.397c0,3.79-3.072,6.862-6.862,6.862c-3.79,0-6.862-3.072-6.862-6.862
		c0-3.79,3.072-6.862,6.862-6.862C435.48,42.535,438.552,45.608,438.552,49.397z"/>
	<path style="opacity:0.47;fill:#BFDDE8;" d="M30.119,260.547c0,3.03-2.456,5.486-5.486,5.486s-5.486-2.456-5.486-5.486
		c0-3.03,2.456-5.486,5.486-5.486S30.119,257.517,30.119,260.547z"/>
	<g>
		<g style="opacity:0.86;">
			<g>
				<g style="opacity:0.44;">
					<path style="fill:#F2F9FF;" d="M252.329,372.909L252.329,372.909c-68.823,0-124.615-55.792-124.615-124.614v0
						c0-68.823,55.792-124.614,124.614-124.614h0c68.823,0,124.614,55.792,124.614,124.614v0
						C376.943,317.117,321.151,372.909,252.329,372.909z"/>
				</g>
				<g style="opacity:0.86;">
					<path style="fill:#F2F9FF;" d="M252.329,372.909L252.329,372.909c-68.823,0-124.615-55.792-124.615-124.614v0
						c0-68.823,55.792-124.614,124.614-124.614h0c68.823,0,124.614,55.792,124.614,124.614v0
						C376.943,317.117,321.151,372.909,252.329,372.909z"/>
				</g>
				<path style="fill:none;stroke:#F2F9FF;stroke-width:3;stroke-linecap:round;stroke-linejoin:round;stroke-miterlimit:10;" d="
					M134.398,180.84c0,0,12.848-29.368,49.558-49.558"/>
				<path style="fill:none;stroke:#F2F9FF;stroke-width:3;stroke-linecap:round;stroke-linejoin:round;stroke-miterlimit:10;" d="
					M292.25,376.32c0,0,55.065-14.684,75.256-59.654"/>
				<g style="opacity:0.86;">
					<path style="fill:none;stroke:#F2F9FF;stroke-width:3;stroke-linecap:round;stroke-linejoin:round;stroke-miterlimit:10;" d="
						M323.913,137.247c0,0,29.368,12.848,49.558,49.558"/>
				</g>
				<g style="opacity:0.86;">
					<path style="fill:none;stroke:#F2F9FF;stroke-width:3;stroke-linecap:round;stroke-linejoin:round;stroke-miterlimit:10;" d="
						M128.432,295.099c0,0,14.684,55.065,59.654,75.255"/>
				</g>
			</g>
		</g>
	</g>
</g>
<g id="OBJECTS">
	<g>
		<g>
			<path style="fill:#233863;" d="M239.392,358.499l3.252,1.015c4.453,1.39,9.234-1.116,10.624-5.569l74.186-237.65
				c1.39-4.453-1.116-9.234-5.569-10.624l-3.252-1.015c-4.453-1.39-9.234,1.116-10.624,5.569l-74.186,237.65
				C232.433,352.328,234.939,357.108,239.392,358.499z"/>
			<path style="fill:#233863;" d="M245.165,361.4c-0.995,0-1.994-0.15-2.969-0.455l-3.252-1.015l0,0
				c-2.536-0.792-4.616-2.531-5.856-4.898c-1.241-2.368-1.488-5.068-0.696-7.604l74.185-237.65c0.791-2.536,2.531-4.617,4.898-5.857
				c2.367-1.24,5.067-1.489,7.605-0.696l3.252,1.015c5.253,1.64,8.193,7.248,6.554,12.502l-74.187,237.651
				c-0.791,2.535-2.531,4.615-4.898,5.856C248.343,361.014,246.759,361.4,245.165,361.4z"/>
		</g>
		<g>
			<path style="fill:#2F4770;" d="M367.132,414.055l-109.886-34.303c-11.851-3.699-18.459-16.306-14.76-28.157l73.64-235.902
				c3.7-11.851,16.306-18.459,28.157-14.76l109.886,34.303c11.851,3.699,18.459,16.306,14.76,28.157l-73.64,235.902
				C391.589,411.146,378.983,417.754,367.132,414.055z"/>
			<path style="fill:#233863;" d="M373.815,416.578c-2.361,0-4.76-0.352-7.131-1.092l0,0l-109.886-34.303
				c-6.114-1.908-11.119-6.084-14.093-11.757c-2.974-5.673-3.561-12.165-1.651-18.279l73.64-235.901
				c3.94-12.621,17.409-19.686,30.036-15.745l109.886,34.302c12.621,3.94,19.685,17.414,15.744,30.035L396.72,399.742
				C393.52,409.993,384.029,416.578,373.815,416.578z M367.579,412.623c5.349,1.669,11.027,1.156,15.991-1.445
				c4.963-2.602,8.616-6.98,10.286-12.33l73.641-235.902c3.446-11.043-2.733-22.831-13.775-26.278l-109.886-34.302
				c-11.044-3.447-22.83,2.732-26.278,13.775l-73.64,235.902c-1.67,5.35-1.157,11.028,1.445,15.992
				c2.602,4.963,6.98,8.616,12.33,10.286L367.579,412.623z"/>
		</g>
		<g>
			
				<rect x="327.508" y="122.911" transform="matrix(0.298 -0.9546 0.9546 0.298 83.0189 493.083)" style="fill:#FFFFFF;" width="98.475" height="134.376"/>
			<path style="fill:#233863;" d="M426.21,258.62c-0.147,0-0.298-0.021-0.447-0.068L297.49,218.51
				c-0.38-0.118-0.696-0.383-0.881-0.735c-0.186-0.352-0.223-0.764-0.104-1.143l29.344-94.001c0.118-0.38,0.383-0.697,0.735-0.882
				c0.353-0.185,0.764-0.222,1.143-0.103l128.273,40.042c0.38,0.118,0.696,0.383,0.881,0.735c0.186,0.352,0.223,0.764,0.104,1.143
				l-29.344,94.002C427.441,258.209,426.85,258.62,426.21,258.62z M299.816,216.094l125.408,39.147l28.45-91.137l-125.408-39.148
				L299.816,216.094z"/>
		</g>
		<path style="fill:#FFFFFF;" d="M440.089,145.569c-0.099,0-0.199-0.015-0.298-0.046l-89.536-27.95
			c-0.527-0.164-0.821-0.725-0.656-1.252c0.163-0.528,0.726-0.821,1.252-0.657l89.536,27.95c0.527,0.164,0.821,0.725,0.656,1.252
			C440.91,145.295,440.515,145.569,440.089,145.569z"/>
		<g>
			<path style="fill:#FFB44F;" d="M350.167,148.212l-19.969-6.234c-0.623-0.194-0.97-0.857-0.776-1.48l1.155-3.699
				c0.194-0.623,0.857-0.971,1.48-0.776l19.969,6.234c0.623,0.195,0.97,0.857,0.776,1.48l-1.155,3.699
				C351.453,148.059,350.79,148.407,350.167,148.212z"/>
			<path style="fill:#233863;" d="M350.522,149.267c-0.218,0-0.438-0.033-0.652-0.1l0,0l-19.969-6.234
				c-1.148-0.358-1.791-1.584-1.434-2.732l1.156-3.7c0.173-0.556,0.553-1.011,1.068-1.282c0.517-0.27,1.107-0.324,1.664-0.15
				l19.969,6.233c0.557,0.174,1.012,0.554,1.282,1.07c0.271,0.517,0.324,1.107,0.149,1.664l-1.153,3.698
				c-0.174,0.556-0.554,1.012-1.07,1.282C351.215,149.183,350.87,149.267,350.522,149.267z M350.465,147.258
				c0.095,0.026,0.198-0.023,0.228-0.119l1.154-3.699c0.026-0.083-0.037-0.203-0.119-0.228l-19.969-6.233
				c-0.08-0.023-0.201,0.039-0.227,0.119l-1.156,3.7c-0.029,0.095,0.024,0.197,0.12,0.227L350.465,147.258z"/>
		</g>
		<g>
			<path style="fill:#FFB44F;" d="M379.845,157.477l-19.969-6.234c-0.623-0.194-0.97-0.857-0.776-1.48l1.155-3.699
				c0.194-0.623,0.857-0.97,1.48-0.776l19.969,6.234c0.623,0.195,0.97,0.857,0.776,1.48l-1.155,3.699
				C381.131,157.324,380.468,157.671,379.845,157.477z"/>
			<path style="fill:#233863;" d="M380.2,158.532c-0.219,0-0.438-0.033-0.652-0.1l0,0l-19.97-6.234
				c-1.147-0.358-1.79-1.584-1.433-2.732l1.154-3.699c0.358-1.148,1.584-1.793,2.733-1.433l19.969,6.234
				c0.557,0.173,1.012,0.553,1.282,1.069c0.27,0.517,0.324,1.107,0.15,1.663l-1.155,3.7c-0.173,0.556-0.553,1.012-1.068,1.282
				C380.894,158.447,380.549,158.532,380.2,158.532z M380.144,156.523c0.08,0.026,0.201-0.036,0.227-0.119l1.156-3.7
				c0.025-0.082-0.038-0.202-0.12-0.227l-19.969-6.234c-0.082-0.024-0.201,0.038-0.228,0.12l-1.154,3.699
				c-0.03,0.096,0.022,0.198,0.118,0.228L380.144,156.523z"/>
		</g>
		<g>
			<path style="fill:#FFB44F;" d="M411.754,167.438l-19.969-6.234c-0.623-0.194-0.97-0.857-0.776-1.48l1.155-3.699
				c0.194-0.623,0.857-0.971,1.48-0.776l19.969,6.234c0.623,0.194,0.97,0.857,0.776,1.48l-1.155,3.699
				C413.04,167.285,412.378,167.632,411.754,167.438z"/>
			<path style="fill:#233863;" d="M412.105,168.492c-0.215,0-0.433-0.032-0.648-0.099l0,0l-19.97-6.234
				c-1.147-0.358-1.79-1.584-1.433-2.732l1.154-3.699c0.174-0.556,0.554-1.012,1.07-1.283c0.518-0.27,1.106-0.324,1.663-0.15
				l19.969,6.234c1.148,0.358,1.791,1.584,1.434,2.732l-1.156,3.7C413.897,167.893,413.034,168.492,412.105,168.492z
				 M412.053,166.483c0.095,0.029,0.197-0.024,0.228-0.119l1.155-3.7c0.029-0.096-0.024-0.198-0.12-0.228l-19.969-6.234
				c-0.08-0.025-0.202,0.038-0.228,0.12l-1.154,3.699c-0.03,0.096,0.022,0.198,0.118,0.227L412.053,166.483z"/>
		</g>
		<g>
			<path style="fill:#FFB44F;" d="M441.798,176.816l-19.969-6.234c-0.623-0.194-0.97-0.857-0.776-1.48l1.155-3.699
				c0.194-0.623,0.857-0.97,1.48-0.776l19.969,6.234c0.623,0.195,0.97,0.857,0.776,1.48l-1.155,3.699
				C443.084,176.663,442.421,177.011,441.798,176.816z"/>
			<path style="fill:#233863;" d="M442.153,177.871c-0.219,0-0.438-0.033-0.652-0.1l0,0l-19.97-6.233
				c-0.557-0.174-1.012-0.554-1.282-1.07c-0.271-0.517-0.324-1.107-0.149-1.664l1.153-3.698c0.358-1.148,1.584-1.792,2.733-1.433
				l19.969,6.233c1.148,0.359,1.791,1.585,1.434,2.733l-1.156,3.7c-0.173,0.556-0.553,1.011-1.068,1.282
				C442.847,177.787,442.502,177.871,442.153,177.871z M442.097,175.862c0.095,0.029,0.198-0.024,0.227-0.119l1.156-3.7
				c0.029-0.095-0.024-0.198-0.121-0.228l-19.968-6.233c-0.097-0.031-0.198,0.023-0.228,0.119l-1.154,3.699
				c-0.026,0.083,0.037,0.203,0.119,0.228L442.097,175.862z"/>
		</g>
		<g>
			
				<rect x="344.505" y="189.263" transform="matrix(0.298 -0.9546 0.9546 0.298 7.2873 519.1522)" style="fill:#233863;" width="24.198" height="130.717"/>
			<path style="fill:#233863;" d="M415.389,287.147c-0.15,0-0.301-0.023-0.447-0.068l-124.779-38.952
				c-0.79-0.247-1.231-1.088-0.984-1.878l7.21-23.098c0.118-0.38,0.383-0.697,0.735-0.882c0.353-0.186,0.763-0.223,1.144-0.103
				l124.779,38.951c0.79,0.247,1.231,1.088,0.984,1.879l-7.21,23.099c-0.118,0.38-0.383,0.696-0.735,0.881
				C415.868,287.089,415.629,287.147,415.389,287.147z M292.488,245.71l121.915,38.058l6.316-20.234l-121.915-38.058L292.488,245.71
				z"/>
		</g>
		<path style="fill:#FFFFFF;" d="M332.573,252.709c-0.246,0-0.496-0.036-0.744-0.113l-22.138-6.912
			c-1.315-0.411-2.051-1.815-1.641-3.131l1.93-6.183c0.199-0.638,0.635-1.16,1.227-1.47c0.591-0.31,1.267-0.372,1.905-0.172
			l22.138,6.911c0.637,0.199,1.159,0.634,1.469,1.225c0.31,0.591,0.371,1.268,0.173,1.906l-1.93,6.183
			C334.628,252.023,333.639,252.709,332.573,252.709z M332.128,251.641c0.78,0.246,1.632-0.194,1.879-0.985l1.93-6.183
			c0.12-0.383,0.083-0.789-0.103-1.144c-0.186-0.355-0.499-0.616-0.882-0.735l-22.138-6.911c-0.379-0.119-0.788-0.083-1.143,0.104
			c-0.355,0.186-0.616,0.499-0.735,0.882l-1.93,6.183c-0.247,0.789,0.195,1.632,0.984,1.879L332.128,251.641z"/>
		<path style="fill:#FFFFFF;" d="M366.797,263.392c-0.25,0-0.502-0.038-0.748-0.114l-22.138-6.91
			c-0.637-0.199-1.158-0.635-1.469-1.227c-0.311-0.592-0.371-1.268-0.172-1.906l1.93-6.182c0.199-0.638,0.635-1.16,1.227-1.47
			c0.592-0.311,1.268-0.372,1.905-0.172l22.138,6.911c0.637,0.199,1.159,0.635,1.469,1.226c0.31,0.592,0.371,1.268,0.173,1.906
			l-1.931,6.183c-0.199,0.637-0.635,1.159-1.226,1.469C367.592,263.295,367.196,263.392,366.797,263.392z M366.348,262.322
			c0.382,0.119,0.788,0.082,1.143-0.103c0.355-0.186,0.616-0.499,0.735-0.882l1.931-6.183c0.119-0.382,0.083-0.788-0.104-1.143
			c-0.186-0.355-0.499-0.616-0.882-0.735l-22.138-6.912c-0.382-0.119-0.787-0.083-1.143,0.104c-0.355,0.186-0.616,0.499-0.735,0.882
			l-1.93,6.183c-0.12,0.382-0.083,0.788,0.103,1.144c0.186,0.354,0.499,0.616,0.882,0.735L366.348,262.322z"/>
		<path style="fill:#FFFFFF;" d="M401.397,274.192c-0.25,0-0.502-0.038-0.748-0.114l-22.138-6.91
			c-1.315-0.412-2.052-1.817-1.642-3.133l1.931-6.183c0.199-0.637,0.635-1.159,1.226-1.469c0.591-0.31,1.267-0.372,1.906-0.173
			l22.138,6.911c0.637,0.199,1.159,0.635,1.469,1.226c0.311,0.592,0.371,1.269,0.173,1.906l-1.931,6.183
			c-0.199,0.637-0.635,1.159-1.226,1.469C402.191,274.096,401.796,274.192,401.397,274.192z M400.947,273.123
			c0.383,0.118,0.788,0.083,1.143-0.103c0.355-0.185,0.616-0.499,0.735-0.882l1.931-6.183c0.119-0.382,0.083-0.788-0.104-1.143
			c-0.186-0.355-0.499-0.616-0.882-0.735l-22.138-6.911c-0.383-0.119-0.788-0.083-1.143,0.104c-0.355,0.186-0.616,0.499-0.735,0.882
			l-1.931,6.183c-0.246,0.789,0.195,1.632,0.985,1.879L400.947,273.123z"/>
		<g>
			<path style="fill:#5A6F8E;" d="M305.184,294.713l-15.875-4.956c-4.453-1.39-6.959-6.171-5.569-10.624l2.874-9.208
				c1.39-4.453,6.171-6.959,10.624-5.569l15.875,4.956c4.453,1.39,6.959,6.171,5.569,10.624l-2.874,9.208
				C314.418,293.597,309.637,296.103,305.184,294.713z"/>
			<path style="fill:#233863;" d="M307.706,296.6c-0.995,0-1.994-0.15-2.969-0.455l-15.875-4.955
				c-5.253-1.641-8.193-7.249-6.554-12.503l2.874-9.208c1.642-5.253,7.248-8.193,12.503-6.553l15.875,4.955
				c5.253,1.641,8.193,7.249,6.554,12.503l-2.874,9.208c-0.792,2.536-2.531,4.616-4.898,5.856
				C310.884,296.213,309.3,296.6,307.706,296.6z M294.715,265.472c-2.974,0-5.736,1.917-6.669,4.901l-2.874,9.208
				c-1.147,3.674,0.91,7.598,4.585,8.745l15.875,4.955l0,0c1.772,0.553,3.659,0.379,5.316-0.489
				c1.658-0.869,2.875-2.323,3.429-4.095l2.874-9.208c1.146-3.674-0.91-7.598-4.585-8.745l-15.875-4.955
				C296.102,265.574,295.402,265.472,294.715,265.472z"/>
		</g>
		<g>
			<path style="fill:#5A6F8E;" d="M348.572,308.257l-15.875-4.956c-4.453-1.39-6.959-6.171-5.569-10.624l2.874-9.208
				c1.39-4.453,6.171-6.959,10.624-5.569l15.875,4.956c4.453,1.39,6.959,6.171,5.569,10.624l-2.874,9.208
				C357.806,307.141,353.025,309.647,348.572,308.257z"/>
			<path style="fill:#233863;" d="M351.092,310.145c-0.994,0-1.992-0.15-2.967-0.455l0,0l-15.876-4.956
				c-5.254-1.641-8.193-7.249-6.553-12.503l2.874-9.207c0.791-2.536,2.531-4.616,4.898-5.857c2.368-1.24,5.067-1.489,7.604-0.696
				l15.875,4.956c5.253,1.64,8.193,7.247,6.554,12.502l-2.875,9.208c-0.791,2.536-2.531,4.616-4.899,5.857
				C354.271,309.757,352.686,310.145,351.092,310.145z M349.02,306.826c1.769,0.552,3.657,0.378,5.316-0.49
				c1.657-0.869,2.875-2.323,3.428-4.095l2.875-9.208c0.553-1.771,0.378-3.659-0.49-5.316c-0.869-1.657-2.323-2.875-4.095-3.428
				l-15.875-4.956c-1.77-0.552-3.659-0.377-5.317,0.49c-1.657,0.869-2.875,2.323-3.428,4.095l-2.874,9.207
				c-0.553,1.772-0.379,3.659,0.489,5.316c0.869,1.658,2.323,2.875,4.095,3.429L349.02,306.826z"/>
		</g>
		<g>
			<path style="fill:#5A6F8E;" d="M391.307,321.598l-15.875-4.956c-4.453-1.39-6.959-6.171-5.569-10.624l2.874-9.208
				c1.39-4.453,6.171-6.959,10.624-5.569l15.875,4.956c4.453,1.39,6.959,6.171,5.569,10.624l-2.874,9.208
				C400.541,320.482,395.76,322.988,391.307,321.598z"/>
			<path style="fill:#233863;" d="M393.829,323.484c-0.983,0-1.981-0.147-2.969-0.455l-15.875-4.955
				c-5.253-1.641-8.193-7.249-6.554-12.503l2.874-9.208c0.792-2.536,2.531-4.616,4.898-5.857c2.369-1.242,5.069-1.489,7.604-0.696
				l15.875,4.955c5.253,1.641,8.193,7.249,6.554,12.503l-2.874,9.208C402.03,320.743,398.08,323.483,393.829,323.484z
				 M380.844,292.356c-1.116,0-2.225,0.271-3.246,0.807c-1.658,0.869-2.875,2.323-3.429,4.095l-2.874,9.208
				c-1.146,3.674,0.91,7.598,4.585,8.745l15.875,4.955l0,0c3.673,1.146,7.597-0.908,8.745-4.584l2.874-9.208
				c1.147-3.674-0.91-7.598-4.585-8.745l-15.875-4.955C382.234,292.462,381.538,292.356,380.844,292.356z"/>
		</g>
		<g>
			<path style="fill:#5A6F8E;" d="M294.579,328.686l-15.875-4.956c-4.453-1.39-6.959-6.171-5.569-10.624l2.874-9.208
				c1.39-4.453,6.171-6.959,10.624-5.569l15.875,4.956c4.453,1.39,6.959,6.171,5.569,10.624l-2.874,9.208
				C303.813,327.57,299.032,330.076,294.579,328.686z"/>
			<path style="fill:#233863;" d="M297.1,330.572c-0.982,0-1.981-0.146-2.968-0.454l0,0l-15.875-4.956
				c-2.536-0.791-4.616-2.531-5.857-4.898c-1.24-2.367-1.488-5.067-0.696-7.604l2.875-9.207c1.638-5.253,7.241-8.192,12.502-6.554
				l15.876,4.956c2.535,0.791,4.615,2.531,5.856,4.898s1.488,5.068,0.696,7.604l-2.874,9.207
				C305.303,327.831,301.352,330.572,297.1,330.572z M295.026,327.255c3.673,1.145,7.598-0.909,8.745-4.585l2.874-9.207
				c0.553-1.77,0.379-3.659-0.49-5.317c-0.869-1.657-2.322-2.875-4.094-3.428l-15.876-4.956c-1.77-0.553-3.659-0.378-5.316,0.49
				c-1.657,0.869-2.875,2.323-3.428,4.095l-2.875,9.207c-0.553,1.77-0.378,3.659,0.49,5.317c0.869,1.657,2.323,2.875,4.095,3.428
				L295.026,327.255z"/>
		</g>
		<g>
			<path style="fill:#5A6F8E;" d="M337.967,342.23l-15.875-4.956c-4.453-1.39-6.959-6.171-5.569-10.624l2.874-9.208
				c1.39-4.453,6.171-6.959,10.624-5.569l15.875,4.956c4.453,1.39,6.959,6.171,5.569,10.624l-2.874,9.208
				C347.2,341.114,342.42,343.62,337.967,342.23z"/>
			<path style="fill:#233863;" d="M340.487,344.116c-0.982,0-1.981-0.147-2.968-0.454l0,0l-15.875-4.956
				c-2.536-0.791-4.616-2.531-5.857-4.898c-1.24-2.367-1.488-5.067-0.696-7.604l2.874-9.207c1.64-5.253,7.246-8.192,12.503-6.554
				l15.875,4.956c2.536,0.791,4.616,2.531,5.857,4.898c1.24,2.367,1.488,5.067,0.696,7.604l-2.874,9.207
				C348.69,341.375,344.739,344.116,340.487,344.116z M338.414,340.799c3.674,1.146,7.597-0.91,8.745-4.585l2.874-9.207
				c0.553-1.771,0.378-3.659-0.49-5.317c-0.869-1.657-2.323-2.875-4.095-3.428l-15.875-4.956c-3.671-1.143-7.597,0.909-8.745,4.585
				l-2.874,9.207c-0.553,1.771-0.378,3.659,0.49,5.317c0.869,1.657,2.323,2.875,4.095,3.428L338.414,340.799z"/>
		</g>
		<g>
			<path style="fill:#5A6F8E;" d="M380.702,355.571l-15.875-4.956c-4.453-1.39-6.959-6.171-5.569-10.624l2.874-9.208
				c1.39-4.453,6.171-6.959,10.624-5.569l15.875,4.956c4.453,1.39,6.959,6.171,5.569,10.624l-2.874,9.208
				C389.936,354.455,385.155,356.961,380.702,355.571z"/>
			<path style="fill:#233863;" d="M383.223,357.457c-0.982,0-1.981-0.147-2.968-0.454l0,0l-15.875-4.956
				c-5.253-1.641-8.193-7.249-6.554-12.503l2.875-9.207c1.639-5.253,7.241-8.192,12.502-6.554l15.876,4.956
				c2.535,0.791,4.615,2.531,5.856,4.897c1.241,2.368,1.488,5.068,0.696,7.605l-2.874,9.208
				C391.426,354.716,387.475,357.457,383.223,357.457z M381.149,354.14c3.674,1.146,7.598-0.909,8.745-4.585l2.874-9.208
				c0.553-1.771,0.379-3.659-0.49-5.316c-0.868-1.657-2.322-2.875-4.094-3.428l-15.876-4.956c-1.771-0.552-3.659-0.377-5.316,0.49
				c-1.657,0.869-2.875,2.323-3.428,4.095l-2.875,9.207c-1.147,3.674,0.91,7.598,4.585,8.745L381.149,354.14z"/>
		</g>
		<g>
			<path style="fill:#3AAED5;" d="M283.974,362.659l-15.875-4.956c-4.453-1.39-6.959-6.171-5.569-10.624l2.874-9.208
				c1.39-4.453,6.171-6.959,10.624-5.569l15.875,4.956c4.453,1.39,6.959,6.171,5.569,10.624l-2.874,9.208
				C293.208,361.543,288.427,364.049,283.974,362.659z"/>
			<path style="fill:#233863;" d="M286.494,364.546c-0.995,0-1.993-0.15-2.968-0.455l0,0l-15.875-4.956
				c-2.536-0.791-4.616-2.531-5.857-4.898c-1.241-2.367-1.488-5.067-0.696-7.603l2.874-9.208c0.791-2.536,2.531-4.616,4.898-5.857
				c2.368-1.24,5.068-1.489,7.604-0.696l15.875,4.956c5.254,1.641,8.193,7.249,6.553,12.503l-2.874,9.207
				c-0.791,2.536-2.531,4.616-4.898,5.857C289.673,364.158,288.089,364.546,286.494,364.546z M284.421,361.228
				c1.771,0.552,3.659,0.378,5.317-0.49c1.657-0.869,2.875-2.323,3.428-4.095l2.874-9.207c0.553-1.771,0.379-3.659-0.489-5.316
				c-0.869-1.658-2.323-2.875-4.095-3.429l-15.875-4.956c-1.77-0.553-3.658-0.378-5.317,0.49c-1.657,0.869-2.875,2.323-3.428,4.095
				l-2.874,9.208c-0.553,1.771-0.379,3.659,0.489,5.316c0.869,1.657,2.323,2.875,4.095,3.428L284.421,361.228z"/>
		</g>
		<g>
			<path style="fill:#FFB44F;" d="M327.362,376.203l-15.875-4.956c-4.453-1.39-6.959-6.171-5.569-10.624l2.874-9.208
				c1.39-4.453,6.171-6.959,10.624-5.569l15.875,4.956c4.453,1.39,6.959,6.171,5.569,10.624l-2.874,9.208
				C336.595,375.087,331.815,377.593,327.362,376.203z"/>
			<path style="fill:#233863;" d="M329.882,378.09c-0.994,0-1.993-0.15-2.968-0.455l-15.875-4.956
				c-2.536-0.791-4.616-2.53-5.857-4.897c-1.24-2.367-1.488-5.067-0.696-7.605l2.875-9.208c0.791-2.536,2.531-4.616,4.898-5.857
				c2.366-1.242,5.067-1.488,7.604-0.696l15.876,4.955c5.254,1.641,8.193,7.25,6.553,12.503l-2.874,9.207
				c-0.792,2.536-2.531,4.616-4.898,5.857C333.06,377.702,331.477,378.09,329.882,378.09z M316.897,346.962
				c-1.116,0-2.225,0.271-3.246,0.807c-1.657,0.869-2.875,2.323-3.428,4.095l-2.875,9.208c-0.553,1.771-0.378,3.659,0.49,5.316
				c0.869,1.657,2.323,2.875,4.095,3.428l15.875,4.956l0,0c1.768,0.552,3.659,0.38,5.316-0.49c1.658-0.869,2.875-2.323,3.429-4.095
				l2.874-9.207c1.147-3.674-0.909-7.597-4.584-8.745l-15.876-4.955C318.288,347.067,317.592,346.962,316.897,346.962z"/>
		</g>
		<g>
			<path style="fill:#3D85FD;" d="M370.097,389.544l-15.875-4.956c-4.453-1.39-6.959-6.171-5.569-10.624l2.874-9.208
				c1.39-4.453,6.171-6.959,10.624-5.569l15.875,4.956c4.453,1.39,6.959,6.171,5.569,10.624l-2.874,9.208
				C379.331,388.428,374.55,390.934,370.097,389.544z"/>
			<path style="fill:#233863;" d="M372.617,391.431c-0.995,0-1.993-0.15-2.968-0.455l0,0l-15.875-4.956
				c-2.536-0.791-4.616-2.531-5.856-4.898c-1.241-2.367-1.488-5.068-0.696-7.604l2.874-9.207c0.791-2.536,2.531-4.616,4.898-5.858
				c2.368-1.24,5.068-1.489,7.604-0.696l15.875,4.956c2.536,0.791,4.616,2.531,5.857,4.898c1.241,2.367,1.488,5.068,0.696,7.604
				l-2.874,9.207c-0.791,2.536-2.531,4.616-4.898,5.857C375.796,391.043,374.212,391.431,372.617,391.431z M370.544,388.112
				c1.77,0.553,3.659,0.378,5.317-0.49c1.657-0.869,2.875-2.323,3.428-4.095l2.874-9.207c0.553-1.772,0.379-3.659-0.489-5.317
				c-0.869-1.657-2.323-2.875-4.095-3.428l-15.875-4.956c-1.77-0.552-3.659-0.377-5.317,0.49c-1.657,0.869-2.875,2.323-3.428,4.095
				l-2.874,9.207c-0.553,1.771-0.379,3.659,0.489,5.317c0.869,1.657,2.323,2.875,4.095,3.428L370.544,388.112z"/>
		</g>
		<g>
			<path style="fill:#233863;" d="M365.395,419.262l-109.683-34.239c-3.536-1.104-5.526-4.9-4.422-8.436l0,0
				c1.104-3.536,4.9-5.526,8.437-4.422l109.683,34.239c3.536,1.104,5.526,4.9,4.422,8.436l0,0
				C372.728,418.375,368.931,420.366,365.395,419.262z"/>
			<path style="fill:#233863;" d="M367.397,421.068c-0.811,0-1.635-0.121-2.449-0.375l0,0l-109.683-34.239
				c-4.334-1.353-6.761-5.979-5.407-10.315c1.354-4.334,5.978-6.761,10.316-5.407l109.684,34.239
				c2.093,0.653,3.809,2.089,4.832,4.042c1.024,1.953,1.227,4.181,0.574,6.273C374.164,418.807,370.904,421.068,367.397,421.068z
				 M365.842,417.83c2.752,0.859,5.697-0.682,6.558-3.439c0.414-1.327,0.284-2.743-0.367-3.986c-0.652-1.243-1.742-2.156-3.07-2.571
				l-109.684-34.239c-2.752-0.858-5.696,0.684-6.558,3.439c-0.859,2.756,0.683,5.697,3.439,6.558L365.842,417.83z"/>
		</g>
		<path style="fill:#FFFFFF;" d="M363.643,366.62c0,1.317-1.068,2.384-2.384,2.384c-1.317,0-2.384-1.068-2.384-2.384
			c0-1.317,1.068-2.384,2.384-2.384C362.576,364.235,363.643,365.303,363.643,366.62z"/>
		<path style="fill:#FFFFFF;" d="M320.907,353.57c0,1.317-1.068,2.384-2.384,2.384c-1.317,0-2.384-1.068-2.384-2.384
			c0-1.317,1.068-2.384,2.384-2.384C319.84,351.186,320.907,352.253,320.907,353.57z"/>
		<path style="fill:#FFFFFF;" d="M276.111,339.259c0,1.317-1.068,2.384-2.384,2.384c-1.317,0-2.384-1.068-2.384-2.384
			c0-1.317,1.068-2.384,2.384-2.384C275.043,336.874,276.111,337.942,276.111,339.259z"/>
		<path style="fill:#FFFFFF;" d="M375.108,384.004c0,0.683-0.554,1.237-1.237,1.237c-0.683,0-1.237-0.554-1.237-1.237
			c0-0.683,0.554-1.237,1.237-1.237C374.554,382.767,375.108,383.321,375.108,384.004z"/>
		<path style="fill:#233863;" d="M382.481,296.69c0,0.88-0.713,1.593-1.593,1.593c-0.88,0-1.593-0.713-1.593-1.593
			s0.713-1.593,1.593-1.593C381.767,295.097,382.481,295.81,382.481,296.69z"/>
		<path style="fill:#233863;" d="M371.073,332.37c0,0.88-0.713,1.593-1.593,1.593s-1.593-0.713-1.593-1.593
			c0-0.88,0.713-1.593,1.593-1.593S371.073,331.49,371.073,332.37z"/>
		<g>
			<path style="fill:#2F4770;" d="M421.79,239.623c0,2.305-1.868,4.173-4.173,4.173s-4.173-1.868-4.173-4.173
				c0-2.305,1.868-4.173,4.173-4.173S421.79,237.318,421.79,239.623z"/>
			<path style="fill:#233863;" d="M417.617,245.296c-3.129,0-5.674-2.545-5.674-5.673c0-3.128,2.545-5.673,5.674-5.673
				c3.128,0,5.673,2.545,5.673,5.673C423.29,242.751,420.745,245.296,417.617,245.296z M417.617,236.95
				c-1.475,0-2.674,1.199-2.674,2.673c0,1.474,1.199,2.673,2.674,2.673c1.474,0,2.673-1.199,2.673-2.673
				C420.29,238.149,419.091,236.95,417.617,236.95z"/>
		</g>
	</g>
	<g>
		<g>
			<g>
				<circle style="fill:#233863;" cx="181.751" cy="373.005" r="50.247"/>
			</g>
			<g>
				<g>
					
						<ellipse transform="matrix(0.2298 -0.9732 0.9732 0.2298 -224.1351 457.4082)" style="fill:#233863;" cx="176.913" cy="370.308" rx="50.247" ry="50.247"/>
					<g>
						
							<ellipse transform="matrix(0.2298 -0.9732 0.9732 0.2298 -224.1351 457.4082)" style="fill:#FFB44F;" cx="176.913" cy="370.308" rx="50.247" ry="50.247"/>
						<path style="fill:#233863;" d="M176.912,422.055c-28.533,0-51.746-23.214-51.746-51.747c0-28.533,23.213-51.747,51.746-51.747
							s51.747,23.214,51.747,51.747C228.659,398.841,205.445,422.055,176.912,422.055z M176.912,321.56
							c-26.879,0-48.746,21.868-48.746,48.747c0,26.879,21.867,48.747,48.746,48.747s48.747-21.868,48.747-48.747
							C225.659,343.429,203.791,321.56,176.912,321.56z"/>
					</g>
					<path style="fill:#FFFFFF;" d="M176.912,411.776c-22.865,0-41.468-18.603-41.468-41.469c0-22.866,18.603-41.469,41.468-41.469
						c22.866,0,41.469,18.603,41.469,41.469C218.381,393.174,199.778,411.776,176.912,411.776z M176.912,330.839
						c-21.763,0-39.468,17.706-39.468,39.469c0,21.763,17.705,39.469,39.468,39.469s39.469-17.706,39.469-39.469
						C216.381,348.545,198.675,330.839,176.912,330.839z"/>
					<path style="fill:#FFFFFF;" d="M176.451,407.288c-20.391,0-36.98-16.59-36.98-36.98c0-20.391,16.59-36.98,36.98-36.98
						c20.391,0,36.98,16.59,36.98,36.98C213.432,390.698,196.842,407.288,176.451,407.288z M176.451,335.327
						c-19.288,0-34.98,15.692-34.98,34.98c0,19.288,15.692,34.98,34.98,34.98s34.98-15.692,34.98-34.98
						C211.432,351.02,195.739,335.327,176.451,335.327z"/>
					<g>
						<path style="fill:#233863;" d="M190.311,376.094c0,3.27-1.308,6.428-3.555,8.731c-1.508,1.594-3.328,2.702-5.404,3.3v2.39
							c0,1.137-0.427,2.218-1.194,3.015c-0.768,0.796-1.82,1.251-2.958,1.251c-1.224,0-2.275-0.455-3.072-1.251
							c-0.796-0.797-1.279-1.878-1.279-3.015v-1.934h-3.954c-1.792,0-3.271-0.569-4.295-1.508c-0.995-0.939-1.535-2.275-1.535-3.839
							c0-3.101,2.076-4.665,5.83-4.665h9.357c0.37,0,0.882-0.143,1.252-0.455c0.483-0.37,0.711-0.854,0.711-1.422
							c0-0.825-0.313-1.365-0.938-1.679c-0.314-0.142-0.512-0.199-0.654-0.228c-0.199-0.028-0.313-0.057-0.313-0.057h-4.466
							c-3.101-0.085-5.973-1.309-8.049-3.327c-2.076-2.049-3.3-4.779-3.3-7.879c0-3.214,1.365-6.314,3.641-8.59
							c1.82-1.82,4.181-3.043,6.713-3.47v-1.593c0-1.166,0.427-2.162,1.279-3.015c0.825-0.825,1.849-1.252,3.044-1.252
							c1.109,0,2.161,0.455,2.958,1.252c0.824,0.853,1.223,1.849,1.223,3.015v1.422h1.508c3.726,0,5.916,1.792,5.916,4.893
							c0,3.413-2.19,5.233-5.916,5.233h-8.732c-0.995,0-1.65,0.653-1.65,1.563c0,0.939,0.512,1.707,1.337,1.707h4.295
							c3.327,0,6.399,1.166,8.646,3.214C189.031,369.95,190.311,372.823,190.311,376.094z"/>
					</g>
				</g>
				<path style="fill:#233863;" d="M205.225,371.859c0,2.003-1.623,3.626-3.626,3.626c-2.003,0-3.626-1.623-3.626-3.626
					c0-2.003,1.623-3.626,3.626-3.626C203.602,368.233,205.225,369.856,205.225,371.859z"/>
				<path style="fill:#233863;" d="M154.284,371.859c0,2.003-1.623,3.626-3.626,3.626c-2.003,0-3.626-1.623-3.626-3.626
					c0-2.003,1.624-3.626,3.626-3.626C152.661,368.233,154.284,369.856,154.284,371.859z"/>
			</g>
		</g>
		<g>
			<g>
				<path style="fill:#233863;" d="M142.792,311.45c-2.189,9.781-11.893,15.937-21.674,13.748
					c-9.782-2.189-15.937-11.892-13.748-21.674c2.189-9.781,11.893-15.937,21.674-13.748
					C138.826,291.965,144.981,301.669,142.792,311.45z"/>
			</g>
			<g>
				<g>
					
						<ellipse transform="matrix(0.5551 -0.8318 0.8318 0.5551 -199.6667 238.9914)" style="fill:#233863;" cx="123.589" cy="306.155" rx="18.149" ry="18.149"/>
					<g>
						
							<ellipse transform="matrix(0.5551 -0.8318 0.8318 0.5551 -199.6667 238.9914)" style="fill:#FFB44F;" cx="123.589" cy="306.155" rx="18.149" ry="18.149"/>
						<path style="fill:#233863;" d="M123.591,325.306c-1.381,0-2.781-0.15-4.184-0.465c-4.991-1.116-9.249-4.11-11.989-8.43
							c-2.739-4.319-3.633-9.447-2.516-14.439c1.116-4.991,4.11-9.249,8.43-11.988c4.318-2.739,9.443-3.636,14.438-2.517
							c4.991,1.116,9.249,4.11,11.988,8.43c2.74,4.319,3.634,9.446,2.517,14.439l0,0
							C140.283,319.237,132.355,325.306,123.591,325.306z M123.556,289c-3.216,0-6.371,0.909-9.152,2.674
							c-3.868,2.453-6.55,6.267-7.55,10.737c-1,4.47-0.2,9.061,2.254,12.93c2.453,3.868,6.267,6.55,10.737,7.55
							c9.224,2.06,18.413-3.763,20.479-12.991c1-4.47,0.199-9.062-2.254-12.93c-2.454-3.868-6.267-6.55-10.737-7.55
							C126.077,289.139,124.812,289,123.556,289z M141.3,310.118h0.01H141.3z"/>
					</g>
					<path style="fill:#FFFFFF;" d="M123.606,321.151c-1.095,0-2.197-0.121-3.292-0.365l0,0
						c-8.066-1.806-13.161-9.838-11.356-17.905c0.873-3.901,3.219-7.232,6.604-9.38c3.385-2.146,7.395-2.849,11.301-1.977
						c8.067,1.807,13.162,9.838,11.356,17.904c-0.873,3.902-3.219,7.233-6.604,9.381
						C129.179,320.354,126.417,321.151,123.606,321.151z M120.479,320.053c3.707,0.829,7.519,0.163,10.734-1.877
						c3.217-2.04,5.444-5.205,6.273-8.912c1.716-7.662-3.124-15.292-10.788-17.008c-3.706-0.829-7.519-0.162-10.734,1.877
						c-3.217,2.04-5.444,5.205-6.273,8.911C107.976,310.708,112.815,318.339,120.479,320.053L120.479,320.053z"/>
					<path style="fill:#FFFFFF;" d="M123.428,319.492c-0.965,0-1.942-0.105-2.922-0.324c-7.194-1.61-11.738-8.774-10.129-15.969
						c0.779-3.48,2.871-6.451,5.891-8.366c3.019-1.916,6.599-2.539,10.078-1.763c7.194,1.609,11.738,8.773,10.129,15.969
						C135.084,315.254,129.548,319.491,123.428,319.492z M123.41,293.494c-2.366,0-4.69,0.671-6.741,1.972
						c-2.85,1.809-4.824,4.612-5.56,7.897c-1.52,6.791,2.77,13.553,9.561,15.072c3.286,0.735,6.664,0.145,9.513-1.664
						c2.851-1.808,4.825-4.612,5.56-7.896c0.735-3.284,0.145-6.663-1.664-9.513c-1.808-2.851-4.612-4.825-7.896-5.56l0,0
						C125.261,293.596,124.332,293.494,123.41,293.494z"/>
					<g>
						<path style="fill:#233863;" d="M127.851,309.253c-0.258,1.151-0.968,2.161-1.941,2.796c-0.656,0.442-1.385,0.689-2.164,0.736
							l-0.188,0.841c-0.09,0.401-0.325,0.748-0.658,0.969c-0.333,0.22-0.74,0.297-1.141,0.207c-0.431-0.096-0.767-0.339-0.983-0.682
							c-0.218-0.344-0.304-0.763-0.214-1.164l0.152-0.682l-1.394-0.312c-0.631-0.142-1.107-0.458-1.393-0.869
							c-0.277-0.409-0.361-0.923-0.238-1.475c0.244-1.092,1.1-1.479,2.422-1.184l3.298,0.737c0.13,0.029,0.321,0.02,0.477-0.061
							c0.198-0.092,0.317-0.244,0.362-0.445c0.065-0.289-0.003-0.505-0.198-0.665c-0.1-0.074-0.165-0.11-0.213-0.131
							c-0.068-0.026-0.106-0.045-0.106-0.045l-1.573-0.353c-1.085-0.274-2.001-0.932-2.573-1.807
							c-0.57-0.886-0.786-1.944-0.542-3.036c0.254-1.133,0.979-2.117,1.961-2.74c0.785-0.497,1.713-0.742,2.639-0.693l0.125-0.561
							c0.093-0.411,0.321-0.729,0.689-0.961c0.354-0.226,0.75-0.295,1.17-0.201c0.392,0.087,0.727,0.33,0.944,0.675
							c0.224,0.364,0.285,0.747,0.192,1.157l-0.111,0.501l0.531,0.119c1.312,0.294,1.943,1.098,1.699,2.19
							c-0.27,1.203-1.186,1.672-2.498,1.378l-3.076-0.689c-0.352-0.078-0.634,0.1-0.705,0.421c-0.074,0.331,0.047,0.642,0.336,0.706
							l1.514,0.339c1.173,0.263,2.163,0.916,2.794,1.815C127.884,306.986,128.109,308.099,127.851,309.253z"/>
					</g>
				</g>
				<path style="fill:#233863;" d="M133.446,308.935c-0.158,0.706-0.858,1.15-1.564,0.992c-0.706-0.158-1.15-0.858-0.992-1.564
					c0.158-0.706,0.858-1.15,1.564-0.992C133.16,307.529,133.604,308.229,133.446,308.935z"/>
				<path style="fill:#233863;" d="M115.49,304.917c-0.158,0.706-0.858,1.15-1.564,0.992c-0.706-0.158-1.15-0.858-0.992-1.564
					c0.158-0.706,0.858-1.15,1.564-0.992C115.204,303.511,115.648,304.211,115.49,304.917z"/>
			</g>
		</g>
		<g>
			<g>
				
					<ellipse transform="matrix(0.7797 -0.6262 0.6262 0.7797 -200.9688 136.7977)" style="fill:#233863;" cx="93.901" cy="353.969" rx="24.44" ry="24.44"/>
			</g>
		</g>
		<g>
			
				<ellipse transform="matrix(0.0234 -0.9997 0.9997 0.0234 -264.1072 436.3387)" style="fill:#233863;" cx="91.279" cy="353.348" rx="24.44" ry="24.44"/>
			<g>
				
					<ellipse transform="matrix(0.0234 -0.9997 0.9997 0.0234 -264.1072 436.3387)" style="fill:#FFB44F;" cx="91.279" cy="353.348" rx="24.44" ry="24.44"/>
				<path style="fill:#233863;" d="M91.289,379.291c-11.312,0-21.737-7.466-24.969-18.874c-3.897-13.763,4.129-28.13,17.891-32.028
					c13.769-3.896,28.131,4.13,32.027,17.891c3.897,13.763-4.128,28.13-17.89,32.027C95.994,378.973,93.623,379.291,91.289,379.291z
					 M91.313,330.397c-2.099,0-4.21,0.291-6.284,0.879c-12.171,3.447-19.269,16.153-15.822,28.323
					c3.447,12.171,16.152,19.267,28.323,15.821c5.896-1.669,10.789-5.535,13.776-10.885c2.988-5.349,3.715-11.542,2.045-17.438
					c-1.669-5.897-5.535-10.789-10.885-13.777C99,331.384,95.178,330.397,91.313,330.397z"/>
			</g>
			<path style="fill:#FFFFFF;" d="M91.287,373.41c-8.747,0-16.809-5.773-19.308-14.595c-3.014-10.643,3.192-21.753,13.834-24.767
				c5.147-1.46,10.561-0.82,15.244,1.796c4.683,2.616,8.064,6.892,9.521,12.038c1.458,5.147,0.82,10.562-1.796,15.244
				c-2.615,4.683-6.891,8.064-12.037,9.521C94.925,373.164,93.091,373.41,91.287,373.41z M91.292,334.033
				c-1.763,0-3.533,0.244-5.273,0.736C75.774,337.671,69.8,348.366,72.7,358.61c2.903,10.245,13.604,16.215,23.841,13.317l0,0
				c4.954-1.403,9.069-4.658,11.588-9.167c2.519-4.508,3.133-9.719,1.729-14.673c-1.403-4.955-4.658-9.07-9.167-11.589
				C97.767,334.866,94.546,334.033,91.292,334.033z"/>
			<path style="fill:#FFFFFF;" d="M91.05,371.291c-3.013,0-5.993-0.771-8.701-2.282c-4.173-2.332-7.187-6.142-8.485-10.728
				c-1.3-4.588-0.731-9.412,1.6-13.585c2.332-4.174,6.142-7.188,10.729-8.485l0,0c4.589-1.301,9.413-0.73,13.585,1.6
				c4.174,2.332,7.188,6.142,8.485,10.729c1.3,4.587,0.731,9.411-1.6,13.585c-2.332,4.173-6.142,7.186-10.729,8.485
				C94.323,371.066,92.682,371.291,91.05,371.291z M91.075,336.278c-1.563,0-3.134,0.217-4.678,0.653l0,0
				c-4.395,1.245-8.045,4.132-10.278,8.13c-2.233,3.999-2.778,8.621-1.534,13.015c1.245,4.395,4.133,8.045,8.131,10.278
				c3.999,2.234,8.623,2.776,13.014,1.534c4.395-1.245,8.045-4.133,10.278-8.131c2.233-3.998,2.778-8.62,1.534-13.014
				c-1.245-4.395-4.132-8.045-8.13-10.278C96.818,337.016,93.961,336.278,91.075,336.278z"/>
			<g>
				<path style="fill:#233863;" d="M98.321,354.277c0.434,1.531,0.239,3.182-0.507,4.559c-0.495,0.946-1.2,1.707-2.093,2.262
					l0.316,1.119c0.151,0.532,0.095,1.094-0.16,1.569c-0.252,0.475-0.687,0.826-1.219,0.977c-0.572,0.162-1.125,0.089-1.604-0.179
					c-0.479-0.267-0.848-0.708-0.999-1.241l-0.257-0.906l-1.852,0.525c-0.838,0.237-1.607,0.167-2.21-0.137
					c-0.591-0.308-1.021-0.861-1.228-1.594c-0.412-1.451,0.353-2.459,2.11-2.957l4.382-1.24c0.173-0.049,0.393-0.184,0.525-0.379
					c0.177-0.237,0.219-0.494,0.144-0.762c-0.109-0.386-0.326-0.597-0.661-0.66c-0.165-0.025-0.266-0.025-0.336-0.02
					c-0.098,0.012-0.154,0.014-0.154,0.014l-2.091,0.592c-1.463,0.373-2.97,0.18-4.21-0.49c-1.243-0.683-2.179-1.8-2.59-3.25
					c-0.426-1.506-0.197-3.139,0.565-4.504c0.611-1.094,1.556-1.98,2.684-2.516l-0.211-0.746c-0.155-0.545-0.087-1.068,0.2-1.581
					c0.275-0.495,0.699-0.831,1.258-0.989c0.52-0.146,1.072-0.073,1.551,0.193c0.499,0.291,0.818,0.704,0.973,1.25l0.188,0.666
					l0.705-0.199c1.745-0.494,3.008,0.055,3.419,1.505c0.453,1.599-0.332,2.741-2.076,3.235l-4.088,1.157
					c-0.467,0.132-0.686,0.525-0.564,0.95c0.125,0.44,0.466,0.732,0.853,0.623l2.011-0.57c1.558-0.44,3.149-0.302,4.474,0.358
					C96.907,351.57,97.887,352.746,98.321,354.277z"/>
			</g>
		</g>
		<path style="fill:#233863;" d="M104.735,350.322c0.265,0.937-0.279,1.912-1.216,2.178c-0.937,0.265-1.912-0.279-2.178-1.216
			c-0.265-0.937,0.279-1.912,1.216-2.178C103.495,348.84,104.47,349.384,104.735,350.322z"/>
		<path style="fill:#233863;" d="M80.895,357.073c0.266,0.937-0.279,1.912-1.216,2.178c-0.937,0.265-1.912-0.279-2.178-1.216
			c-0.265-0.937,0.279-1.912,1.216-2.178C79.654,355.592,80.629,356.136,80.895,357.073z"/>
	</g>
	<g>
		<g>
			<path style="fill:#233863;" d="M272.591,257.747l-104.073-5.188c-4.883-0.243-8.645-4.4-8.402-9.283l7.805-156.57
				c0.736-14.776,13.312-26.157,28.088-25.42l69.083,3.444c14.776,0.737,26.157,13.312,25.42,28.088l-7.763,155.737
				C282.483,253.897,277.935,258.013,272.591,257.747z"/>
			<g>
				<path style="fill:#FFFFFF;" d="M265.896,257.747l-104.073-5.188c-4.883-0.243-8.645-4.4-8.402-9.283l7.805-156.57
					c0.737-14.776,13.312-26.157,28.088-25.42l69.084,3.444c14.776,0.737,26.157,13.312,25.42,28.088l-7.763,155.737
					C275.787,253.897,271.239,258.013,265.896,257.747z"/>
				<path style="fill:#233863;" d="M266.383,259.259c-0.187,0-0.373-0.004-0.562-0.014l0,0l-104.073-5.188
					c-5.702-0.284-10.109-5.154-9.825-10.856l7.805-156.57c0.376-7.546,3.668-14.494,9.271-19.564
					c5.604-5.07,12.864-7.654,20.39-7.279l69.083,3.443c15.579,0.777,27.621,14.083,26.845,29.661l-7.764,155.737
					C277.254,254.601,272.299,259.259,266.383,259.259z M265.97,256.249c4.546,0.229,8.361-3.263,8.586-7.77l7.764-155.737
					c0.694-13.926-10.071-25.821-23.997-26.515l-69.083-3.443c-6.749-0.336-13.22,1.974-18.228,6.507
					c-5.009,4.533-7.952,10.744-8.288,17.49l-7.805,156.57c-0.201,4.05,2.929,7.509,6.978,7.71L265.97,256.249z"/>
			</g>
			<g>
				<g>
					<path style="fill:#FFFFFF;" d="M257.152,64.699l0.002-0.032l-98.465-4.908c-11.333-0.565-20.998,8.561-21.587,20.384
						l-0.405,8.131l99.579,4.964l0.405-8.132C237.25,73.674,246.307,64.764,257.152,64.699z"/>
					<path style="fill:#233863;" d="M236.275,94.738c-0.024,0-0.05-0.001-0.074-0.002l-99.579-4.964
						c-0.828-0.041-1.465-0.745-1.424-1.573l0.405-8.131c0.304-6.106,2.873-11.736,7.232-15.854
						c4.378-4.133,10.03-6.248,15.927-5.954l98.466,4.909c0.4,0.02,0.776,0.199,1.043,0.498c0.268,0.298,0.404,0.691,0.38,1.091
						c-0.048,0.788-0.7,1.437-1.49,1.441c-10.117,0.06-18.455,8.398-18.982,18.982l-0.405,8.131
						c-0.02,0.397-0.196,0.771-0.491,1.038C237.006,94.6,236.646,94.738,236.275,94.738z M138.27,86.851l96.582,4.814l0.331-6.633
						c0.423-8.496,5.25-15.733,12.107-19.354l-88.676-4.421c-5.076-0.248-9.941,1.572-13.719,5.139
						c-3.794,3.583-6.03,8.492-6.296,13.822L138.27,86.851z"/>
				</g>
			</g>
			<g style="opacity:0.11;">
				<path style="fill:#233863;" d="M257.152,64.699l0.002-0.032l-98.465-4.908c-11.333-0.565-20.998,8.561-21.587,20.384
					l-0.405,8.131l99.579,4.964l0.405-8.132C237.25,73.674,246.307,64.764,257.152,64.699z"/>
			</g>
			<g>
				<line style="fill:#FFFFFF;" x1="183.827" y1="105.156" x2="208.926" y2="106.407"/>
				<path style="fill:#233863;" d="M208.927,107.907c-0.025,0-0.05-0.001-0.075-0.002l-25.099-1.251
					c-0.828-0.041-1.465-0.745-1.424-1.573c0.041-0.827,0.769-1.465,1.572-1.423L209,104.909c0.828,0.041,1.465,0.745,1.424,1.573
					C210.384,107.284,209.721,107.907,208.927,107.907z"/>
			</g>
			<g>
				<line style="fill:#FFFFFF;" x1="240.741" y1="108.719" x2="265.841" y2="109.97"/>
				<path style="fill:#233863;" d="M265.842,111.47c-0.025,0-0.05,0-0.075-0.002l-25.1-1.252c-0.828-0.041-1.465-0.745-1.424-1.573
					c0.041-0.827,0.767-1.467,1.572-1.423l25.1,1.251c0.828,0.041,1.465,0.745,1.424,1.573
					C267.299,110.847,266.636,111.47,265.842,111.47z"/>
			</g>
			<g>
				<line style="fill:#FFFFFF;" x1="182.352" y1="134.749" x2="232.204" y2="136.925"/>
				<path style="fill:#233863;" d="M232.204,138.425c-0.021,0-0.044,0-0.066-0.001l-49.852-2.176
					c-0.827-0.036-1.47-0.736-1.434-1.564c0.036-0.827,0.704-1.475,1.565-1.433l49.852,2.176c0.827,0.036,1.47,0.736,1.434,1.564
					C233.667,137.796,233.003,138.425,232.204,138.425z"/>
			</g>
			<g>
				<line style="fill:#FFFFFF;" x1="180.96" y1="151.053" x2="201.747" y2="152.215"/>
				<path style="fill:#233863;" d="M201.748,153.715c-0.028,0-0.057-0.001-0.085-0.002l-20.787-1.162
					c-0.827-0.046-1.46-0.754-1.414-1.581c0.047-0.827,0.756-1.455,1.582-1.414l20.787,1.162c0.827,0.046,1.46,0.754,1.414,1.581
					C203.2,153.097,202.538,153.715,201.748,153.715z"/>
			</g>
			<g>
				<line style="fill:#FFFFFF;" x1="183.089" y1="119.965" x2="218.881" y2="121.749"/>
				<path style="fill:#233863;" d="M218.882,123.249c-0.025,0-0.05,0-0.075-0.002l-35.792-1.785
					c-0.828-0.041-1.465-0.745-1.424-1.573c0.042-0.828,0.75-1.463,1.572-1.423l35.792,1.785c0.828,0.041,1.465,0.745,1.424,1.573
					C220.339,122.626,219.676,123.249,218.882,123.249z"/>
			</g>
			<g>
				<line style="fill:#FFFFFF;" x1="227.558" y1="122.182" x2="232.204" y2="122.413"/>
				<path style="fill:#233863;" d="M232.204,123.914c-0.025,0-0.05,0-0.076-0.002l-4.645-0.232
					c-0.827-0.041-1.464-0.746-1.423-1.573c0.042-0.828,0.715-1.474,1.573-1.423l4.646,0.232c0.827,0.041,1.464,0.746,1.423,1.573
					C233.661,123.29,232.998,123.914,232.204,123.914z"/>
			</g>
			<g>
				<path style="fill:#233863;stroke:#FFFFFF;stroke-width:2;stroke-miterlimit:10;" d="M266.433,147.839
					c-0.116,2.727-1.319,5.312-3.272,7.152c-1.313,1.273-2.87,2.134-4.622,2.558l-0.085,1.991c-0.04,0.948-0.434,1.835-1.103,2.47
					c-0.668,0.637-1.561,0.979-2.51,0.938c-1.02-0.043-1.881-0.459-2.516-1.152c-0.636-0.691-0.999-1.61-0.959-2.558l0.068-1.612
					l-3.296-0.14c-1.493-0.063-2.706-0.59-3.525-1.409c-0.797-0.817-1.2-1.951-1.145-3.255c0.11-2.583,1.897-3.814,5.026-3.681
					l7.8,0.332c0.308,0.013,0.739-0.087,1.059-0.334c0.416-0.291,0.622-0.686,0.643-1.161c0.029-0.686-0.212-1.149-0.722-1.432
					c-0.257-0.129-0.421-0.184-0.538-0.213c-0.164-0.031-0.258-0.059-0.258-0.059l-3.723-0.158c-2.581-0.182-4.931-1.302-6.591-3.06
					c-1.657-1.78-2.579-4.099-2.47-6.683c0.114-2.679,1.362-5.215,3.339-7.03c1.582-1.453,3.593-2.389,5.718-2.655l0.057-1.327
					c0.042-0.972,0.433-1.787,1.174-2.468c0.717-0.658,1.584-0.977,2.581-0.935c0.924,0.039,1.785,0.456,2.421,1.148
					c0.657,0.741,0.953,1.585,0.911,2.557l-0.05,1.186l1.257,0.054c3.105,0.132,4.868,1.703,4.758,4.287
					c-0.121,2.845-2.012,4.284-5.117,4.152l-7.277-0.31c-0.829-0.035-1.398,0.487-1.431,1.246c-0.033,0.782,0.366,1.44,1.054,1.47
					l3.58,0.152c2.772,0.118,5.292,1.199,7.092,2.985C265.584,142.673,266.549,145.113,266.433,147.839z"/>
			</g>
			
				<line style="fill:none;stroke:#233863;stroke-width:3;stroke-linecap:round;stroke-miterlimit:10;" x1="138.6" y1="80.217" x2="159.912" y2="81.088"/>
		</g>
		<g>
			<g>
				<g>
					<polyline style="fill:#3AAED5;" points="69.037,163.466 150.293,272.611 219.959,220.747 137.167,109.537 136.451,121.901 
						125.015,119.186 124.335,130.921 113.511,128.351 112.856,139.667 102.236,137.146 101.594,148.252 90.974,145.731 
						90.392,155.79 78.751,153.026 78.047,165.18 69.037,163.466 					"/>
					<path style="fill:#233863;" d="M150.293,274.111c-0.072,0-0.145-0.005-0.218-0.016c-0.394-0.058-0.748-0.27-0.985-0.589
						L67.834,164.361c-0.369-0.496-0.397-1.167-0.068-1.691c0.328-0.524,0.944-0.793,1.552-0.678l7.332,1.395l0.604-10.448
						c0.025-0.443,0.245-0.852,0.602-1.117c0.355-0.265,0.807-0.359,1.242-0.256l9.899,2.351l0.479-8.273
						c0.025-0.443,0.245-0.852,0.601-1.117c0.354-0.265,0.808-0.36,1.242-0.256l8.879,2.108l0.54-9.32
						c0.025-0.443,0.245-0.852,0.602-1.117c0.354-0.265,0.807-0.359,1.242-0.256l8.879,2.108l0.553-9.53
						c0.025-0.443,0.245-0.852,0.602-1.116c0.354-0.265,0.809-0.359,1.242-0.256l9.082,2.156l0.577-9.949
						c0.025-0.443,0.245-0.852,0.602-1.116c0.354-0.265,0.809-0.359,1.242-0.256l9.695,2.302l0.613-10.578
						c0.036-0.629,0.463-1.169,1.066-1.35c0.605-0.181,1.257,0.035,1.634,0.542l82.792,111.21c0.495,0.664,0.357,1.604-0.308,2.099
						l-69.666,51.865C150.929,274.009,150.614,274.111,150.293,274.111z M72.54,165.659l78.061,104.854l67.26-50.074L138.426,113.74
						l-0.478,8.248c-0.025,0.443-0.245,0.852-0.602,1.116c-0.355,0.265-0.808,0.359-1.242,0.256l-9.695-2.302l-0.577,9.949
						c-0.025,0.443-0.245,0.852-0.602,1.116c-0.355,0.265-0.808,0.36-1.242,0.256l-9.082-2.156l-0.553,9.53
						c-0.025,0.443-0.245,0.852-0.602,1.116c-0.354,0.265-0.809,0.36-1.242,0.256l-8.879-2.108l-0.54,9.32
						c-0.025,0.443-0.245,0.852-0.602,1.117c-0.355,0.265-0.808,0.36-1.242,0.256l-8.879-2.108l-0.479,8.273
						c-0.025,0.443-0.245,0.852-0.602,1.117c-0.355,0.265-0.809,0.359-1.242,0.256l-9.899-2.351l-0.601,10.368
						c-0.024,0.431-0.234,0.831-0.574,1.096c-0.341,0.266-0.781,0.37-1.203,0.291L72.54,165.659z"/>
				</g>
				<g>
					<line style="fill:#FFFFFF;" x1="93.901" y1="177.441" x2="115.32" y2="161.495"/>
					<path style="fill:#FFFFFF;" d="M93.901,178.941c-0.458,0-0.91-0.209-1.204-0.605c-0.495-0.664-0.357-1.604,0.308-2.099
						l21.42-15.946c0.663-0.495,1.604-0.357,2.099,0.308c0.495,0.664,0.357,1.604-0.308,2.099l-21.42,15.946
						C94.527,178.844,94.213,178.941,93.901,178.941z"/>
				</g>
				<g>
					<line style="fill:#FFFFFF;" x1="100.24" y1="185.956" x2="139.617" y2="156.641"/>
					<path style="fill:#233863;" d="M100.241,187.456c-0.458,0-0.91-0.209-1.204-0.605c-0.495-0.664-0.357-1.604,0.308-2.099
						l39.377-29.314c0.663-0.495,1.605-0.357,2.099,0.308c0.495,0.664,0.357,1.604-0.308,2.099l-39.377,29.314
						C100.867,187.359,100.553,187.456,100.241,187.456z"/>
				</g>
				<g>
					<line style="fill:#FFFFFF;" x1="143.876" y1="153.47" x2="149.15" y2="149.544"/>
					<path style="fill:#FFFFFF;" d="M143.877,154.97c-0.458,0-0.91-0.209-1.204-0.604c-0.495-0.665-0.357-1.604,0.308-2.099
						l5.274-3.926c0.664-0.495,1.605-0.357,2.099,0.308c0.495,0.665,0.357,1.604-0.308,2.099l-5.274,3.926
						C144.503,154.874,144.189,154.97,143.877,154.97z"/>
				</g>
				<g>
					<line style="fill:#FFFFFF;" x1="109.365" y1="198.213" x2="123.834" y2="187.441"/>
					<path style="fill:#233863;" d="M109.366,199.713c-0.458,0-0.91-0.209-1.204-0.605c-0.495-0.664-0.357-1.604,0.308-2.099
						l14.469-10.771c0.663-0.494,1.605-0.356,2.099,0.308c0.495,0.664,0.357,1.604-0.308,2.099l-14.469,10.771
						C109.992,199.616,109.678,199.713,109.366,199.713z"/>
				</g>
				<g>
					<line style="fill:#FFFFFF;" x1="130.081" y1="182.791" x2="158.275" y2="161.801"/>
					<path style="fill:#233863;" d="M130.082,184.29c-0.458,0-0.91-0.208-1.204-0.604c-0.495-0.664-0.357-1.604,0.308-2.099
						l28.193-20.989c0.663-0.495,1.604-0.358,2.099,0.308c0.495,0.664,0.358,1.604-0.308,2.099l-28.193,20.989
						C130.708,184.194,130.394,184.29,130.082,184.29z"/>
				</g>
				<g>
					<line style="fill:#FFFFFF;" x1="122.764" y1="216.211" x2="154.514" y2="192.574"/>
					<path style="fill:#FFFFFF;" d="M122.765,217.711c-0.458,0-0.91-0.209-1.204-0.604c-0.495-0.664-0.357-1.604,0.308-2.099
						l31.751-23.637c0.663-0.495,1.605-0.357,2.099,0.308c0.495,0.664,0.357,1.604-0.308,2.099l-31.751,23.637
						C123.391,217.615,123.076,217.711,122.765,217.711z"/>
				</g>
				<g>
					<line style="fill:#FFFFFF;" x1="169.852" y1="207.926" x2="184.497" y2="197.023"/>
					<path style="fill:#233863;" d="M169.854,209.426c-0.458,0-0.91-0.209-1.204-0.604c-0.495-0.664-0.357-1.604,0.308-2.099
						l14.645-10.902c0.664-0.494,1.605-0.357,2.099,0.308c0.495,0.664,0.357,1.604-0.308,2.099l-14.645,10.902
						C170.48,209.329,170.165,209.426,169.854,209.426z"/>
				</g>
			</g>
		</g>
		<g>
			<g>
				<g>
					<polyline style="fill:#FFB44F;" points="178.762,143.063 168.642,224.229 230.43,231.933 240.741,149.232 234.375,154.187 
						229.672,148.144 223.629,152.847 219.178,147.128 213.351,151.663 208.984,146.052 203.265,150.503 198.898,144.892 
						193.718,148.923 188.931,142.772 182.673,147.643 178.843,142.722 					"/>
					<path style="fill:#233863;" d="M230.43,233.433c-0.062,0-0.124-0.004-0.186-0.012l-61.788-7.704
						c-0.822-0.102-1.405-0.852-1.303-1.674l10.12-81.165c0.015-0.115,0.041-0.226,0.079-0.331c0.046-0.385,0.239-0.752,0.569-1.009
						c0.651-0.51,1.595-0.392,2.104,0.262l2.909,3.737l5.075-3.949c0.314-0.244,0.713-0.353,1.107-0.305
						c0.395,0.049,0.754,0.253,0.998,0.567l3.865,4.967l3.996-3.109c0.652-0.51,1.595-0.392,2.105,0.262l3.446,4.427l4.536-3.529
						c0.652-0.51,1.595-0.392,2.104,0.262l3.445,4.427l4.644-3.613c0.652-0.51,1.595-0.392,2.104,0.262l3.53,4.535l4.859-3.781
						c0.652-0.511,1.595-0.391,2.104,0.262l3.782,4.859l5.183-4.033c0.478-0.373,1.134-0.421,1.662-0.121
						c0.527,0.3,0.822,0.888,0.747,1.49l-10.312,82.7c-0.049,0.395-0.253,0.754-0.567,0.998
						C231.086,233.322,230.762,233.433,230.43,233.433z M170.315,222.926l58.812,7.333l9.678-77.619l-3.509,2.73
						c-0.653,0.509-1.596,0.392-2.104-0.262l-3.782-4.859l-4.859,3.781c-0.653,0.509-1.596,0.391-2.105-0.262l-3.53-4.535
						l-4.643,3.613c-0.314,0.245-0.713,0.356-1.107,0.305c-0.395-0.049-0.754-0.253-0.998-0.567l-3.445-4.427l-4.536,3.529
						c-0.653,0.509-1.596,0.391-2.104-0.262l-3.446-4.427l-3.996,3.109c-0.314,0.244-0.712,0.357-1.107,0.305
						c-0.395-0.049-0.754-0.253-0.998-0.567l-3.865-4.967l-5.075,3.949c-0.653,0.509-1.597,0.391-2.104-0.262l-1.64-2.106
						L170.315,222.926z"/>
				</g>
				<path style="fill:#FFFFFF;" d="M204.073,163.004c-0.041,0-0.083-0.002-0.125-0.008l-18.997-2.369
					c-0.548-0.068-0.937-0.568-0.868-1.116c0.067-0.548,0.565-0.941,1.116-0.869l18.997,2.369c0.548,0.068,0.936,0.568,0.868,1.116
					C205.002,162.634,204.57,163.004,204.073,163.004z"/>
				<g>
					<line style="fill:#FFFFFF;" x1="184.285" y1="165.967" x2="219.209" y2="170.322"/>
					<path style="fill:#233863;" d="M219.21,171.322c-0.041,0-0.083-0.002-0.125-0.008l-34.924-4.354
						c-0.548-0.068-0.937-0.568-0.868-1.116c0.068-0.548,0.561-0.938,1.116-0.869l34.924,4.355c0.548,0.068,0.937,0.568,0.868,1.116
						C220.139,170.952,219.707,171.322,219.21,171.322z"/>
				</g>
				<path style="fill:#FFFFFF;" d="M227.665,172.376c-0.041,0-0.083-0.003-0.125-0.008l-4.677-0.583
					c-0.548-0.068-0.936-0.568-0.868-1.116c0.067-0.548,0.563-0.939,1.116-0.869l4.677,0.583c0.548,0.068,0.936,0.568,0.868,1.116
					C228.594,172.006,228.162,172.376,227.665,172.376z"/>
				<g>
					<line style="fill:#FFFFFF;" x1="183.149" y1="175.082" x2="195.982" y2="176.682"/>
					<path style="fill:#233863;" d="M195.982,177.682c-0.041,0-0.083-0.002-0.125-0.008l-12.833-1.6
						c-0.548-0.068-0.936-0.568-0.868-1.116c0.067-0.548,0.57-0.937,1.116-0.869l12.833,1.6c0.548,0.068,0.937,0.568,0.868,1.116
						C196.911,177.312,196.48,177.682,195.982,177.682z"/>
				</g>
				<g>
					<line style="fill:#FFFFFF;" x1="201.522" y1="177.373" x2="226.528" y2="180.491"/>
					<path style="fill:#233863;" d="M226.528,181.491c-0.041,0-0.083-0.002-0.125-0.008l-25.005-3.118
						c-0.548-0.068-0.937-0.568-0.868-1.116c0.067-0.548,0.567-0.941,1.116-0.869l25.005,3.118c0.548,0.068,0.937,0.568,0.868,1.116
						C227.457,181.121,227.025,181.491,226.528,181.491z"/>
				</g>
				<g>
					<line style="fill:#FFFFFF;" x1="181.48" y1="188.466" x2="209.64" y2="191.977"/>
					<path style="fill:#233863;" d="M209.641,192.977c-0.041,0-0.083-0.002-0.125-0.008l-28.159-3.511
						c-0.548-0.068-0.936-0.568-0.868-1.116c0.068-0.548,0.56-0.939,1.116-0.869l28.159,3.511c0.548,0.068,0.936,0.568,0.868,1.116
						C210.569,192.607,210.138,192.977,209.641,192.977z"/>
				</g>
				<g>
					<line style="fill:#FFFFFF;" x1="210.273" y1="205.064" x2="223.262" y2="206.684"/>
					<path style="fill:#233863;" d="M223.264,208.184c-0.062,0-0.124-0.004-0.188-0.012l-12.988-1.619
						c-0.822-0.102-1.405-0.852-1.303-1.674c0.102-0.822,0.84-1.407,1.674-1.303l12.988,1.619c0.822,0.102,1.405,0.852,1.303,1.674
						C224.655,207.628,224.009,208.184,223.264,208.184z"/>
				</g>
			</g>
		</g>
	</g>
	<g>
		<g>
			<g>
				<path style="fill:#3D85FD;" d="M345.722,293.2l-161.329,38.948c-5.082,1.227-10.197-1.898-11.424-6.981L147.297,218.83
					c-1.227-5.082,1.898-10.197,6.981-11.424l161.329-38.948c5.082-1.227,10.197,1.898,11.424,6.981l25.672,106.337
					C353.93,286.858,350.805,291.973,345.722,293.2z"/>
				<path style="fill:#233863;" d="M182.15,333.916c-1.993,0-3.953-0.547-5.697-1.612c-2.499-1.527-4.255-3.937-4.942-6.784
					l-25.672-106.338c-1.419-5.878,2.209-11.815,8.087-13.234L315.256,167c5.874-1.42,11.813,2.208,13.233,8.086l25.672,106.338
					c1.419,5.877-2.209,11.814-8.086,13.233c0,0,0,0-0.001,0l-161.33,38.947C183.884,333.814,183.014,333.916,182.15,333.916z
					 M317.829,169.693c-0.617,0-1.244,0.072-1.87,0.223l-161.33,38.948c-4.27,1.031-6.904,5.344-5.874,9.614l25.672,106.338
					c0.5,2.068,1.774,3.818,3.591,4.929c1.816,1.108,3.957,1.446,6.022,0.945l161.331-38.947h-0.001
					c4.271-1.031,6.905-5.344,5.875-9.614L325.573,175.79C324.693,172.146,321.423,169.693,317.829,169.693z M345.723,293.2h0.01
					H345.723z"/>
			</g>
			<path style="opacity:0.36;fill:#233863;" d="M296.323,171.377l-47.407,11.558l11.019,45.199
				c1.43,5.864-3.583,12.122-11.195,13.977h0c-14.455,3.524-23.973,15.407-21.259,26.541l0,0c1.148,4.711-2.879,9.739-8.995,11.23h0
				c-17.074,4.162-28.315,18.198-25.109,31.348l4.339,17.797l144.835-35.31c7.16-1.746,11.549-8.965,9.804-16.125l-24.01-98.484
				c-1.975-8.101-10.143-13.067-18.243-11.092L296.323,171.377z"/>
			<g>
				<path style="fill:#233863;" d="M209.29,272.442l-21.912,5.342c-0.548,0.134-1.101-0.202-1.234-0.751l-1.118-4.586
					c-0.134-0.548,0.202-1.101,0.751-1.234l21.912-5.342c0.548-0.134,1.101,0.202,1.234,0.751l1.118,4.587
					C210.174,271.756,209.838,272.308,209.29,272.442z"/>
				<path style="fill:#233863;" d="M237.368,265.597l-21.912,5.342c-0.548,0.134-1.101-0.202-1.234-0.751l-1.118-4.586
					c-0.134-0.548,0.202-1.101,0.751-1.234l21.912-5.342c0.548-0.134,1.101,0.202,1.234,0.751l1.118,4.586
					C238.253,264.91,237.917,265.463,237.368,265.597z"/>
				<path style="fill:#233863;" d="M264.85,258.897l-21.912,5.342c-0.548,0.134-1.101-0.202-1.234-0.75l-1.118-4.587
					c-0.134-0.548,0.202-1.101,0.751-1.234l21.912-5.342c0.548-0.134,1.101,0.202,1.234,0.751l1.118,4.587
					C265.734,258.211,265.398,258.763,264.85,258.897z"/>
				<path style="fill:#233863;" d="M292.331,252.197l-21.912,5.342c-0.548,0.134-1.101-0.202-1.234-0.751l-1.118-4.587
					c-0.134-0.548,0.202-1.101,0.751-1.234l21.912-5.342c0.548-0.134,1.101,0.202,1.235,0.751l1.118,4.587
					C293.215,251.511,292.879,252.064,292.331,252.197z"/>
				<path style="fill:#FFFFFF;" d="M208.569,288.707l-18.037,4.397c-0.548,0.134-1.101-0.202-1.234-0.751l-0.551-2.262
					c-0.134-0.548,0.202-1.101,0.751-1.234l18.037-4.397c0.548-0.134,1.101,0.202,1.234,0.75l0.551,2.262
					C209.454,288.021,209.117,288.574,208.569,288.707z"/>
				<path style="fill:#FFFFFF;" d="M312.942,188.295l-18.318,3.021c-0.557,0.092-1.082-0.285-1.174-0.842l-0.379-2.297
					c-0.092-0.557,0.285-1.082,0.842-1.174l18.318-3.021c0.557-0.092,1.082,0.285,1.174,0.842l0.379,2.297
					C313.875,187.677,313.499,188.203,312.942,188.295z"/>
				<path style="fill:#FFFFFF;" d="M245.907,206.09l-72.444,17.661c-0.738,0.18-1.481-0.272-1.661-1.01l-0.742-3.044
					c-0.18-0.738,0.272-1.481,1.01-1.661l72.444-17.661c0.738-0.18,1.481,0.272,1.661,1.01l0.742,3.044
					C247.097,205.167,246.645,205.911,245.907,206.09z"/>
				<path style="fill:#FFFFFF;" d="M234.126,282.364l-18.037,4.397c-0.548,0.134-1.101-0.202-1.235-0.751l-0.551-2.262
					c-0.134-0.548,0.202-1.101,0.751-1.234l18.037-4.397c0.548-0.134,1.101,0.202,1.234,0.751l0.551,2.262
					C235.01,281.678,234.674,282.23,234.126,282.364z"/>
				<path style="fill:#FFFFFF;" d="M259.054,276.484l-18.037,4.397c-0.548,0.134-1.101-0.202-1.234-0.751l-0.552-2.262
					c-0.134-0.548,0.202-1.101,0.751-1.234l18.037-4.397c0.548-0.134,1.101,0.202,1.234,0.75l0.552,2.262
					C259.938,275.798,259.602,276.351,259.054,276.484z"/>
				<path style="fill:#FFB44F;" d="M211.151,301.893l-18.037,4.397c-0.548,0.134-1.101-0.202-1.234-0.751l-0.551-2.262
					c-0.134-0.548,0.202-1.101,0.751-1.235l18.037-4.397c0.548-0.134,1.101,0.202,1.234,0.751l0.551,2.262
					C212.035,301.206,211.699,301.759,211.151,301.893z"/>
			</g>
			<g>
				<g>
					<path style="fill:#FFB44F;" d="M210.994,252.673l-26.377,6.368c-1.459,0.352-2.928-0.545-3.28-2.004l-1.916-7.935l-1.76-7.291
						c-0.352-1.459,0.545-2.928,2.005-3.28l26.376-6.368c1.459-0.352,2.928,0.545,3.28,2.004l3.676,15.226
						C213.35,250.852,212.453,252.32,210.994,252.673z"/>
					<g>
						<g>
							<line style="fill:#FFB44F;" x1="177.778" y1="249.625" x2="211.032" y2="241.249"/>
							<path style="fill:#3D85FD;" d="M177.777,251.125c-0.671,0-1.282-0.454-1.453-1.134c-0.203-0.803,0.284-1.619,1.088-1.821
								l33.254-8.376c0.804-0.201,1.619,0.285,1.82,1.088c0.203,0.803-0.284,1.619-1.088,1.821l-33.254,8.376
								C178.021,251.11,177.898,251.125,177.777,251.125z"/>
						</g>
					</g>
				</g>
				<g>
					<path style="fill:#FFB44F;" d="M200.046,244.836c0.268,2.785-1.772,5.261-4.557,5.529c-2.785,0.268-5.261-1.772-5.529-4.557
						c-0.268-2.785,1.772-5.261,4.557-5.529C197.302,240.01,199.777,242.051,200.046,244.836z"/>
					<path style="fill:#3D85FD;" d="M194.998,251.889c-3.34,0-6.205-2.546-6.532-5.937c-0.168-1.746,0.354-3.453,1.47-4.807
						c1.115-1.354,2.691-2.191,4.438-2.359c3.601-0.348,6.818,2.302,7.166,5.906c0.348,3.604-2.303,6.819-5.907,7.167
						C195.42,251.879,195.208,251.889,194.998,251.889z M195.009,241.755c-0.115,0-0.232,0.006-0.349,0.017
						c-0.948,0.091-1.804,0.546-2.41,1.281c-0.605,0.735-0.89,1.662-0.798,2.61c0.188,1.958,1.927,3.399,3.893,3.208
						c0.948-0.091,1.804-0.547,2.41-1.282c0.605-0.735,0.89-1.662,0.798-2.61c-0.092-0.948-0.547-1.804-1.282-2.41
						C196.626,242.039,195.834,241.755,195.009,241.755z"/>
				</g>
			</g>
			<g>
				<path style="fill:#FFFFFF;" d="M311.965,275.804c-0.783-2.759-0.296-5.571,1.099-7.834c-2.12-1.066-4.626-1.381-7.089-0.683
					c-5.222,1.481-8.254,6.915-6.773,12.137c1.481,5.222,6.915,8.254,12.137,6.773c2.463-0.699,4.43-2.283,5.674-4.303
					C314.638,280.701,312.747,278.563,311.965,275.804z"/>
				<path style="fill:#FFB44F;" d="M322.089,262.754c-2.463,0.699-4.43,2.283-5.674,4.303c-1.395,2.263-1.881,5.075-1.099,7.834
					c0.783,2.759,2.673,4.897,5.048,6.091c2.12,1.066,4.626,1.381,7.089,0.683c5.222-1.481,8.255-6.915,6.773-12.137
					C332.745,264.306,327.311,261.273,322.089,262.754z"/>
			</g>
		</g>
	</g>
	<g>
		<g>
			<g>
				<path style="fill:#233863;" d="M328.763,88.994c0.118-0.24,0.304-0.45,0.551-0.596l16.285-9.632
					c0.673-0.398,1.542-0.174,1.941,0.498c0.397,0.676,0.17,1.542-0.498,1.941l-16.285,9.632c-0.673,0.398-1.542,0.174-1.941-0.498
					C328.563,89.911,328.56,89.407,328.763,88.994z"/>
				<path style="fill:#233863;" d="M317.687,86.386c-0.022-0.191-0.006-0.388,0.055-0.583l7.845-25.167
					c0.232-0.747,1.026-1.163,1.773-0.93c0.746,0.232,1.164,1.027,0.93,1.773l-7.845,25.167c-0.232,0.747-1.026,1.164-1.773,0.93
					C318.121,87.404,317.75,86.925,317.687,86.386z"/>
				<path style="fill:#233863;" d="M290.528,62.798c-0.314-0.679-0.045-1.492,0.624-1.846c0.691-0.365,1.549-0.101,1.914,0.59
					l13.414,25.377c0.355,0.717,0.101,1.549-0.59,1.914c-0.691,0.365-1.549,0.101-1.914-0.59l-13.415-25.377
					C290.55,62.844,290.539,62.821,290.528,62.798z"/>
			</g>
			<g>
				<path style="fill:#233863;" d="M250.406,397.921c-0.123,0.196-0.302,0.36-0.527,0.464l-14.879,6.836
					c-0.615,0.283-1.343,0.012-1.626-0.602c-0.281-0.617-0.009-1.343,0.602-1.626l14.879-6.836c0.615-0.283,1.343-0.012,1.626,0.602
					C250.66,397.149,250.618,397.583,250.406,397.921z"/>
				<path style="fill:#233863;" d="M259.707,401.155c0.002,0.166-0.03,0.335-0.1,0.497l-9.001,20.963
					c-0.267,0.622-0.987,0.91-1.609,0.642c-0.621-0.267-0.911-0.988-0.643-1.61l9.001-20.963c0.267-0.622,0.987-0.91,1.609-0.642
					C259.424,400.24,259.702,400.685,259.707,401.155z"/>
				<path style="fill:#233863;" d="M280.979,423.886c0.209,0.612-0.095,1.288-0.702,1.533c-0.628,0.253-1.342-0.051-1.595-0.679
					l-9.28-23.043c-0.241-0.649,0.052-1.343,0.679-1.595c0.628-0.253,1.342,0.051,1.595,0.679l9.28,23.043
					C280.964,423.845,280.972,423.866,280.979,423.886z"/>
			</g>
		</g>
		<g>
			<g>
				<path style="fill:#FFB44F;" d="M94.737,251.744l-0.675-17.213l29.642,27.56L96.312,291.89l-0.675-17.21
					c0,0-25.58-5.135-41.733,24.618c0,0-5.188-22.024,13.507-38.857C67.411,260.441,75.84,251.915,94.737,251.744L94.737,251.744z
					 M94.737,251.744"/>
				<path style="fill:#233863;" d="M53.904,300.798c-0.065,0-0.132-0.004-0.199-0.014c-0.616-0.082-1.118-0.537-1.261-1.143
					c-0.054-0.229-5.171-23.087,13.963-40.315c0.291-0.298,8.556-8.449,26.771-9.051l-0.615-15.687
					c-0.023-0.607,0.321-1.168,0.873-1.422c0.551-0.252,1.203-0.148,1.648,0.265l29.642,27.561c0.604,0.561,0.642,1.506,0.083,2.113
					l-27.391,29.799c-0.412,0.449-1.052,0.603-1.622,0.393c-0.57-0.21-0.957-0.742-0.981-1.35l-0.627-15.969
					c-5.076-0.579-25.296-1.144-38.964,24.033C54.958,300.501,54.449,300.798,53.904,300.798z M95.703,238.105l0.532,13.58
					c0.016,0.405-0.133,0.8-0.413,1.094c-0.28,0.293-0.667,0.461-1.072,0.465c-18.069,0.162-26.192,8.171-26.273,8.252
					c-13.036,11.74-14.05,26.207-13.63,33.232c16.546-26.09,40.828-21.571,41.084-21.519c0.68,0.137,1.177,0.72,1.204,1.412
					l0.533,13.577l23.921-26.023L95.703,238.105z"/>
			</g>
			<g>
				<path style="fill:#FFB44F;" d="M397.812,310.7l-0.478,17.22l-27.73-29.483l29.324-27.898l-0.478,17.217
					c0,0,25.179,6.837,43.287-21.768c0,0,3.702,22.322-16.078,37.866C425.659,303.853,416.677,311.796,397.812,310.7L397.812,310.7z
					 M397.812,310.7"/>
				<path style="fill:#233863;" d="M397.333,329.42c-0.406,0-0.804-0.165-1.093-0.473l-27.729-29.483
					c-0.565-0.601-0.539-1.546,0.059-2.114l29.324-27.898c0.441-0.418,1.09-0.531,1.645-0.283c0.555,0.247,0.906,0.805,0.889,1.412
					l-0.443,15.974c5.024,0.921,25.162,2.834,40.486-21.37c0.332-0.524,0.952-0.793,1.565-0.667c0.61,0.123,1.08,0.61,1.182,1.225
					c0.039,0.231,3.613,23.381-16.631,39.29c-0.31,0.277-9.098,7.857-27.317,7.236l-0.437,15.693
					c-0.017,0.606-0.397,1.144-0.966,1.36C397.692,329.388,397.512,329.42,397.333,329.42z M371.718,298.495l24.217,25.748
					l0.378-13.585c0.011-0.405,0.185-0.789,0.484-1.064c0.3-0.273,0.7-0.416,1.102-0.392c17.939,1.03,26.685-6.402,26.771-6.478
					c13.833-10.872,15.792-25.229,15.83-32.255c-18.257,24.935-42.193,18.802-42.442,18.732c-0.669-0.181-1.126-0.797-1.106-1.489
					l0.377-13.582L371.718,298.495z"/>
			</g>
		</g>
	</g>
</g>
<g id="DESIGNED_BY_FREEPIK">
	<g>
		<g>
			<g id="XMLID_197_">
				<g id="XMLID_216_">
					<path id="XMLID_224_" d="M260.064,463.607c-0.43,0.441-0.8,0.927-1.104,1.447l-0.463-0.24c-0.067-0.296-0.348-0.5-0.656-0.464
						c-0.33,0.039-0.565,0.337-0.527,0.667c0.039,0.33,0.337,0.565,0.667,0.527c0.065-0.008,0.126-0.026,0.183-0.052l0.45,0.233
						c-0.25,0.552-0.431,1.134-0.537,1.737l0.743,0.131c0.229-1.301,0.846-2.497,1.785-3.459L260.064,463.607z"/>
					<path id="XMLID_223_" d="M265.53,461.314c-0.17,0-0.339,0.006-0.508,0.017l-0.073-0.624c0.187-0.149,0.295-0.388,0.265-0.642
						c-0.046-0.392-0.401-0.672-0.792-0.625c-0.392,0.046-0.672,0.401-0.626,0.792c0.03,0.253,0.189,0.459,0.403,0.561l0.073,0.622
						c-0.711,0.116-1.397,0.331-2.051,0.643l0.326,0.681c0.93-0.445,1.934-0.671,2.983-0.671c0.494,0,0.989,0.053,1.469,0.157
						l0.16-0.738C266.626,461.373,266.078,461.314,265.53,461.314z"/>
					<path id="XMLID_222_" d="M272.106,463.852c0.329-0.04,0.564-0.34,0.523-0.67c-0.04-0.329-0.34-0.564-0.67-0.523
						c-0.308,0.038-0.533,0.303-0.528,0.606l-0.414,0.362c-0.416-0.428-0.886-0.81-1.402-1.135l-0.402,0.639
						c1.13,0.712,2.012,1.719,2.553,2.914l0.688-0.311c-0.25-0.552-0.565-1.068-0.938-1.539l0.4-0.349
						C271.977,463.856,272.04,463.859,272.106,463.852z"/>
					<path id="XMLID_221_" d="M264.984,471.482c-0.384,0.023-0.772,0.035-1.152,0.035c-0.877,0-1.726-0.06-2.469-0.178
						c-0.389-0.062-0.843-0.154-1.265-0.291c1.042,1.854,3.057,3.113,5.367,3.113c2.844,0,5.241-1.909,5.926-4.486
						c-0.679,0.448-1.499,0.822-2.449,1.118C267.767,471.159,266.398,471.397,264.984,471.482z"/>
					<path id="XMLID_217_" d="M265.53,462.824c-3.339,0-6.055,2.656-6.055,5.92c0,0.424,0.046,0.846,0.137,1.256
						c0.671,0.481,2.695,0.886,5.326,0.728c2.868-0.173,5.276-0.954,6.646-2.15c-0.005-0.194-0.021-0.388-0.045-0.579
						C271.159,465.049,268.576,462.824,265.53,462.824z M263.379,469.313c-1.016,0-1.842-0.826-1.842-1.842s0.827-1.842,1.842-1.842
						c1.016,0,1.842,0.827,1.842,1.842S264.395,469.313,263.379,469.313z M268.097,468.409c-0.747,0-1.355-0.608-1.355-1.355
						s0.608-1.355,1.355-1.355c0.747,0,1.355,0.608,1.355,1.355S268.845,468.409,268.097,468.409z"/>
				</g>
				<path id="XMLID_214_" d="M281.469,464.684c-0.294-0.116-0.802-0.308-1.377-0.236c-0.549,0.068-0.84,0.339-0.84,1.003v0.862
					h2.219v1.71h-2.219v5.433h-1.924v-5.433h-1.334v-1.71h1.334v-0.885c0-1.673,0.892-2.772,2.558-2.772
					c0.64,0,1.152,0.121,1.584,0.307L281.469,464.684z"/>
				<path id="XMLID_212_" d="M286.153,468.003c-0.176-0.03-0.356-0.046-0.524-0.046c-0.892,0-1.504,0.546-1.504,1.607v3.892h-1.924
					v-7.143h1.865v0.781c0.45-0.671,1.135-0.973,2.013-0.973c0.413,0,0.844,0.127,1.09,0.335L286.153,468.003z"/>
				<path id="XMLID_209_" d="M293.79,469.874c0,0.221-0.015,0.487-0.037,0.649h-5.064c0.206,1.032,0.929,1.482,1.836,1.482
					c0.619,0,1.29-0.251,1.806-0.685l1.128,1.238c-0.811,0.745-1.843,1.084-3.044,1.084c-2.19,0-3.708-1.489-3.708-3.737
					c0-2.249,1.474-3.782,3.612-3.782C292.374,466.121,293.782,467.647,293.79,469.874z M288.696,469.21h3.162
					c-0.177-0.914-0.73-1.43-1.555-1.43C289.396,467.78,288.865,468.326,288.696,469.21z"/>
				<path id="XMLID_206_" d="M301.412,469.874c0,0.221-0.015,0.487-0.037,0.649h-5.064c0.206,1.032,0.929,1.482,1.836,1.482
					c0.619,0,1.29-0.251,1.806-0.685l1.128,1.238c-0.811,0.745-1.843,1.084-3.045,1.084c-2.19,0-3.708-1.489-3.708-3.737
					c0-2.249,1.474-3.782,3.612-3.782C299.997,466.121,301.405,467.647,301.412,469.874z M296.318,469.21h3.163
					c-0.177-0.914-0.73-1.43-1.555-1.43C297.019,467.78,296.488,468.326,296.318,469.21z"/>
				<path id="XMLID_203_" d="M309.725,469.881c0,2.145-1.489,3.76-3.457,3.76c-0.958,0-1.637-0.376-2.101-0.929v3.693h-1.917
					v-10.092h1.88v0.789c0.465-0.582,1.15-0.98,2.131-0.98C308.236,466.121,309.725,467.736,309.725,469.881z M304.07,469.881
					c0,1.128,0.745,1.968,1.836,1.968c1.135,0,1.843-0.877,1.843-1.968c0-1.091-0.708-1.968-1.843-1.968
					C304.815,467.913,304.07,468.753,304.07,469.881z"/>
				<path id="XMLID_200_" d="M312.816,463.976c0,0.693-0.538,1.224-1.231,1.224c-0.693,0-1.224-0.531-1.224-1.224
					c0-0.693,0.531-1.238,1.224-1.238C312.277,462.738,312.816,463.283,312.816,463.976z M312.558,473.456h-1.924v-7.143h1.924
					V473.456z"/>
				<path id="XMLID_198_" d="M315.768,468.856l2.691-2.543h2.359l-3.465,3.362l3.487,3.782h-2.366l-2.705-2.89v2.89h-1.924v-10.616
					h1.924V468.856z"/>
			</g>
			<g>
				<path d="M184.674,473.392v-1.051c-0.525,0.715-1.386,1.226-2.378,1.226c-1.838,0-3.137-1.4-3.137-3.691
					c0-2.247,1.284-3.706,3.137-3.706c0.948,0,1.809,0.467,2.378,1.24v-3.75h1.095v9.731H184.674z M184.674,471.48v-3.195
					c-0.394-0.613-1.24-1.138-2.115-1.138c-1.415,0-2.261,1.167-2.261,2.728c0,1.561,0.846,2.714,2.261,2.714
					C183.434,472.589,184.28,472.093,184.674,471.48z"/>
				<path d="M187.184,469.861c0-2.043,1.459-3.691,3.472-3.691c2.13,0,3.385,1.663,3.385,3.779v0.277h-5.704
					c0.088,1.328,1.021,2.436,2.539,2.436c0.802,0,1.619-0.321,2.174-0.89l0.525,0.715c-0.7,0.7-1.648,1.079-2.801,1.079
					C188.686,473.567,187.184,472.064,187.184,469.861z M190.641,467.075c-1.503,0-2.247,1.269-2.305,2.349h4.625
					C192.946,468.373,192.246,467.075,190.641,467.075z"/>
				<path d="M194.828,472.458l0.569-0.788c0.467,0.54,1.357,1.007,2.32,1.007c1.08,0,1.663-0.511,1.663-1.211
					c0-1.707-4.362-0.656-4.362-3.268c0-1.094,0.948-2.028,2.626-2.028c1.196,0,2.043,0.452,2.612,1.021l-0.511,0.759
					c-0.423-0.511-1.196-0.89-2.101-0.89c-0.963,0-1.561,0.482-1.561,1.109c0,1.546,4.362,0.525,4.362,3.268
					c0,1.182-0.948,2.13-2.772,2.13C196.52,473.567,195.543,473.216,194.828,472.458z"/>
				<path d="M201.671,464.609c0-0.408,0.335-0.744,0.729-0.744c0.408,0,0.744,0.336,0.744,0.744c0,0.409-0.335,0.729-0.744,0.729
					C202.006,465.338,201.671,465.017,201.671,464.609z M201.86,473.392v-7.047h1.094v7.047H201.86z"/>
				<path d="M204.763,475.201l0.554-0.817c0.583,0.7,1.284,0.963,2.291,0.963c1.167,0,2.261-0.569,2.261-2.116v-1.007
					c-0.511,0.715-1.371,1.255-2.364,1.255c-1.838,0-3.137-1.371-3.137-3.647c0-2.261,1.284-3.662,3.137-3.662
					c0.949,0,1.795,0.467,2.364,1.24v-1.065h1.094v6.842c0,2.334-1.634,3.064-3.355,3.064
					C206.412,476.251,205.595,476.018,204.763,475.201z M209.87,471.364v-3.078c-0.379-0.613-1.226-1.138-2.101-1.138
					c-1.415,0-2.261,1.124-2.261,2.684c0,1.547,0.846,2.685,2.261,2.685C208.644,472.516,209.49,471.977,209.87,471.364z"/>
				<path d="M217.543,473.392v-4.61c0-1.24-0.627-1.634-1.576-1.634c-0.861,0-1.678,0.525-2.086,1.094v5.15h-1.095v-7.047h1.095
					v1.021c0.496-0.583,1.459-1.196,2.509-1.196c1.474,0,2.247,0.744,2.247,2.276v4.946H217.543z"/>
				<path d="M220.053,469.861c0-2.043,1.459-3.691,3.472-3.691c2.13,0,3.385,1.663,3.385,3.779v0.277h-5.704
					c0.087,1.328,1.021,2.436,2.538,2.436c0.802,0,1.619-0.321,2.174-0.89l0.525,0.715c-0.7,0.7-1.649,1.079-2.801,1.079
					C221.555,473.567,220.053,472.064,220.053,469.861z M223.51,467.075c-1.503,0-2.247,1.269-2.305,2.349h4.625
					C225.815,468.373,225.115,467.075,223.51,467.075z"/>
				<path d="M233.417,473.392v-1.051c-0.525,0.715-1.386,1.226-2.378,1.226c-1.838,0-3.137-1.4-3.137-3.691
					c0-2.247,1.284-3.706,3.137-3.706c0.948,0,1.809,0.467,2.378,1.24v-3.75h1.094v9.731H233.417z M233.417,471.48v-3.195
					c-0.394-0.613-1.24-1.138-2.116-1.138c-1.415,0-2.261,1.167-2.261,2.728c0,1.561,0.846,2.714,2.261,2.714
					C232.176,472.589,233.022,472.093,233.417,471.48z"/>
				<path d="M239.733,473.392v-9.731h1.094v3.75c0.569-0.773,1.415-1.24,2.378-1.24c1.838,0,3.137,1.459,3.137,3.706
					c0,2.29-1.298,3.691-3.137,3.691c-0.992,0-1.853-0.51-2.378-1.226v1.051H239.733z M242.928,472.589
					c1.43,0,2.276-1.152,2.276-2.714c0-1.561-0.846-2.728-2.276-2.728c-0.861,0-1.721,0.525-2.101,1.138v3.195
					C241.207,472.093,242.068,472.589,242.928,472.589z"/>
				<path d="M247.538,475.157c0.16,0.073,0.423,0.117,0.598,0.117c0.481,0,0.802-0.161,1.05-0.744l0.467-1.065l-2.947-7.12h1.182
					l2.349,5.777l2.334-5.777h1.196l-3.531,8.477c-0.423,1.021-1.138,1.415-2.072,1.43c-0.233,0-0.598-0.044-0.802-0.102
					L247.538,475.157z"/>
			</g>
		</g>
	</g>
</g>
</svg>
